<?xml version="1.0" encoding="UTF-8" standalone="no"?>
<!-- Created with Inkscape (http://www.inkscape.org/) -->

<svg
   width="79.161697mm"
   height="172.97235mm"
   viewBox="0 0 79.161709 172.97235"
   version="1.1"
   id="svg5"
   inkscape:version="1.2.1 (9c6d41e410, 2022-07-14)"
   sodipodi:docname="dijkstra_edges_more.svg"
   xml:space="preserve"
   xmlns:inkscape="http://www.inkscape.org/namespaces/inkscape"
   xmlns:sodipodi="http://sodipodi.sourceforge.net/DTD/sodipodi-0.dtd"
   xmlns="http://www.w3.org/2000/svg"
   xmlns:svg="http://www.w3.org/2000/svg"><sodipodi:namedview
     id="namedview7"
     pagecolor="#e5e5e5"
     bordercolor="#666666"
     borderopacity="1.0"
     inkscape:pageshadow="2"
     inkscape:pageopacity="0"
     inkscape:pagecheckerboard="false"
     inkscape:document-units="mm"
     showgrid="false"
     inkscape:zoom="1.3142638"
     inkscape:cx="295.60276"
     inkscape:cy="453.48582"
     inkscape:window-width="1916"
     inkscape:window-height="1037"
     inkscape:window-x="0"
     inkscape:window-y="20"
     inkscape:window-maximized="1"
     inkscape:current-layer="layer1"
     inkscape:showpageshadow="2"
     inkscape:deskcolor="#e5e5e5" /><defs
     id="defs2"><marker
       style="overflow:visible"
       id="Arrow2Mstart-1"
       refX="0"
       refY="0"
       orient="80"
       inkscape:stockid="Arrow2Mstart"
       inkscape:isstock="true"
       viewBox="0 0 6.9304588 5.1962256"
       markerWidth="6"
       markerHeight="4.4985986"
       preserveAspectRatio="xMidYMid"><path
         transform="scale(0.6)"
         d="M 8.7185878,4.0337352 -2.2072895,0.01601326 8.7185884,-4.0017078 c -1.7454984,2.3720609 -1.7354408,5.6174519 -6e-7,8.035443 z"
         style="fill:context-stroke;fill-rule:evenodd;stroke:context-stroke;stroke-width:0.625;stroke-linejoin:round"
         id="path752666-1" /></marker><marker
       style="overflow:visible"
       id="Arrow2Mstart-1-6"
       refX="0"
       refY="0"
       orient="100"
       inkscape:stockid="Arrow2Mstart"
       inkscape:isstock="true"
       viewBox="0 0 6.9304588 5.1962256"
       markerWidth="6"
       markerHeight="4.4985991"
       preserveAspectRatio="xMidYMid"><path
         transform="scale(0.6)"
         d="M 8.7185878,4.0337352 -2.2072895,0.01601326 8.7185884,-4.0017078 c -1.7454984,2.3720609 -1.7354408,5.6174519 -6e-7,8.035443 z"
         style="fill:context-stroke;fill-rule:evenodd;stroke:context-stroke;stroke-width:0.625;stroke-linejoin:round"
         id="path752666-1-2" /></marker><g
       id="id-1382ddda-13d8-44c1-887b-2c417df8020d"
       style="fill:#ff7d7d;fill-opacity:1;stroke-width:0"><symbol
         overflow="visible"
         id="id-2987ecb6-e645-40dc-a4ab-cdce30e95433"
         style="fill:#ff7d7d;fill-opacity:1;stroke-width:0"><path
           style="fill:#ff7d7d;fill-opacity:1;stroke:#ff7d7d;stroke-width:0"
           d=""
           id="id-3b98700b-0855-4a10-80b3-a692d3e7d50b" /></symbol><symbol
         overflow="visible"
         id="id-58cb04d7-1877-44b5-aec1-81ac0bbb04ce"
         style="fill:#ff7d7d;fill-opacity:1;stroke-width:0"><path
           style="fill:#ff7d7d;fill-opacity:1;stroke:#ff7d7d;stroke-width:0"
           d="M 2.5,-6.921875 1.15625,-5.5625 1.328125,-5.390625 2.5,-6.40625 3.640625,-5.390625 3.8125,-5.5625 Z m 0,0"
           id="id-45a14c04-6293-4c36-8b8b-f648b538435f" /></symbol><symbol
         overflow="visible"
         id="id-ed676b78-a4b2-44bf-85bb-687430ab3d99"
         style="fill:#ff7d7d;fill-opacity:1;stroke-width:0"><path
           style="fill:#ff7d7d;fill-opacity:1;stroke:#ff7d7d;stroke-width:0"
           d=""
           id="id-98899169-4099-434d-b7cf-ec48906251fa" /></symbol><symbol
         overflow="visible"
         id="id-82ddcd87-eb09-4052-a770-267e129ec831"
         style="fill:#ff7d7d;fill-opacity:1;stroke-width:0"><path
           style="fill:#ff7d7d;fill-opacity:1;stroke:#ff7d7d;stroke-width:0"
           d="m 5.359375,-5.9375 c -0.140625,0.140625 -0.46875,0.421875 -0.46875,0.59375 0,0.09375 0.09375,0.203125 0.1875,0.203125 0.09375,0 0.140625,-0.078125 0.203125,-0.140625 C 5.390625,-5.421875 5.625,-5.703125 6.0625,-5.921875 6.125,-5.96875 6.234375,-6.015625 6.234375,-6.125 6.234375,-6.234375 6.15625,-6.28125 6.09375,-6.328125 5.875,-6.484375 5.765625,-6.65625 5.6875,-6.890625 5.65625,-6.984375 5.625,-7.125 5.484375,-7.125 c -0.140625,0 -0.203125,0.140625 -0.203125,0.21875 0,0.046875 0.078125,0.359375 0.234375,0.578125 H 2.15625 c -0.15625,0 -0.34375,0 -0.34375,0.203125 0,0.1875 0.1875,0.1875 0.34375,0.1875 z m 0,0"
           id="id-fb2ec67b-5599-4f38-8ad5-637b70218c92" /></symbol><symbol
         overflow="visible"
         id="id-f927e3e3-e837-4cc7-85da-5a0c1301db5a"
         style="fill:#ff7d7d;fill-opacity:1;stroke-width:0"><path
           style="fill:#ff7d7d;fill-opacity:1;stroke:#ff7d7d;stroke-width:0"
           d="m 1.328125,-0.828125 c 0.53125,-0.578125 0.828125,-0.828125 1.1875,-1.140625 0,0 0.609375,-0.53125 0.96875,-0.890625 C 4.4375,-3.78125 4.65625,-4.265625 4.65625,-4.3125 c 0,-0.09375 -0.09375,-0.09375 -0.109375,-0.09375 -0.078125,0 -0.09375,0.015625 -0.15625,0.109375 -0.296875,0.484375 -0.5,0.640625 -0.734375,0.640625 -0.25,0 -0.359375,-0.15625 -0.515625,-0.328125 -0.1875,-0.21875 -0.359375,-0.421875 -0.6875,-0.421875 -0.75,0 -1.203125,0.921875 -1.203125,1.140625 0,0.046875 0.03125,0.109375 0.109375,0.109375 0.09375,0 0.109375,-0.046875 0.140625,-0.109375 0.1875,-0.46875 0.765625,-0.46875 0.84375,-0.46875 0.203125,0 0.390625,0.0625 0.625,0.140625 0.40625,0.15625 0.515625,0.15625 0.765625,0.15625 -0.359375,0.421875 -1.1875,1.140625 -1.375,1.296875 l -0.90625,0.84375 C 0.78125,-0.625 0.421875,-0.0625 0.421875,0.015625 c 0,0.09375 0.109375,0.09375 0.125,0.09375 0.078125,0 0.09375,-0.015625 0.15625,-0.125 0.234375,-0.359375 0.53125,-0.625 0.859375,-0.625 0.21875,0 0.328125,0.09375 0.578125,0.375 0.15625,0.21875 0.34375,0.375 0.625,0.375 1,0 1.578125,-1.265625 1.578125,-1.53125 0,-0.046875 -0.046875,-0.109375 -0.125,-0.109375 -0.09375,0 -0.109375,0.0625 -0.140625,0.140625 C 3.84375,-0.75 3.203125,-0.5625 2.875,-0.5625 c -0.1875,0 -0.375,-0.0625 -0.578125,-0.125 -0.34375,-0.125 -0.5,-0.171875 -0.703125,-0.171875 -0.015625,0 -0.171875,0 -0.265625,0.03125 z m 0,0"
           id="id-fdde69c8-6119-48b4-bde0-82b85acc73a8" /></symbol></g><g
       id="id-e69a1900-e63a-41df-b033-91322fbc874e"
       style="fill:#33aaff;fill-opacity:1;stroke-width:0"><symbol
         overflow="visible"
         id="id-3853542e-b35b-43ca-bdb3-a1686dd7421b"
         style="fill:#33aaff;fill-opacity:1;stroke-width:0"><path
           style="fill:#33aaff;fill-opacity:1;stroke:#33aaff;stroke-width:0"
           d=""
           id="id-0ca73283-5d78-4617-8437-d8f268c000db" /></symbol><symbol
         overflow="visible"
         id="id-f7fa66ab-907d-4510-963e-1eccb344ad6d"
         style="fill:#33aaff;fill-opacity:1;stroke-width:0"><path
           style="fill:#33aaff;fill-opacity:1;stroke:#33aaff;stroke-width:0"
           d="m 5.359375,-5.9375 c -0.140625,0.140625 -0.46875,0.421875 -0.46875,0.59375 0,0.09375 0.09375,0.203125 0.1875,0.203125 0.09375,0 0.140625,-0.078125 0.203125,-0.140625 C 5.390625,-5.421875 5.625,-5.703125 6.0625,-5.921875 6.125,-5.96875 6.234375,-6.015625 6.234375,-6.125 6.234375,-6.234375 6.15625,-6.28125 6.09375,-6.328125 5.875,-6.484375 5.765625,-6.65625 5.6875,-6.890625 5.65625,-6.984375 5.625,-7.125 5.484375,-7.125 c -0.140625,0 -0.203125,0.140625 -0.203125,0.21875 0,0.046875 0.078125,0.359375 0.234375,0.578125 H 2.15625 c -0.15625,0 -0.34375,0 -0.34375,0.203125 0,0.1875 0.1875,0.1875 0.34375,0.1875 z m 0,0"
           id="id-06f2faa5-9274-4229-a0d9-4fe96570d439" /></symbol><symbol
         overflow="visible"
         id="id-0fa9e3b9-5da2-4c5f-bcd0-c53f29e34b3b"
         style="fill:#33aaff;fill-opacity:1;stroke-width:0"><path
           style="fill:#33aaff;fill-opacity:1;stroke:#33aaff;stroke-width:0"
           d="M 3.484375,-0.5625 C 3.59375,-0.15625 3.953125,0.109375 4.375,0.109375 4.71875,0.109375 4.953125,-0.125 5.109375,-0.4375 5.28125,-0.796875 5.40625,-1.40625 5.40625,-1.421875 c 0,-0.109375 -0.078125,-0.109375 -0.109375,-0.109375 -0.109375,0 -0.109375,0.046875 -0.140625,0.1875 -0.140625,0.5625 -0.328125,1.234375 -0.75,1.234375 -0.203125,0 -0.3125,-0.125 -0.3125,-0.453125 0,-0.21875 0.125,-0.6875 0.203125,-1.046875 L 4.578125,-2.6875 C 4.609375,-2.828125 4.703125,-3.203125 4.75,-3.359375 4.796875,-3.59375 4.890625,-3.96875 4.890625,-4.03125 c 0,-0.171875 -0.140625,-0.265625 -0.28125,-0.265625 -0.046875,0 -0.3125,0.015625 -0.390625,0.34375 -0.1875,0.734375 -0.625,2.484375 -0.75,3 -0.015625,0.046875 -0.40625,0.84375 -1.140625,0.84375 -0.515625,0 -0.609375,-0.453125 -0.609375,-0.8125 0,-0.5625 0.28125,-1.34375 0.53125,-2.03125 0.125,-0.3125 0.171875,-0.453125 0.171875,-0.640625 0,-0.4375 -0.3125,-0.8125 -0.8125,-0.8125 -0.953125,0 -1.3125,1.453125 -1.3125,1.53125 0,0.109375 0.09375,0.109375 0.109375,0.109375 0.109375,0 0.109375,-0.03125 0.15625,-0.1875 0.25,-0.859375 0.640625,-1.234375 1.015625,-1.234375 0.09375,0 0.25,0.015625 0.25,0.328125 0,0.234375 -0.109375,0.53125 -0.171875,0.671875 -0.375,1 -0.578125,1.609375 -0.578125,2.09375 0,0.953125 0.6875,1.203125 1.21875,1.203125 0.65625,0 1.015625,-0.453125 1.1875,-0.671875 z m 0,0"
           id="id-2d6aa263-f6ce-4e30-a9d2-5ff97dc61bbc" /></symbol><symbol
         overflow="visible"
         id="id-44a5c21a-ce62-42d0-9540-96b39a3320e2"
         style="fill:#33aaff;fill-opacity:1;stroke-width:0"><path
           style="fill:#33aaff;fill-opacity:1;stroke:#33aaff;stroke-width:0"
           d=""
           id="id-63f427be-cc8c-4d12-8a0e-158477a1435a" /></symbol><symbol
         overflow="visible"
         id="id-e334649a-38ec-495a-bf55-fb465f849296"
         style="fill:#33aaff;fill-opacity:1;stroke-width:0"><path
           style="fill:#33aaff;fill-opacity:1;stroke:#33aaff;stroke-width:0"
           d="M 7.78125,-6.59375 C 7.796875,-6.625 7.828125,-6.6875 7.828125,-6.734375 7.828125,-6.796875 7.8125,-6.8125 7.59375,-6.8125 H 0.703125 c -0.21875,0 -0.234375,0.015625 -0.234375,0.078125 0,0.046875 0.03125,0.109375 0.046875,0.140625 L 3.875,0.140625 c 0.078125,0.125 0.109375,0.1875 0.265625,0.1875 0.171875,0 0.203125,-0.0625 0.28125,-0.1875 z m -6.078125,0.5 h 5.46875 l -2.71875,5.484375 z m 0,0"
           id="id-3f56303d-763f-47a7-a93b-1283c32f79f4" /></symbol></g><g
       id="id-237fd5ef-e2bb-494e-b344-1df375c10e6c"
       style="fill:#000000;fill-opacity:1;stroke-width:0"><symbol
         overflow="visible"
         id="id-0e896e62-ed34-4828-92cc-9fb4160c48cb"
         style="fill:#000000;fill-opacity:1;stroke-width:0"><path
           style="fill:#000000;fill-opacity:1;stroke:#000000;stroke-width:0"
           d=""
           id="id-e2970e73-e2eb-49a9-abed-f5997652b8d7" /></symbol><symbol
         overflow="visible"
         id="id-8cc1181c-a033-4743-825b-aae8fc6245ef"
         style="fill:#000000;fill-opacity:1;stroke-width:0"><path
           style="fill:#000000;fill-opacity:1;stroke:#000000;stroke-width:0"
           d="M 2.5,-6.921875 1.15625,-5.5625 1.328125,-5.390625 2.5,-6.40625 3.640625,-5.390625 3.8125,-5.5625 Z m 0,0"
           id="id-791d7265-a98e-4a6d-b4cf-cd40eec891b6" /></symbol><symbol
         overflow="visible"
         id="id-5684f43f-0247-48f9-939f-1f6cde6e6419"
         style="fill:#000000;fill-opacity:1;stroke-width:0"><path
           style="fill:#000000;fill-opacity:1;stroke:#000000;stroke-width:0"
           d="m 3.296875,2.390625 c 0,-0.03125 0,-0.046875 -0.171875,-0.21875 C 1.890625,0.921875 1.5625,-0.96875 1.5625,-2.5 c 0,-1.734375 0.375,-3.46875 1.609375,-4.703125 0.125,-0.125 0.125,-0.140625 0.125,-0.171875 0,-0.078125 -0.03125,-0.109375 -0.09375,-0.109375 -0.109375,0 -1,0.6875 -1.59375,1.953125 -0.5,1.09375 -0.625,2.203125 -0.625,3.03125 0,0.78125 0.109375,1.984375 0.65625,3.125 C 2.25,1.84375 3.09375,2.5 3.203125,2.5 c 0.0625,0 0.09375,-0.03125 0.09375,-0.109375 z m 0,0"
           id="id-71107169-11d7-4563-9880-4531fdbe231d" /></symbol><symbol
         overflow="visible"
         id="id-eb904d9f-bd20-4da5-a607-494a2d1d1a72"
         style="fill:#000000;fill-opacity:1;stroke-width:0"><path
           style="fill:#000000;fill-opacity:1;stroke:#000000;stroke-width:0"
           d="m 2.875,-2.5 c 0,-0.765625 -0.109375,-1.96875 -0.65625,-3.109375 -0.59375,-1.21875 -1.453125,-1.875 -1.546875,-1.875 -0.0625,0 -0.109375,0.046875 -0.109375,0.109375 0,0.03125 0,0.046875 0.1875,0.234375 0.984375,0.984375 1.546875,2.5625 1.546875,4.640625 0,1.71875 -0.359375,3.46875 -1.59375,4.71875 C 0.5625,2.34375 0.5625,2.359375 0.5625,2.390625 0.5625,2.453125 0.609375,2.5 0.671875,2.5 0.765625,2.5 1.671875,1.8125 2.25,0.546875 2.765625,-0.546875 2.875,-1.65625 2.875,-2.5 Z m 0,0"
           id="id-73eb122b-3c69-40ca-b425-b70d5a1cbf2c" /></symbol><symbol
         overflow="visible"
         id="id-85572e59-2761-4d90-a6ae-0a4d08a4cccd"
         style="fill:#000000;fill-opacity:1;stroke-width:0"><path
           style="fill:#000000;fill-opacity:1;stroke:#000000;stroke-width:0"
           d="m 6.84375,-3.265625 c 0.15625,0 0.34375,0 0.34375,-0.1875 C 7.1875,-3.65625 7,-3.65625 6.859375,-3.65625 h -5.96875 c -0.140625,0 -0.328125,0 -0.328125,0.203125 0,0.1875 0.1875,0.1875 0.328125,0.1875 z m 0.015625,1.9375 c 0.140625,0 0.328125,0 0.328125,-0.203125 0,-0.1875 -0.1875,-0.1875 -0.34375,-0.1875 H 0.890625 c -0.140625,0 -0.328125,0 -0.328125,0.1875 0,0.203125 0.1875,0.203125 0.328125,0.203125 z m 0,0"
           id="id-d610bd68-e9bf-4ba8-b9df-6486125aaa15" /></symbol><symbol
         overflow="visible"
         id="id-28919ab6-563f-4d36-acb4-8401364c3229"
         style="fill:#000000;fill-opacity:1;stroke-width:0"><path
           style="fill:#000000;fill-opacity:1;stroke:#000000;stroke-width:0"
           d="m 2.34375,-2.484375 c 0,-1.25 0.96875,-1.96875 1.3125,-2.21875 0.265625,-0.203125 0.484375,-0.5625 0.484375,-0.984375 0,-0.578125 -0.40625,-1.34375 -1.890625,-1.34375 -1.078125,0 -1.6875,0.6875 -1.6875,1.328125 0,0.34375 0.21875,0.484375 0.453125,0.484375 0.28125,0 0.453125,-0.203125 0.453125,-0.46875 0,-0.4375 -0.40625,-0.4375 -0.546875,-0.4375 0.296875,-0.53125 0.875,-0.6875 1.296875,-0.6875 1.09375,0 1.09375,0.6875 1.09375,1.078125 0,0.578125 -0.15625,0.765625 -0.34375,0.9375 -0.65625,0.71875 -0.875,1.640625 -0.875,2.25 v 0.4375 c 0,0.1875 0,0.25 0.125,0.25 0.125,0 0.125,-0.09375 0.125,-0.28125 z M 2.734375,-0.53125 C 2.734375,-0.8125 2.5,-1.0625 2.21875,-1.0625 c -0.296875,0 -0.53125,0.25 -0.53125,0.53125 C 1.6875,-0.234375 1.921875,0 2.21875,0 2.5,0 2.734375,-0.234375 2.734375,-0.53125 Z m 0,0"
           id="id-c85e584b-e893-4cbf-9b28-f2340f04a153" /></symbol><symbol
         overflow="visible"
         id="id-c346357e-2fc7-44ce-b056-26e91474a902"
         style="fill:#000000;fill-opacity:1;stroke-width:0"><path
           style="fill:#000000;fill-opacity:1;stroke:#000000;stroke-width:0"
           d=""
           id="id-18966f70-6bad-4616-ab63-6f54f2944a33" /></symbol><symbol
         overflow="visible"
         id="id-6014f572-9378-46ed-8706-b354d6a65cb2"
         style="fill:#000000;fill-opacity:1;stroke-width:0"><path
           style="fill:#000000;fill-opacity:1;stroke:#000000;stroke-width:0"
           d="m 5.359375,-5.9375 c -0.140625,0.140625 -0.46875,0.421875 -0.46875,0.59375 0,0.09375 0.09375,0.203125 0.1875,0.203125 0.09375,0 0.140625,-0.078125 0.203125,-0.140625 C 5.390625,-5.421875 5.625,-5.703125 6.0625,-5.921875 6.125,-5.96875 6.234375,-6.015625 6.234375,-6.125 6.234375,-6.234375 6.15625,-6.28125 6.09375,-6.328125 5.875,-6.484375 5.765625,-6.65625 5.6875,-6.890625 5.65625,-6.984375 5.625,-7.125 5.484375,-7.125 c -0.140625,0 -0.203125,0.140625 -0.203125,0.21875 0,0.046875 0.078125,0.359375 0.234375,0.578125 H 2.15625 c -0.15625,0 -0.34375,0 -0.34375,0.203125 0,0.1875 0.1875,0.1875 0.34375,0.1875 z m 0,0"
           id="id-cdb9ccd6-5069-47f5-9d1a-0f8a30e52abb" /></symbol><symbol
         overflow="visible"
         id="id-9a2c00b3-a80a-48c6-b98d-881b4b446621"
         style="fill:#000000;fill-opacity:1;stroke-width:0"><path
           style="fill:#000000;fill-opacity:1;stroke:#000000;stroke-width:0"
           d="M 0.453125,1.21875 C 0.375,1.5625 0.34375,1.625 -0.09375,1.625 c -0.109375,0 -0.21875,0 -0.21875,0.1875 0,0.078125 0.046875,0.125 0.125,0.125 0.265625,0 0.5625,-0.03125 0.828125,-0.03125 0.34375,0 0.671875,0.03125 1,0.03125 0.046875,0 0.171875,0 0.171875,-0.203125 C 1.8125,1.625 1.71875,1.625 1.578125,1.625 c -0.5,0 -0.5,-0.0625 -0.5,-0.15625 0,-0.125 0.421875,-1.75 0.484375,-2 0.125,0.296875 0.40625,0.640625 0.921875,0.640625 1.15625,0 2.40625,-1.453125 2.40625,-2.921875 0,-0.9375 -0.578125,-1.59375 -1.328125,-1.59375 -0.5,0 -0.984375,0.359375 -1.3125,0.75 -0.09375,-0.546875 -0.53125,-0.75 -0.890625,-0.75 -0.46875,0 -0.65625,0.390625 -0.734375,0.5625 C 0.4375,-3.5 0.3125,-2.90625 0.3125,-2.875 c 0,0.109375 0.09375,0.109375 0.109375,0.109375 0.109375,0 0.109375,-0.015625 0.171875,-0.234375 0.171875,-0.703125 0.375,-1.1875 0.734375,-1.1875 0.171875,0 0.3125,0.078125 0.3125,0.453125 0,0.234375 -0.03125,0.34375 -0.078125,0.515625 z m 1.75,-4.328125 C 2.265625,-3.375 2.546875,-3.65625 2.71875,-3.8125 c 0.359375,-0.296875 0.640625,-0.375 0.8125,-0.375 0.390625,0 0.640625,0.34375 0.640625,0.9375 0,0.59375 -0.328125,1.734375 -0.515625,2.109375 -0.34375,0.703125 -0.8125,1.03125 -1.1875,1.03125 C 1.8125,-0.109375 1.6875,-0.9375 1.6875,-1 c 0,-0.015625 0,-0.03125 0.03125,-0.15625 z m 0,0"
           id="id-6950ad6f-c962-42e3-9602-686c624336be" /></symbol><symbol
         overflow="visible"
         id="id-011455c5-86ee-42cc-b6cf-fc9166ea59ca"
         style="fill:#000000;fill-opacity:1;stroke-width:0"><path
           style="fill:#000000;fill-opacity:1;stroke:#000000;stroke-width:0"
           d="m 2.046875,-3.984375 h 0.9375 c 0.203125,0 0.3125,0 0.3125,-0.203125 0,-0.109375 -0.109375,-0.109375 -0.28125,-0.109375 h -0.875 C 2.5,-5.71875 2.546875,-5.90625 2.546875,-5.96875 c 0,-0.171875 -0.125,-0.265625 -0.296875,-0.265625 -0.03125,0 -0.3125,0 -0.390625,0.359375 L 1.46875,-4.296875 h -0.9375 c -0.203125,0 -0.296875,0 -0.296875,0.1875 0,0.125 0.078125,0.125 0.28125,0.125 h 0.875 C 0.671875,-1.15625 0.625,-0.984375 0.625,-0.8125 0.625,-0.265625 1,0.109375 1.546875,0.109375 2.5625,0.109375 3.125,-1.34375 3.125,-1.421875 3.125,-1.53125 3.046875,-1.53125 3.015625,-1.53125 2.921875,-1.53125 2.90625,-1.5 2.859375,-1.390625 2.4375,-0.34375 1.90625,-0.109375 1.5625,-0.109375 c -0.203125,0 -0.3125,-0.125 -0.3125,-0.453125 0,-0.25 0.03125,-0.3125 0.0625,-0.484375 z m 0,0"
           id="id-f95d97aa-5511-4632-8d67-88f3dfb91a7c" /></symbol></g><marker
       style="overflow:visible"
       id="Arrow2Mstart-1-3"
       refX="0"
       refY="0"
       orient="auto"
       inkscape:stockid="Arrow2Mstart"
       inkscape:isstock="true"
       viewBox="0 0 6.9304588 5.1962256"
       markerWidth="5"
       markerHeight="3.7488322"
       preserveAspectRatio="xMidYMid"><path
         transform="scale(0.6)"
         d="M 8.7185878,4.0337352 -2.2072895,0.01601326 8.7185884,-4.0017078 c -1.7454984,2.3720609 -1.7354408,5.6174519 -6e-7,8.035443 z"
         style="fill:context-stroke;fill-rule:evenodd;stroke:context-stroke;stroke-width:0.625;stroke-linejoin:round"
         id="path752666-1-6" /></marker><marker
       style="overflow:visible"
       id="Arrow2Mstart-1-3-6"
       refX="0"
       refY="0"
       orient="auto"
       inkscape:stockid="Arrow2Mstart"
       inkscape:isstock="true"
       viewBox="0 0 6.9304588 5.1962256"
       markerWidth="6.9304585"
       markerHeight="5.1962256"
       preserveAspectRatio="xMidYMid"><path
         transform="scale(0.6)"
         d="M 8.7185878,4.0337352 -2.2072895,0.01601326 8.7185884,-4.0017078 c -1.7454984,2.3720609 -1.7354408,5.6174519 -6e-7,8.035443 z"
         style="fill:context-stroke;fill-rule:evenodd;stroke:context-stroke;stroke-width:0.625;stroke-linejoin:round"
         id="path752666-1-6-2" /></marker><marker
       style="overflow:visible"
       id="Arrow2Mstart-1-6-2"
       refX="0.11630426"
       refY="-0.035198048"
       orient="111.1831131"
       inkscape:stockid="Arrow2Mstart"
       inkscape:isstock="true"
       viewBox="0 0 6.9304588 5.1962256"
       markerWidth="6"
       markerHeight="4.4985991"
       preserveAspectRatio="xMidYMid"><path
         transform="scale(0.6)"
         d="M 8.7185878,4.0337352 -2.2072895,0.01601326 8.7185884,-4.0017078 c -1.7454984,2.3720609 -1.7354408,5.6174519 -6e-7,8.035443 z"
         style="fill:context-stroke;fill-rule:evenodd;stroke:context-stroke;stroke-width:0.625;stroke-linejoin:round"
         id="path752666-1-2-7" /></marker><marker
       style="overflow:visible"
       id="Arrow2Mstart-1-36"
       refX="0"
       refY="0"
       orient="80"
       inkscape:stockid="Arrow2Mstart"
       inkscape:isstock="true"
       viewBox="0 0 6.9304588 5.1962256"
       markerWidth="6"
       markerHeight="4.4985986"
       preserveAspectRatio="xMidYMid"><path
         transform="scale(0.6)"
         d="M 8.7185878,4.0337352 -2.2072895,0.01601326 8.7185884,-4.0017078 c -1.7454984,2.3720609 -1.7354408,5.6174519 -6e-7,8.035443 z"
         style="fill:context-stroke;fill-rule:evenodd;stroke:context-stroke;stroke-width:0.625;stroke-linejoin:round"
         id="path752666-1-7" /></marker><marker
       style="overflow:visible"
       id="Arrow2Mstart-1-3-5"
       refX="0"
       refY="0"
       orient="auto"
       inkscape:stockid="Arrow2Mstart"
       inkscape:isstock="true"
       viewBox="0 0 6.9304588 5.1962256"
       markerWidth="5"
       markerHeight="3.7488322"
       preserveAspectRatio="xMidYMid"><path
         transform="scale(0.6)"
         d="M 8.7185878,4.0337352 -2.2072895,0.01601326 8.7185884,-4.0017078 c -1.7454984,2.3720609 -1.7354408,5.6174519 -6e-7,8.035443 z"
         style="fill:context-stroke;fill-rule:evenodd;stroke:context-stroke;stroke-width:0.625;stroke-linejoin:round"
         id="path752666-1-6-3" /></marker><marker
       style="overflow:visible"
       id="marker3505"
       refX="0"
       refY="0"
       orient="auto"
       inkscape:stockid="Arrow2Mstart"
       inkscape:isstock="true"
       viewBox="0 0 6.9304588 5.1962256"
       markerWidth="5"
       markerHeight="3.7488322"
       preserveAspectRatio="xMidYMid"><path
         transform="scale(0.6)"
         d="M 8.7185878,4.0337352 -2.2072895,0.01601326 8.7185884,-4.0017078 c -1.7454984,2.3720609 -1.7354408,5.6174519 -6e-7,8.035443 z"
         style="fill:context-stroke;fill-rule:evenodd;stroke:context-stroke;stroke-width:0.625;stroke-linejoin:round"
         id="path3503" /></marker><marker
       style="overflow:visible"
       id="marker3509"
       refX="0"
       refY="0"
       orient="80"
       inkscape:stockid="Arrow2Mstart"
       inkscape:isstock="true"
       viewBox="0 0 6.9304588 5.1962256"
       markerWidth="6"
       markerHeight="4.4985986"
       preserveAspectRatio="xMidYMid"><path
         transform="scale(0.6)"
         d="M 8.7185878,4.0337352 -2.2072895,0.01601326 8.7185884,-4.0017078 c -1.7454984,2.3720609 -1.7354408,5.6174519 -6e-7,8.035443 z"
         style="fill:context-stroke;fill-rule:evenodd;stroke:context-stroke;stroke-width:0.625;stroke-linejoin:round"
         id="path3507" /></marker><marker
       style="overflow:visible"
       id="marker3513"
       refX="0"
       refY="0"
       orient="auto"
       inkscape:stockid="Arrow2Mstart"
       inkscape:isstock="true"
       viewBox="0 0 6.9304588 5.1962256"
       markerWidth="5"
       markerHeight="3.7488322"
       preserveAspectRatio="xMidYMid"><path
         transform="scale(0.6)"
         d="M 8.7185878,4.0337352 -2.2072895,0.01601326 8.7185884,-4.0017078 c -1.7454984,2.3720609 -1.7354408,5.6174519 -6e-7,8.035443 z"
         style="fill:context-stroke;fill-rule:evenodd;stroke:context-stroke;stroke-width:0.625;stroke-linejoin:round"
         id="path3511" /></marker><marker
       style="overflow:visible"
       id="marker3517"
       refX="0"
       refY="0"
       orient="auto"
       inkscape:stockid="Arrow2Mstart"
       inkscape:isstock="true"
       viewBox="0 0 6.9304588 5.1962256"
       markerWidth="5"
       markerHeight="3.7488322"
       preserveAspectRatio="xMidYMid"><path
         transform="scale(0.6)"
         d="M 8.7185878,4.0337352 -2.2072895,0.01601326 8.7185884,-4.0017078 c -1.7454984,2.3720609 -1.7354408,5.6174519 -6e-7,8.035443 z"
         style="fill:context-stroke;fill-rule:evenodd;stroke:context-stroke;stroke-width:0.625;stroke-linejoin:round"
         id="path3515" /></marker></defs><g
     inkscape:label="Layer 1"
     id="layer1"
     transform="translate(-7.2636914,-87.941757)"
     inkscape:groupmode="layer"><g
       id="g3281"
       inkscape:label="grid"><path
         style="fill:none;stroke:#80c9ff;stroke-width:1;stroke-linecap:butt;stroke-linejoin:miter;stroke-dasharray:none;stroke-opacity:1"
         d="M 24.003634,167.10346 V 87.941757"
         id="path1928" /><path
         style="fill:none;stroke:#80c9ff;stroke-width:1;stroke-linecap:butt;stroke-linejoin:miter;stroke-dasharray:none;stroke-opacity:1"
         d="M 47.344544,167.10346 V 87.941757"
         id="path1930" /><path
         style="fill:none;stroke:#80c9ff;stroke-width:1;stroke-linecap:butt;stroke-linejoin:miter;stroke-dasharray:none;stroke-opacity:1"
         d="M 7.2636914,103.6817 H 86.425392"
         id="path1924" /><path
         style="fill:none;stroke:#80c9ff;stroke-width:1;stroke-linecap:butt;stroke-linejoin:miter;stroke-dasharray:none;stroke-opacity:1"
         d="M 7.2636914,127.02261 H 86.425392"
         id="path1926" /><path
         style="fill:none;stroke:#80c9ff;stroke-width:1;stroke-linecap:butt;stroke-linejoin:miter;stroke-dasharray:none;stroke-opacity:1"
         d="M 70.784517,167.10346 V 87.941757"
         id="path3023" /><path
         style="fill:none;stroke:#80c9ff;stroke-width:1;stroke-linecap:butt;stroke-linejoin:miter;stroke-dasharray:none;stroke-opacity:1"
         d="M 7.2636914,150.36351 H 86.425392"
         id="path3027" /><path
         style="fill:none;stroke:#80c9ff;stroke-width:1;stroke-linecap:butt;stroke-linejoin:miter;stroke-dasharray:none;stroke-opacity:1"
         d="M 36.254848,167.10346 V 87.941757"
         id="path9522" /><path
         style="fill:none;stroke:#80c9ff;stroke-width:1;stroke-linecap:butt;stroke-linejoin:miter;stroke-dasharray:none;stroke-opacity:1"
         d="M 59.595758,167.10346 V 87.941757"
         id="path9524" /><path
         style="fill:none;stroke:#80c9ff;stroke-width:1;stroke-linecap:butt;stroke-linejoin:miter;stroke-dasharray:none;stroke-opacity:1"
         d="M 7.2636914,114.78893 H 86.425392"
         id="path9526" /><path
         style="fill:none;stroke:#80c9ff;stroke-width:1;stroke-linecap:butt;stroke-linejoin:miter;stroke-dasharray:none;stroke-opacity:1"
         d="M 7.2636914,138.12983 H 86.425392"
         id="path9528" /><path
         style="fill:none;stroke:#80c9ff;stroke-width:1;stroke-linecap:butt;stroke-linejoin:miter;stroke-dasharray:none;stroke-opacity:1"
         d="M 11.722758,167.30129 V 88.139588"
         id="path9532" /><path
         style="fill:none;stroke:#80c9ff;stroke-width:1;stroke-linecap:butt;stroke-linejoin:miter;stroke-dasharray:none;stroke-opacity:1"
         d="M 81.973276,167.10346 V 87.941757"
         id="path9536" /><path
         style="fill:none;stroke:#80c9ff;stroke-width:1;stroke-linecap:butt;stroke-linejoin:miter;stroke-dasharray:none;stroke-opacity:1"
         d="M 7.2636914,92.574479 H 86.425392"
         id="path9677" /><path
         style="fill:none;stroke:#80c9ff;stroke-width:1;stroke-linecap:butt;stroke-linejoin:miter;stroke-dasharray:none;stroke-opacity:1"
         d="M 7.2636914,162.59719 H 86.425392"
         id="path9685" /></g><g
       id="g3273"
       inkscape:label="letters" /><g
       id="g3986"
       inkscape:label="graph"
       transform="translate(-0.3382457,2.1893466)"><g
         id="g3526"
         inkscape:label="vertices"
         transform="translate(0.20377801,187.14211)"><circle
           style="fill:#ff7d7d;stroke:none;stroke-width:1;stroke-linecap:round;stroke-linejoin:bevel;stroke-dasharray:none;stroke-opacity:1;fill-opacity:0.15000001"
           id="circle10140"
           cx="47.50552"
           cy="32.364891"
           r="26.197744" /><circle
           style="fill:none;stroke:#80c9ff;stroke-width:1;stroke-linecap:round;stroke-linejoin:bevel;stroke-dasharray:none;stroke-opacity:1"
           id="circle3501"
           cx="47.50552"
           cy="32.364887"
           r="3.603353" /><circle
           style="fill:none;stroke:#80c9ff;stroke-width:1;stroke-linecap:round;stroke-linejoin:bevel;stroke-dasharray:none;stroke-opacity:1"
           id="circle9830"
           cx="36.389317"
           cy="32.364887"
           r="3.603353" /><circle
           style="fill:none;stroke:#80c9ff;stroke-width:1;stroke-linecap:round;stroke-linejoin:bevel;stroke-dasharray:none;stroke-opacity:1"
           id="circle9832"
           cx="24.138102"
           cy="32.364887"
           r="3.603353" /><circle
           style="fill:none;stroke:#80c9ff;stroke-width:1;stroke-linecap:round;stroke-linejoin:bevel;stroke-dasharray:none;stroke-opacity:1"
           id="circle9834"
           cx="11.886887"
           cy="32.364887"
           r="3.603353" /><circle
           style="fill:none;stroke:#80c9ff;stroke-width:1;stroke-linecap:round;stroke-linejoin:bevel;stroke-dasharray:none;stroke-opacity:1"
           id="circle9836"
           cx="59.730225"
           cy="32.364887"
           r="3.603353" /><circle
           style="fill:none;stroke:#80c9ff;stroke-width:1;stroke-linecap:round;stroke-linejoin:bevel;stroke-dasharray:none;stroke-opacity:1"
           id="circle9838"
           cx="70.87294"
           cy="32.364887"
           r="3.603353" /><circle
           style="fill:none;stroke:#80c9ff;stroke-width:1;stroke-linecap:round;stroke-linejoin:bevel;stroke-dasharray:none;stroke-opacity:1"
           id="circle9840"
           cx="82.015656"
           cy="32.364887"
           r="3.603353" /><circle
           style="fill:none;stroke:#80c9ff;stroke-width:1;stroke-linecap:round;stroke-linejoin:bevel;stroke-dasharray:none;stroke-opacity:1"
           id="circle9844"
           cx="47.50552"
           cy="20.131207"
           r="3.603353" /><circle
           style="fill:none;stroke:#80c9ff;stroke-width:1;stroke-linecap:round;stroke-linejoin:bevel;stroke-dasharray:none;stroke-opacity:1"
           id="circle9846"
           cx="36.389317"
           cy="20.131207"
           r="3.603353" /><circle
           style="fill:none;stroke:#80c9ff;stroke-width:1;stroke-linecap:round;stroke-linejoin:bevel;stroke-dasharray:none;stroke-opacity:1"
           id="circle9848"
           cx="24.138102"
           cy="20.131207"
           r="3.603353" /><circle
           style="fill:none;stroke:#80c9ff;stroke-width:1;stroke-linecap:round;stroke-linejoin:bevel;stroke-dasharray:none;stroke-opacity:1"
           id="circle9850"
           cx="11.886887"
           cy="20.131207"
           r="3.603353" /><circle
           style="fill:none;stroke:#80c9ff;stroke-width:1;stroke-linecap:round;stroke-linejoin:bevel;stroke-dasharray:none;stroke-opacity:1"
           id="circle9852"
           cx="59.730225"
           cy="20.131207"
           r="3.603353" /><circle
           style="fill:none;stroke:#80c9ff;stroke-width:1;stroke-linecap:round;stroke-linejoin:bevel;stroke-dasharray:none;stroke-opacity:1"
           id="circle9854"
           cx="70.87294"
           cy="20.131207"
           r="3.603353" /><circle
           style="fill:none;stroke:#80c9ff;stroke-width:1;stroke-linecap:round;stroke-linejoin:bevel;stroke-dasharray:none;stroke-opacity:1"
           id="circle9856"
           cx="82.015656"
           cy="20.131207"
           r="3.603353" /><circle
           style="fill:none;stroke:#80c9ff;stroke-width:1;stroke-linecap:round;stroke-linejoin:bevel;stroke-dasharray:none;stroke-opacity:1"
           id="circle9858"
           cx="47.50552"
           cy="9.0239763"
           r="3.603353" /><circle
           style="fill:none;stroke:#80c9ff;stroke-width:1;stroke-linecap:round;stroke-linejoin:bevel;stroke-dasharray:none;stroke-opacity:1"
           id="circle9860"
           cx="36.389317"
           cy="9.0239763"
           r="3.603353" /><circle
           style="fill:none;stroke:#80c9ff;stroke-width:1;stroke-linecap:round;stroke-linejoin:bevel;stroke-dasharray:none;stroke-opacity:1"
           id="circle9862"
           cx="24.138102"
           cy="9.0239763"
           r="3.603353" /><circle
           style="fill:none;stroke:#80c9ff;stroke-width:1;stroke-linecap:round;stroke-linejoin:bevel;stroke-dasharray:none;stroke-opacity:1"
           id="circle9864"
           cx="11.886887"
           cy="9.0239763"
           r="3.603353" /><circle
           style="fill:none;stroke:#80c9ff;stroke-width:1;stroke-linecap:round;stroke-linejoin:bevel;stroke-dasharray:none;stroke-opacity:1"
           id="circle9866"
           cx="59.730225"
           cy="9.0239763"
           r="3.603353" /><circle
           style="fill:none;stroke:#80c9ff;stroke-width:1;stroke-linecap:round;stroke-linejoin:bevel;stroke-dasharray:none;stroke-opacity:1"
           id="circle9868"
           cx="70.87294"
           cy="9.0239763"
           r="3.603353" /><circle
           style="fill:none;stroke:#80c9ff;stroke-width:1;stroke-linecap:round;stroke-linejoin:bevel;stroke-dasharray:none;stroke-opacity:1"
           id="circle9870"
           cx="82.015656"
           cy="9.0239763"
           r="3.603353" /><circle
           style="fill:none;stroke:#80c9ff;stroke-width:1;stroke-linecap:round;stroke-linejoin:bevel;stroke-dasharray:none;stroke-opacity:1"
           id="circle9872"
           cx="47.50552"
           cy="-2.0832539"
           r="3.603353" /><circle
           style="fill:none;stroke:#80c9ff;stroke-width:1;stroke-linecap:round;stroke-linejoin:bevel;stroke-dasharray:none;stroke-opacity:1"
           id="circle9874"
           cx="36.389317"
           cy="-2.0832539"
           r="3.603353" /><circle
           style="fill:none;stroke:#80c9ff;stroke-width:1;stroke-linecap:round;stroke-linejoin:bevel;stroke-dasharray:none;stroke-opacity:1"
           id="circle9876"
           cx="24.138102"
           cy="-2.0832539"
           r="3.603353" /><circle
           style="fill:none;stroke:#80c9ff;stroke-width:1;stroke-linecap:round;stroke-linejoin:bevel;stroke-dasharray:none;stroke-opacity:1"
           id="circle9878"
           cx="11.886887"
           cy="-2.0832539"
           r="3.603353" /><circle
           style="fill:none;stroke:#80c9ff;stroke-width:1;stroke-linecap:round;stroke-linejoin:bevel;stroke-dasharray:none;stroke-opacity:1"
           id="circle9880"
           cx="59.730225"
           cy="-2.0832539"
           r="3.603353" /><circle
           style="fill:none;stroke:#80c9ff;stroke-width:1;stroke-linecap:round;stroke-linejoin:bevel;stroke-dasharray:none;stroke-opacity:1"
           id="circle9882"
           cx="70.87294"
           cy="-2.0832539"
           r="3.603353" /><circle
           style="fill:none;stroke:#80c9ff;stroke-width:1;stroke-linecap:round;stroke-linejoin:bevel;stroke-dasharray:none;stroke-opacity:1"
           id="circle9884"
           cx="82.015656"
           cy="-2.0832539"
           r="3.603353" /><circle
           style="fill:none;stroke:#80c9ff;stroke-width:1;stroke-linecap:round;stroke-linejoin:bevel;stroke-dasharray:none;stroke-opacity:1"
           id="circle9886"
           cx="47.50552"
           cy="43.472107"
           r="3.603353" /><circle
           style="fill:none;stroke:#80c9ff;stroke-width:1;stroke-linecap:round;stroke-linejoin:bevel;stroke-dasharray:none;stroke-opacity:1"
           id="circle9888"
           cx="36.389317"
           cy="43.472107"
           r="3.603353" /><circle
           style="fill:none;stroke:#80c9ff;stroke-width:1;stroke-linecap:round;stroke-linejoin:bevel;stroke-dasharray:none;stroke-opacity:1"
           id="circle9890"
           cx="24.138102"
           cy="43.472107"
           r="3.603353" /><circle
           style="fill:none;stroke:#80c9ff;stroke-width:1;stroke-linecap:round;stroke-linejoin:bevel;stroke-dasharray:none;stroke-opacity:1"
           id="circle9892"
           cx="11.886887"
           cy="43.472107"
           r="3.603353" /><circle
           style="fill:none;stroke:#80c9ff;stroke-width:1;stroke-linecap:round;stroke-linejoin:bevel;stroke-dasharray:none;stroke-opacity:1"
           id="circle9894"
           cx="59.730225"
           cy="43.472107"
           r="3.603353" /><circle
           style="fill:none;stroke:#80c9ff;stroke-width:1;stroke-linecap:round;stroke-linejoin:bevel;stroke-dasharray:none;stroke-opacity:1"
           id="circle9896"
           cx="70.87294"
           cy="43.472107"
           r="3.603353" /><circle
           style="fill:none;stroke:#80c9ff;stroke-width:1;stroke-linecap:round;stroke-linejoin:bevel;stroke-dasharray:none;stroke-opacity:1"
           id="circle9898"
           cx="82.015656"
           cy="43.472107"
           r="3.603353" /><circle
           style="fill:none;stroke:#80c9ff;stroke-width:1;stroke-linecap:round;stroke-linejoin:bevel;stroke-dasharray:none;stroke-opacity:1"
           id="circle9900"
           cx="47.50552"
           cy="55.705788"
           r="3.603353" /><circle
           style="fill:none;stroke:#80c9ff;stroke-width:1;stroke-linecap:round;stroke-linejoin:bevel;stroke-dasharray:none;stroke-opacity:1"
           id="circle9902"
           cx="36.389317"
           cy="55.705788"
           r="3.603353" /><circle
           style="fill:none;stroke:#80c9ff;stroke-width:1;stroke-linecap:round;stroke-linejoin:bevel;stroke-dasharray:none;stroke-opacity:1"
           id="circle9904"
           cx="24.138102"
           cy="55.705788"
           r="3.603353" /><circle
           style="fill:none;stroke:#80c9ff;stroke-width:1;stroke-linecap:round;stroke-linejoin:bevel;stroke-dasharray:none;stroke-opacity:1"
           id="circle9906"
           cx="11.886887"
           cy="55.705788"
           r="3.603353" /><circle
           style="fill:none;stroke:#80c9ff;stroke-width:1;stroke-linecap:round;stroke-linejoin:bevel;stroke-dasharray:none;stroke-opacity:1"
           id="circle9908"
           cx="59.730225"
           cy="55.705788"
           r="3.603353" /><circle
           style="fill:none;stroke:#80c9ff;stroke-width:1;stroke-linecap:round;stroke-linejoin:bevel;stroke-dasharray:none;stroke-opacity:1"
           id="circle9910"
           cx="70.87294"
           cy="55.705788"
           r="3.603353" /><circle
           style="fill:none;stroke:#80c9ff;stroke-width:1;stroke-linecap:round;stroke-linejoin:bevel;stroke-dasharray:none;stroke-opacity:1"
           id="circle9912"
           cx="82.015656"
           cy="55.705788"
           r="3.603353" /><circle
           style="fill:none;stroke:#80c9ff;stroke-width:1;stroke-linecap:round;stroke-linejoin:bevel;stroke-dasharray:none;stroke-opacity:1"
           id="circle9914"
           cx="47.50552"
           cy="67.939468"
           r="3.603353" /><circle
           style="fill:none;stroke:#80c9ff;stroke-width:1;stroke-linecap:round;stroke-linejoin:bevel;stroke-dasharray:none;stroke-opacity:1"
           id="circle9916"
           cx="36.389317"
           cy="67.939468"
           r="3.603353" /><circle
           style="fill:none;stroke:#80c9ff;stroke-width:1;stroke-linecap:round;stroke-linejoin:bevel;stroke-dasharray:none;stroke-opacity:1"
           id="circle9918"
           cx="24.138102"
           cy="67.939468"
           r="3.603353" /><circle
           style="fill:none;stroke:#80c9ff;stroke-width:1;stroke-linecap:round;stroke-linejoin:bevel;stroke-dasharray:none;stroke-opacity:1"
           id="circle9920"
           cx="11.886887"
           cy="67.939468"
           r="3.603353" /><circle
           style="fill:none;stroke:#80c9ff;stroke-width:1;stroke-linecap:round;stroke-linejoin:bevel;stroke-dasharray:none;stroke-opacity:1"
           id="circle9922"
           cx="59.730225"
           cy="67.939468"
           r="3.603353" /><circle
           style="fill:none;stroke:#80c9ff;stroke-width:1;stroke-linecap:round;stroke-linejoin:bevel;stroke-dasharray:none;stroke-opacity:1"
           id="circle9924"
           cx="70.87294"
           cy="67.939468"
           r="3.603353" /><circle
           style="fill:none;stroke:#80c9ff;stroke-width:1;stroke-linecap:round;stroke-linejoin:bevel;stroke-dasharray:none;stroke-opacity:1"
           id="circle9926"
           cx="82.015656"
           cy="67.939468"
           r="3.603353" /></g><g
         id="g3821"
         inkscape:label="edges"
         transform="translate(0.14449328,-2.2827531)"
         style="stroke-width:0.5;stroke-dasharray:none"><path
           style="fill:none;stroke:#ff7d7d;stroke-width:0.5;stroke-linecap:round;stroke-linejoin:bevel;stroke-dasharray:none;stroke-opacity:1;marker-start:url(#marker3513)"
           d="m 55.501908,230.24464 -4.772086,-4.72221"
           id="path8113"
           sodipodi:nodetypes="cc" /><path
           style="fill:none;stroke:#ff7d7d;stroke-width:0.5;stroke-linecap:round;stroke-linejoin:bevel;stroke-dasharray:none;stroke-opacity:1;marker-start:url(#marker3513)"
           d="m 39.319585,213.54773 4.763798,5.00973"
           id="path3671"
           sodipodi:nodetypes="cc" /><path
           style="fill:none;stroke:#ff7d7d;stroke-width:0.5;stroke-linecap:round;stroke-linejoin:bevel;stroke-dasharray:none;stroke-opacity:1;marker-start:url(#marker3513)"
           d="m 56.462213,213.07923 -5.461304,5.4524"
           id="path7646"
           sodipodi:nodetypes="cc" /><path
           style="fill:none;stroke:#ff7d7d;stroke-width:0.5;stroke-linecap:round;stroke-linejoin:bevel;stroke-dasharray:none;stroke-opacity:1;marker-start:url(#marker3513)"
           d="m 39.863463,229.58405 4.497663,-4.38261"
           id="path3673"
           sodipodi:nodetypes="cc" /><path
           style="fill:none;stroke:#ff7d7d;stroke-width:0.5;stroke-linecap:round;stroke-linejoin:bevel;stroke-dasharray:none;stroke-opacity:1;marker-start:url(#marker3513)"
           d="m 47.412547,228.09558 0.05268,-1.70655"
           id="path7642"
           sodipodi:nodetypes="cc" /><path
           style="fill:none;stroke:#ff7d7d;stroke-width:0.5;stroke-linecap:round;stroke-linejoin:bevel;stroke-dasharray:none;stroke-opacity:1;marker-start:url(#marker3513)"
           d="m 47.521152,214.20007 v 2.86947"
           id="path3675"
           sodipodi:nodetypes="cc" /><path
           style="fill:none;stroke:#ff7d7d;stroke-width:0.5;stroke-linecap:round;stroke-linejoin:bevel;stroke-dasharray:none;stroke-opacity:1;marker-start:url(#marker3513)"
           d="m 55.04932,222.07353 -2.726876,0.0199"
           id="path7650"
           sodipodi:nodetypes="cc" /><path
           style="fill:none;stroke:#ff7d7d;stroke-width:0.5;stroke-linecap:round;stroke-linejoin:bevel;stroke-dasharray:none;stroke-opacity:1;marker-start:url(#marker3513)"
           d="m 40.989069,221.9377 1.98692,0"
           id="path3677"
           sodipodi:nodetypes="cc" /><path
           style="fill:none;stroke:#ff7d7d;stroke-width:0.5;stroke-linecap:round;stroke-linejoin:bevel;stroke-dasharray:none;stroke-opacity:1;marker-start:url(#marker3513)"
           d="m 28.852318,211.55746 14.09523,8.01912"
           id="path10136"
           sodipodi:nodetypes="cc" /><path
           style="fill:none;stroke:#ff7d7d;stroke-width:0.5;stroke-linecap:round;stroke-linejoin:bevel;stroke-dasharray:none;stroke-opacity:1;marker-start:url(#marker3513)"
           d="m 29.114169,221.9377 13.86182,0"
           id="path10148"
           sodipodi:nodetypes="cc" /><path
           style="fill:none;stroke:#ff7d7d;stroke-width:0.5;stroke-linecap:round;stroke-linejoin:bevel;stroke-dasharray:none;stroke-opacity:1;marker-start:url(#marker3513)"
           d="m 28.852318,231.76984 14.09523,-8.01912"
           id="path10156"
           sodipodi:nodetypes="cc" /><path
           style="fill:none;stroke:#ff7d7d;stroke-width:0.5;stroke-linecap:round;stroke-linejoin:bevel;stroke-dasharray:none;stroke-opacity:1;marker-start:url(#marker3513)"
           d="m 65.91555,222.07353 -13.593106,0.0199"
           id="path10164"
           sodipodi:nodetypes="cc" /><path
           style="fill:none;stroke:#ff7d7d;stroke-width:0.5;stroke-linecap:round;stroke-linejoin:bevel;stroke-dasharray:none;stroke-opacity:1;marker-start:url(#marker3513)"
           d="m 66.856926,212.42272 -15.054781,7.54916"
           id="path10172"
           sodipodi:nodetypes="cc" /><path
           style="fill:none;stroke:#ff7d7d;stroke-width:0.5;stroke-linecap:round;stroke-linejoin:bevel;stroke-dasharray:none;stroke-opacity:1;marker-start:url(#marker3513)"
           d="m 65.968344,231.10476 -14.188581,-7.1032"
           id="path10176"
           sodipodi:nodetypes="cc" /><path
           style="fill:none;stroke:#ff7d7d;stroke-width:0.5;stroke-linecap:round;stroke-linejoin:bevel;stroke-dasharray:none;stroke-opacity:1;marker-start:url(#marker3513)"
           d="m 39.067149,202.77379 6.324201,14.6731"
           id="path10337"
           sodipodi:nodetypes="cc" /><path
           style="fill:none;stroke:#ff7d7d;stroke-width:0.5;stroke-linecap:round;stroke-linejoin:bevel;stroke-dasharray:none;stroke-opacity:1;marker-start:url(#marker3513)"
           d="m 56.533778,202.77379 -6.324201,14.6731"
           id="path10341"
           sodipodi:nodetypes="cc" /><path
           style="fill:none;stroke:#ff7d7d;stroke-width:0.5;stroke-linecap:round;stroke-linejoin:bevel;stroke-dasharray:none;stroke-opacity:1;marker-start:url(#marker3513)"
           d="m 47.521152,203.18031 0,13.88923"
           id="path10347"
           sodipodi:nodetypes="cc" /><path
           style="fill:none;stroke:#ff7d7d;stroke-width:0.5;stroke-linecap:round;stroke-linejoin:bevel;stroke-dasharray:none;stroke-opacity:1;marker-start:url(#marker3513)"
           d="m 47.412547,240.19831 0.05268,-13.80928"
           id="path10353"
           sodipodi:nodetypes="cc" /><path
           style="fill:none;stroke:#ff7d7d;stroke-width:0.5;stroke-linecap:round;stroke-linejoin:bevel;stroke-dasharray:none;stroke-opacity:1;marker-start:url(#marker3513)"
           d="m 39.006396,240.5985 6.320863,-14.51158"
           id="path10361"
           sodipodi:nodetypes="cc" /><path
           style="fill:none;stroke:#ff7d7d;stroke-width:0.5;stroke-linecap:round;stroke-linejoin:bevel;stroke-dasharray:none;stroke-opacity:1;marker-start:url(#marker3513)"
           d="M 56.827695,240.5985 49.953891,226.08692"
           id="path10365"
           sodipodi:nodetypes="cc" /></g></g><path
       style="fill:none;stroke:#ff7d7d;stroke-width:3;stroke-linecap:round;stroke-linejoin:bevel;stroke-dasharray:none;stroke-opacity:1;marker-start:url(#Arrow2Mstart-1-3)"
       d="m 47.248024,183.91508 v -16.5397"
       id="path6030"
       sodipodi:nodetypes="cc" /></g></svg>
