<?xml version="1.0" encoding="UTF-8" standalone="no"?>
<!-- Created with Inkscape (http://www.inkscape.org/) -->

<svg
   width="109.52965mm"
   height="172.01218mm"
   viewBox="0 0 109.52966 172.01217"
   version="1.1"
   id="svg5"
   inkscape:version="1.2.1 (9c6d41e410, 2022-07-14)"
   sodipodi:docname="lagrangian_specification.svg"
   xml:space="preserve"
   xmlns:inkscape="http://www.inkscape.org/namespaces/inkscape"
   xmlns:sodipodi="http://sodipodi.sourceforge.net/DTD/sodipodi-0.dtd"
   xmlns="http://www.w3.org/2000/svg"
   xmlns:svg="http://www.w3.org/2000/svg"><sodipodi:namedview
     id="namedview7"
     pagecolor="#e5e5e5"
     bordercolor="#666666"
     borderopacity="1.0"
     inkscape:pageshadow="2"
     inkscape:pageopacity="0"
     inkscape:pagecheckerboard="false"
     inkscape:document-units="mm"
     showgrid="false"
     inkscape:zoom="0.5379522"
     inkscape:cx="-69.708795"
     inkscape:cy="455.4308"
     inkscape:window-width="1916"
     inkscape:window-height="1037"
     inkscape:window-x="0"
     inkscape:window-y="20"
     inkscape:window-maximized="1"
     inkscape:current-layer="layer1"
     inkscape:showpageshadow="2"
     inkscape:deskcolor="#e5e5e5" /><defs
     id="defs2"><marker
       style="overflow:visible"
       id="Arrow2Mstart-1"
       refX="0"
       refY="0"
       orient="80"
       inkscape:stockid="Arrow2Mstart"
       inkscape:isstock="true"
       viewBox="0 0 6.9304588 5.1962256"
       markerWidth="6"
       markerHeight="4.4985986"
       preserveAspectRatio="xMidYMid"><path
         transform="scale(0.6)"
         d="M 8.7185878,4.0337352 -2.2072895,0.01601326 8.7185884,-4.0017078 c -1.7454984,2.3720609 -1.7354408,5.6174519 -6e-7,8.035443 z"
         style="fill:context-stroke;fill-rule:evenodd;stroke:context-stroke;stroke-width:0.625;stroke-linejoin:round"
         id="path752666-1" /></marker><marker
       style="overflow:visible"
       id="Arrow2Mstart-1-6"
       refX="0"
       refY="0"
       orient="100"
       inkscape:stockid="Arrow2Mstart"
       inkscape:isstock="true"
       viewBox="0 0 6.9304588 5.1962256"
       markerWidth="6"
       markerHeight="4.4985991"
       preserveAspectRatio="xMidYMid"><path
         transform="scale(0.6)"
         d="M 8.7185878,4.0337352 -2.2072895,0.01601326 8.7185884,-4.0017078 c -1.7454984,2.3720609 -1.7354408,5.6174519 -6e-7,8.035443 z"
         style="fill:context-stroke;fill-rule:evenodd;stroke:context-stroke;stroke-width:0.625;stroke-linejoin:round"
         id="path752666-1-2" /></marker><g
       id="id-1382ddda-13d8-44c1-887b-2c417df8020d"
       style="fill:#ff7d7d;fill-opacity:1;stroke-width:0"><symbol
         overflow="visible"
         id="id-2987ecb6-e645-40dc-a4ab-cdce30e95433"
         style="fill:#ff7d7d;fill-opacity:1;stroke-width:0"><path
           style="fill:#ff7d7d;fill-opacity:1;stroke:#ff7d7d;stroke-width:0"
           d=""
           id="id-3b98700b-0855-4a10-80b3-a692d3e7d50b" /></symbol><symbol
         overflow="visible"
         id="id-58cb04d7-1877-44b5-aec1-81ac0bbb04ce"
         style="fill:#ff7d7d;fill-opacity:1;stroke-width:0"><path
           style="fill:#ff7d7d;fill-opacity:1;stroke:#ff7d7d;stroke-width:0"
           d="M 2.5,-6.921875 1.15625,-5.5625 1.328125,-5.390625 2.5,-6.40625 3.640625,-5.390625 3.8125,-5.5625 Z m 0,0"
           id="id-45a14c04-6293-4c36-8b8b-f648b538435f" /></symbol><symbol
         overflow="visible"
         id="id-ed676b78-a4b2-44bf-85bb-687430ab3d99"
         style="fill:#ff7d7d;fill-opacity:1;stroke-width:0"><path
           style="fill:#ff7d7d;fill-opacity:1;stroke:#ff7d7d;stroke-width:0"
           d=""
           id="id-98899169-4099-434d-b7cf-ec48906251fa" /></symbol><symbol
         overflow="visible"
         id="id-82ddcd87-eb09-4052-a770-267e129ec831"
         style="fill:#ff7d7d;fill-opacity:1;stroke-width:0"><path
           style="fill:#ff7d7d;fill-opacity:1;stroke:#ff7d7d;stroke-width:0"
           d="m 5.359375,-5.9375 c -0.140625,0.140625 -0.46875,0.421875 -0.46875,0.59375 0,0.09375 0.09375,0.203125 0.1875,0.203125 0.09375,0 0.140625,-0.078125 0.203125,-0.140625 C 5.390625,-5.421875 5.625,-5.703125 6.0625,-5.921875 6.125,-5.96875 6.234375,-6.015625 6.234375,-6.125 6.234375,-6.234375 6.15625,-6.28125 6.09375,-6.328125 5.875,-6.484375 5.765625,-6.65625 5.6875,-6.890625 5.65625,-6.984375 5.625,-7.125 5.484375,-7.125 c -0.140625,0 -0.203125,0.140625 -0.203125,0.21875 0,0.046875 0.078125,0.359375 0.234375,0.578125 H 2.15625 c -0.15625,0 -0.34375,0 -0.34375,0.203125 0,0.1875 0.1875,0.1875 0.34375,0.1875 z m 0,0"
           id="id-fb2ec67b-5599-4f38-8ad5-637b70218c92" /></symbol><symbol
         overflow="visible"
         id="id-f927e3e3-e837-4cc7-85da-5a0c1301db5a"
         style="fill:#ff7d7d;fill-opacity:1;stroke-width:0"><path
           style="fill:#ff7d7d;fill-opacity:1;stroke:#ff7d7d;stroke-width:0"
           d="m 1.328125,-0.828125 c 0.53125,-0.578125 0.828125,-0.828125 1.1875,-1.140625 0,0 0.609375,-0.53125 0.96875,-0.890625 C 4.4375,-3.78125 4.65625,-4.265625 4.65625,-4.3125 c 0,-0.09375 -0.09375,-0.09375 -0.109375,-0.09375 -0.078125,0 -0.09375,0.015625 -0.15625,0.109375 -0.296875,0.484375 -0.5,0.640625 -0.734375,0.640625 -0.25,0 -0.359375,-0.15625 -0.515625,-0.328125 -0.1875,-0.21875 -0.359375,-0.421875 -0.6875,-0.421875 -0.75,0 -1.203125,0.921875 -1.203125,1.140625 0,0.046875 0.03125,0.109375 0.109375,0.109375 0.09375,0 0.109375,-0.046875 0.140625,-0.109375 0.1875,-0.46875 0.765625,-0.46875 0.84375,-0.46875 0.203125,0 0.390625,0.0625 0.625,0.140625 0.40625,0.15625 0.515625,0.15625 0.765625,0.15625 -0.359375,0.421875 -1.1875,1.140625 -1.375,1.296875 l -0.90625,0.84375 C 0.78125,-0.625 0.421875,-0.0625 0.421875,0.015625 c 0,0.09375 0.109375,0.09375 0.125,0.09375 0.078125,0 0.09375,-0.015625 0.15625,-0.125 0.234375,-0.359375 0.53125,-0.625 0.859375,-0.625 0.21875,0 0.328125,0.09375 0.578125,0.375 0.15625,0.21875 0.34375,0.375 0.625,0.375 1,0 1.578125,-1.265625 1.578125,-1.53125 0,-0.046875 -0.046875,-0.109375 -0.125,-0.109375 -0.09375,0 -0.109375,0.0625 -0.140625,0.140625 C 3.84375,-0.75 3.203125,-0.5625 2.875,-0.5625 c -0.1875,0 -0.375,-0.0625 -0.578125,-0.125 -0.34375,-0.125 -0.5,-0.171875 -0.703125,-0.171875 -0.015625,0 -0.171875,0 -0.265625,0.03125 z m 0,0"
           id="id-fdde69c8-6119-48b4-bde0-82b85acc73a8" /></symbol></g><g
       id="id-e69a1900-e63a-41df-b033-91322fbc874e"
       style="fill:#33aaff;fill-opacity:1;stroke-width:0"><symbol
         overflow="visible"
         id="id-3853542e-b35b-43ca-bdb3-a1686dd7421b"
         style="fill:#33aaff;fill-opacity:1;stroke-width:0"><path
           style="fill:#33aaff;fill-opacity:1;stroke:#33aaff;stroke-width:0"
           d=""
           id="id-0ca73283-5d78-4617-8437-d8f268c000db" /></symbol><symbol
         overflow="visible"
         id="id-f7fa66ab-907d-4510-963e-1eccb344ad6d"
         style="fill:#33aaff;fill-opacity:1;stroke-width:0"><path
           style="fill:#33aaff;fill-opacity:1;stroke:#33aaff;stroke-width:0"
           d="m 5.359375,-5.9375 c -0.140625,0.140625 -0.46875,0.421875 -0.46875,0.59375 0,0.09375 0.09375,0.203125 0.1875,0.203125 0.09375,0 0.140625,-0.078125 0.203125,-0.140625 C 5.390625,-5.421875 5.625,-5.703125 6.0625,-5.921875 6.125,-5.96875 6.234375,-6.015625 6.234375,-6.125 6.234375,-6.234375 6.15625,-6.28125 6.09375,-6.328125 5.875,-6.484375 5.765625,-6.65625 5.6875,-6.890625 5.65625,-6.984375 5.625,-7.125 5.484375,-7.125 c -0.140625,0 -0.203125,0.140625 -0.203125,0.21875 0,0.046875 0.078125,0.359375 0.234375,0.578125 H 2.15625 c -0.15625,0 -0.34375,0 -0.34375,0.203125 0,0.1875 0.1875,0.1875 0.34375,0.1875 z m 0,0"
           id="id-06f2faa5-9274-4229-a0d9-4fe96570d439" /></symbol><symbol
         overflow="visible"
         id="id-0fa9e3b9-5da2-4c5f-bcd0-c53f29e34b3b"
         style="fill:#33aaff;fill-opacity:1;stroke-width:0"><path
           style="fill:#33aaff;fill-opacity:1;stroke:#33aaff;stroke-width:0"
           d="M 3.484375,-0.5625 C 3.59375,-0.15625 3.953125,0.109375 4.375,0.109375 4.71875,0.109375 4.953125,-0.125 5.109375,-0.4375 5.28125,-0.796875 5.40625,-1.40625 5.40625,-1.421875 c 0,-0.109375 -0.078125,-0.109375 -0.109375,-0.109375 -0.109375,0 -0.109375,0.046875 -0.140625,0.1875 -0.140625,0.5625 -0.328125,1.234375 -0.75,1.234375 -0.203125,0 -0.3125,-0.125 -0.3125,-0.453125 0,-0.21875 0.125,-0.6875 0.203125,-1.046875 L 4.578125,-2.6875 C 4.609375,-2.828125 4.703125,-3.203125 4.75,-3.359375 4.796875,-3.59375 4.890625,-3.96875 4.890625,-4.03125 c 0,-0.171875 -0.140625,-0.265625 -0.28125,-0.265625 -0.046875,0 -0.3125,0.015625 -0.390625,0.34375 -0.1875,0.734375 -0.625,2.484375 -0.75,3 -0.015625,0.046875 -0.40625,0.84375 -1.140625,0.84375 -0.515625,0 -0.609375,-0.453125 -0.609375,-0.8125 0,-0.5625 0.28125,-1.34375 0.53125,-2.03125 0.125,-0.3125 0.171875,-0.453125 0.171875,-0.640625 0,-0.4375 -0.3125,-0.8125 -0.8125,-0.8125 -0.953125,0 -1.3125,1.453125 -1.3125,1.53125 0,0.109375 0.09375,0.109375 0.109375,0.109375 0.109375,0 0.109375,-0.03125 0.15625,-0.1875 0.25,-0.859375 0.640625,-1.234375 1.015625,-1.234375 0.09375,0 0.25,0.015625 0.25,0.328125 0,0.234375 -0.109375,0.53125 -0.171875,0.671875 -0.375,1 -0.578125,1.609375 -0.578125,2.09375 0,0.953125 0.6875,1.203125 1.21875,1.203125 0.65625,0 1.015625,-0.453125 1.1875,-0.671875 z m 0,0"
           id="id-2d6aa263-f6ce-4e30-a9d2-5ff97dc61bbc" /></symbol><symbol
         overflow="visible"
         id="id-44a5c21a-ce62-42d0-9540-96b39a3320e2"
         style="fill:#33aaff;fill-opacity:1;stroke-width:0"><path
           style="fill:#33aaff;fill-opacity:1;stroke:#33aaff;stroke-width:0"
           d=""
           id="id-63f427be-cc8c-4d12-8a0e-158477a1435a" /></symbol><symbol
         overflow="visible"
         id="id-e334649a-38ec-495a-bf55-fb465f849296"
         style="fill:#33aaff;fill-opacity:1;stroke-width:0"><path
           style="fill:#33aaff;fill-opacity:1;stroke:#33aaff;stroke-width:0"
           d="M 7.78125,-6.59375 C 7.796875,-6.625 7.828125,-6.6875 7.828125,-6.734375 7.828125,-6.796875 7.8125,-6.8125 7.59375,-6.8125 H 0.703125 c -0.21875,0 -0.234375,0.015625 -0.234375,0.078125 0,0.046875 0.03125,0.109375 0.046875,0.140625 L 3.875,0.140625 c 0.078125,0.125 0.109375,0.1875 0.265625,0.1875 0.171875,0 0.203125,-0.0625 0.28125,-0.1875 z m -6.078125,0.5 h 5.46875 l -2.71875,5.484375 z m 0,0"
           id="id-3f56303d-763f-47a7-a93b-1283c32f79f4" /></symbol></g><g
       id="id-237fd5ef-e2bb-494e-b344-1df375c10e6c"
       style="fill:#000000;fill-opacity:1;stroke-width:0"><symbol
         overflow="visible"
         id="id-0e896e62-ed34-4828-92cc-9fb4160c48cb"
         style="fill:#000000;fill-opacity:1;stroke-width:0"><path
           style="fill:#000000;fill-opacity:1;stroke:#000000;stroke-width:0"
           d=""
           id="id-e2970e73-e2eb-49a9-abed-f5997652b8d7" /></symbol><symbol
         overflow="visible"
         id="id-8cc1181c-a033-4743-825b-aae8fc6245ef"
         style="fill:#000000;fill-opacity:1;stroke-width:0"><path
           style="fill:#000000;fill-opacity:1;stroke:#000000;stroke-width:0"
           d="M 2.5,-6.921875 1.15625,-5.5625 1.328125,-5.390625 2.5,-6.40625 3.640625,-5.390625 3.8125,-5.5625 Z m 0,0"
           id="id-791d7265-a98e-4a6d-b4cf-cd40eec891b6" /></symbol><symbol
         overflow="visible"
         id="id-5684f43f-0247-48f9-939f-1f6cde6e6419"
         style="fill:#000000;fill-opacity:1;stroke-width:0"><path
           style="fill:#000000;fill-opacity:1;stroke:#000000;stroke-width:0"
           d="m 3.296875,2.390625 c 0,-0.03125 0,-0.046875 -0.171875,-0.21875 C 1.890625,0.921875 1.5625,-0.96875 1.5625,-2.5 c 0,-1.734375 0.375,-3.46875 1.609375,-4.703125 0.125,-0.125 0.125,-0.140625 0.125,-0.171875 0,-0.078125 -0.03125,-0.109375 -0.09375,-0.109375 -0.109375,0 -1,0.6875 -1.59375,1.953125 -0.5,1.09375 -0.625,2.203125 -0.625,3.03125 0,0.78125 0.109375,1.984375 0.65625,3.125 C 2.25,1.84375 3.09375,2.5 3.203125,2.5 c 0.0625,0 0.09375,-0.03125 0.09375,-0.109375 z m 0,0"
           id="id-71107169-11d7-4563-9880-4531fdbe231d" /></symbol><symbol
         overflow="visible"
         id="id-eb904d9f-bd20-4da5-a607-494a2d1d1a72"
         style="fill:#000000;fill-opacity:1;stroke-width:0"><path
           style="fill:#000000;fill-opacity:1;stroke:#000000;stroke-width:0"
           d="m 2.875,-2.5 c 0,-0.765625 -0.109375,-1.96875 -0.65625,-3.109375 -0.59375,-1.21875 -1.453125,-1.875 -1.546875,-1.875 -0.0625,0 -0.109375,0.046875 -0.109375,0.109375 0,0.03125 0,0.046875 0.1875,0.234375 0.984375,0.984375 1.546875,2.5625 1.546875,4.640625 0,1.71875 -0.359375,3.46875 -1.59375,4.71875 C 0.5625,2.34375 0.5625,2.359375 0.5625,2.390625 0.5625,2.453125 0.609375,2.5 0.671875,2.5 0.765625,2.5 1.671875,1.8125 2.25,0.546875 2.765625,-0.546875 2.875,-1.65625 2.875,-2.5 Z m 0,0"
           id="id-73eb122b-3c69-40ca-b425-b70d5a1cbf2c" /></symbol><symbol
         overflow="visible"
         id="id-85572e59-2761-4d90-a6ae-0a4d08a4cccd"
         style="fill:#000000;fill-opacity:1;stroke-width:0"><path
           style="fill:#000000;fill-opacity:1;stroke:#000000;stroke-width:0"
           d="m 6.84375,-3.265625 c 0.15625,0 0.34375,0 0.34375,-0.1875 C 7.1875,-3.65625 7,-3.65625 6.859375,-3.65625 h -5.96875 c -0.140625,0 -0.328125,0 -0.328125,0.203125 0,0.1875 0.1875,0.1875 0.328125,0.1875 z m 0.015625,1.9375 c 0.140625,0 0.328125,0 0.328125,-0.203125 0,-0.1875 -0.1875,-0.1875 -0.34375,-0.1875 H 0.890625 c -0.140625,0 -0.328125,0 -0.328125,0.1875 0,0.203125 0.1875,0.203125 0.328125,0.203125 z m 0,0"
           id="id-d610bd68-e9bf-4ba8-b9df-6486125aaa15" /></symbol><symbol
         overflow="visible"
         id="id-28919ab6-563f-4d36-acb4-8401364c3229"
         style="fill:#000000;fill-opacity:1;stroke-width:0"><path
           style="fill:#000000;fill-opacity:1;stroke:#000000;stroke-width:0"
           d="m 2.34375,-2.484375 c 0,-1.25 0.96875,-1.96875 1.3125,-2.21875 0.265625,-0.203125 0.484375,-0.5625 0.484375,-0.984375 0,-0.578125 -0.40625,-1.34375 -1.890625,-1.34375 -1.078125,0 -1.6875,0.6875 -1.6875,1.328125 0,0.34375 0.21875,0.484375 0.453125,0.484375 0.28125,0 0.453125,-0.203125 0.453125,-0.46875 0,-0.4375 -0.40625,-0.4375 -0.546875,-0.4375 0.296875,-0.53125 0.875,-0.6875 1.296875,-0.6875 1.09375,0 1.09375,0.6875 1.09375,1.078125 0,0.578125 -0.15625,0.765625 -0.34375,0.9375 -0.65625,0.71875 -0.875,1.640625 -0.875,2.25 v 0.4375 c 0,0.1875 0,0.25 0.125,0.25 0.125,0 0.125,-0.09375 0.125,-0.28125 z M 2.734375,-0.53125 C 2.734375,-0.8125 2.5,-1.0625 2.21875,-1.0625 c -0.296875,0 -0.53125,0.25 -0.53125,0.53125 C 1.6875,-0.234375 1.921875,0 2.21875,0 2.5,0 2.734375,-0.234375 2.734375,-0.53125 Z m 0,0"
           id="id-c85e584b-e893-4cbf-9b28-f2340f04a153" /></symbol><symbol
         overflow="visible"
         id="id-c346357e-2fc7-44ce-b056-26e91474a902"
         style="fill:#000000;fill-opacity:1;stroke-width:0"><path
           style="fill:#000000;fill-opacity:1;stroke:#000000;stroke-width:0"
           d=""
           id="id-18966f70-6bad-4616-ab63-6f54f2944a33" /></symbol><symbol
         overflow="visible"
         id="id-6014f572-9378-46ed-8706-b354d6a65cb2"
         style="fill:#000000;fill-opacity:1;stroke-width:0"><path
           style="fill:#000000;fill-opacity:1;stroke:#000000;stroke-width:0"
           d="m 5.359375,-5.9375 c -0.140625,0.140625 -0.46875,0.421875 -0.46875,0.59375 0,0.09375 0.09375,0.203125 0.1875,0.203125 0.09375,0 0.140625,-0.078125 0.203125,-0.140625 C 5.390625,-5.421875 5.625,-5.703125 6.0625,-5.921875 6.125,-5.96875 6.234375,-6.015625 6.234375,-6.125 6.234375,-6.234375 6.15625,-6.28125 6.09375,-6.328125 5.875,-6.484375 5.765625,-6.65625 5.6875,-6.890625 5.65625,-6.984375 5.625,-7.125 5.484375,-7.125 c -0.140625,0 -0.203125,0.140625 -0.203125,0.21875 0,0.046875 0.078125,0.359375 0.234375,0.578125 H 2.15625 c -0.15625,0 -0.34375,0 -0.34375,0.203125 0,0.1875 0.1875,0.1875 0.34375,0.1875 z m 0,0"
           id="id-cdb9ccd6-5069-47f5-9d1a-0f8a30e52abb" /></symbol><symbol
         overflow="visible"
         id="id-9a2c00b3-a80a-48c6-b98d-881b4b446621"
         style="fill:#000000;fill-opacity:1;stroke-width:0"><path
           style="fill:#000000;fill-opacity:1;stroke:#000000;stroke-width:0"
           d="M 0.453125,1.21875 C 0.375,1.5625 0.34375,1.625 -0.09375,1.625 c -0.109375,0 -0.21875,0 -0.21875,0.1875 0,0.078125 0.046875,0.125 0.125,0.125 0.265625,0 0.5625,-0.03125 0.828125,-0.03125 0.34375,0 0.671875,0.03125 1,0.03125 0.046875,0 0.171875,0 0.171875,-0.203125 C 1.8125,1.625 1.71875,1.625 1.578125,1.625 c -0.5,0 -0.5,-0.0625 -0.5,-0.15625 0,-0.125 0.421875,-1.75 0.484375,-2 0.125,0.296875 0.40625,0.640625 0.921875,0.640625 1.15625,0 2.40625,-1.453125 2.40625,-2.921875 0,-0.9375 -0.578125,-1.59375 -1.328125,-1.59375 -0.5,0 -0.984375,0.359375 -1.3125,0.75 -0.09375,-0.546875 -0.53125,-0.75 -0.890625,-0.75 -0.46875,0 -0.65625,0.390625 -0.734375,0.5625 C 0.4375,-3.5 0.3125,-2.90625 0.3125,-2.875 c 0,0.109375 0.09375,0.109375 0.109375,0.109375 0.109375,0 0.109375,-0.015625 0.171875,-0.234375 0.171875,-0.703125 0.375,-1.1875 0.734375,-1.1875 0.171875,0 0.3125,0.078125 0.3125,0.453125 0,0.234375 -0.03125,0.34375 -0.078125,0.515625 z m 1.75,-4.328125 C 2.265625,-3.375 2.546875,-3.65625 2.71875,-3.8125 c 0.359375,-0.296875 0.640625,-0.375 0.8125,-0.375 0.390625,0 0.640625,0.34375 0.640625,0.9375 0,0.59375 -0.328125,1.734375 -0.515625,2.109375 -0.34375,0.703125 -0.8125,1.03125 -1.1875,1.03125 C 1.8125,-0.109375 1.6875,-0.9375 1.6875,-1 c 0,-0.015625 0,-0.03125 0.03125,-0.15625 z m 0,0"
           id="id-6950ad6f-c962-42e3-9602-686c624336be" /></symbol><symbol
         overflow="visible"
         id="id-011455c5-86ee-42cc-b6cf-fc9166ea59ca"
         style="fill:#000000;fill-opacity:1;stroke-width:0"><path
           style="fill:#000000;fill-opacity:1;stroke:#000000;stroke-width:0"
           d="m 2.046875,-3.984375 h 0.9375 c 0.203125,0 0.3125,0 0.3125,-0.203125 0,-0.109375 -0.109375,-0.109375 -0.28125,-0.109375 h -0.875 C 2.5,-5.71875 2.546875,-5.90625 2.546875,-5.96875 c 0,-0.171875 -0.125,-0.265625 -0.296875,-0.265625 -0.03125,0 -0.3125,0 -0.390625,0.359375 L 1.46875,-4.296875 h -0.9375 c -0.203125,0 -0.296875,0 -0.296875,0.1875 0,0.125 0.078125,0.125 0.28125,0.125 h 0.875 C 0.671875,-1.15625 0.625,-0.984375 0.625,-0.8125 0.625,-0.265625 1,0.109375 1.546875,0.109375 2.5625,0.109375 3.125,-1.34375 3.125,-1.421875 3.125,-1.53125 3.046875,-1.53125 3.015625,-1.53125 2.921875,-1.53125 2.90625,-1.5 2.859375,-1.390625 2.4375,-0.34375 1.90625,-0.109375 1.5625,-0.109375 c -0.203125,0 -0.3125,-0.125 -0.3125,-0.453125 0,-0.25 0.03125,-0.3125 0.0625,-0.484375 z m 0,0"
           id="id-f95d97aa-5511-4632-8d67-88f3dfb91a7c" /></symbol></g><marker
       style="overflow:visible"
       id="Arrow2Mstart-1-3"
       refX="0"
       refY="0"
       orient="auto"
       inkscape:stockid="Arrow2Mstart"
       inkscape:isstock="true"
       viewBox="0 0 6.9304588 5.1962256"
       markerWidth="5"
       markerHeight="3.7488322"
       preserveAspectRatio="xMidYMid"><path
         transform="scale(0.6)"
         d="M 8.7185878,4.0337352 -2.2072895,0.01601326 8.7185884,-4.0017078 c -1.7454984,2.3720609 -1.7354408,5.6174519 -6e-7,8.035443 z"
         style="fill:context-stroke;fill-rule:evenodd;stroke:context-stroke;stroke-width:0.625;stroke-linejoin:round"
         id="path752666-1-6" /></marker><marker
       style="overflow:visible"
       id="Arrow2Mstart-1-3-6"
       refX="0"
       refY="0"
       orient="auto"
       inkscape:stockid="Arrow2Mstart"
       inkscape:isstock="true"
       viewBox="0 0 6.9304588 5.1962256"
       markerWidth="6.9304585"
       markerHeight="5.1962256"
       preserveAspectRatio="xMidYMid"><path
         transform="scale(0.6)"
         d="M 8.7185878,4.0337352 -2.2072895,0.01601326 8.7185884,-4.0017078 c -1.7454984,2.3720609 -1.7354408,5.6174519 -6e-7,8.035443 z"
         style="fill:context-stroke;fill-rule:evenodd;stroke:context-stroke;stroke-width:0.625;stroke-linejoin:round"
         id="path752666-1-6-2" /></marker><marker
       style="overflow:visible"
       id="Arrow2Mstart-1-6-2"
       refX="0.11630426"
       refY="-0.035198048"
       orient="111.1831131"
       inkscape:stockid="Arrow2Mstart"
       inkscape:isstock="true"
       viewBox="0 0 6.9304588 5.1962256"
       markerWidth="6"
       markerHeight="4.4985991"
       preserveAspectRatio="xMidYMid"><path
         transform="scale(0.6)"
         d="M 8.7185878,4.0337352 -2.2072895,0.01601326 8.7185884,-4.0017078 c -1.7454984,2.3720609 -1.7354408,5.6174519 -6e-7,8.035443 z"
         style="fill:context-stroke;fill-rule:evenodd;stroke:context-stroke;stroke-width:0.625;stroke-linejoin:round"
         id="path752666-1-2-7" /></marker><marker
       style="overflow:visible"
       id="Arrow2Mstart-1-36"
       refX="0"
       refY="0"
       orient="80"
       inkscape:stockid="Arrow2Mstart"
       inkscape:isstock="true"
       viewBox="0 0 6.9304588 5.1962256"
       markerWidth="6"
       markerHeight="4.4985986"
       preserveAspectRatio="xMidYMid"><path
         transform="scale(0.6)"
         d="M 8.7185878,4.0337352 -2.2072895,0.01601326 8.7185884,-4.0017078 c -1.7454984,2.3720609 -1.7354408,5.6174519 -6e-7,8.035443 z"
         style="fill:context-stroke;fill-rule:evenodd;stroke:context-stroke;stroke-width:0.625;stroke-linejoin:round"
         id="path752666-1-7" /></marker><marker
       style="overflow:visible"
       id="Arrow2Mstart-1-3-5"
       refX="0"
       refY="0"
       orient="auto"
       inkscape:stockid="Arrow2Mstart"
       inkscape:isstock="true"
       viewBox="0 0 6.9304588 5.1962256"
       markerWidth="5"
       markerHeight="3.7488322"
       preserveAspectRatio="xMidYMid"><path
         transform="scale(0.6)"
         d="M 8.7185878,4.0337352 -2.2072895,0.01601326 8.7185884,-4.0017078 c -1.7454984,2.3720609 -1.7354408,5.6174519 -6e-7,8.035443 z"
         style="fill:context-stroke;fill-rule:evenodd;stroke:context-stroke;stroke-width:0.625;stroke-linejoin:round"
         id="path752666-1-6-3" /></marker><marker
       style="overflow:visible"
       id="marker3505"
       refX="0"
       refY="0"
       orient="auto"
       inkscape:stockid="Arrow2Mstart"
       inkscape:isstock="true"
       viewBox="0 0 6.9304588 5.1962256"
       markerWidth="5"
       markerHeight="3.7488322"
       preserveAspectRatio="xMidYMid"><path
         transform="scale(0.6)"
         d="M 8.7185878,4.0337352 -2.2072895,0.01601326 8.7185884,-4.0017078 c -1.7454984,2.3720609 -1.7354408,5.6174519 -6e-7,8.035443 z"
         style="fill:context-stroke;fill-rule:evenodd;stroke:context-stroke;stroke-width:0.625;stroke-linejoin:round"
         id="path3503" /></marker><marker
       style="overflow:visible"
       id="marker3509"
       refX="0"
       refY="0"
       orient="80"
       inkscape:stockid="Arrow2Mstart"
       inkscape:isstock="true"
       viewBox="0 0 6.9304588 5.1962256"
       markerWidth="6"
       markerHeight="4.4985986"
       preserveAspectRatio="xMidYMid"><path
         transform="scale(0.6)"
         d="M 8.7185878,4.0337352 -2.2072895,0.01601326 8.7185884,-4.0017078 c -1.7454984,2.3720609 -1.7354408,5.6174519 -6e-7,8.035443 z"
         style="fill:context-stroke;fill-rule:evenodd;stroke:context-stroke;stroke-width:0.625;stroke-linejoin:round"
         id="path3507" /></marker><marker
       style="overflow:visible"
       id="marker3513"
       refX="0"
       refY="0"
       orient="auto"
       inkscape:stockid="Arrow2Mstart"
       inkscape:isstock="true"
       viewBox="0 0 6.9304588 5.1962256"
       markerWidth="5"
       markerHeight="3.7488322"
       preserveAspectRatio="xMidYMid"><path
         transform="scale(0.6)"
         d="M 8.7185878,4.0337352 -2.2072895,0.01601326 8.7185884,-4.0017078 c -1.7454984,2.3720609 -1.7354408,5.6174519 -6e-7,8.035443 z"
         style="fill:context-stroke;fill-rule:evenodd;stroke:context-stroke;stroke-width:0.625;stroke-linejoin:round"
         id="path3511" /></marker><marker
       style="overflow:visible"
       id="marker3517"
       refX="0"
       refY="0"
       orient="auto"
       inkscape:stockid="Arrow2Mstart"
       inkscape:isstock="true"
       viewBox="0 0 6.9304588 5.1962256"
       markerWidth="5"
       markerHeight="3.7488322"
       preserveAspectRatio="xMidYMid"><path
         transform="scale(0.6)"
         d="M 8.7185878,4.0337352 -2.2072895,0.01601326 8.7185884,-4.0017078 c -1.7454984,2.3720609 -1.7354408,5.6174519 -6e-7,8.035443 z"
         style="fill:context-stroke;fill-rule:evenodd;stroke:context-stroke;stroke-width:0.625;stroke-linejoin:round"
         id="path3515" /></marker></defs><g
     inkscape:label="Layer 1"
     id="layer1"
     transform="translate(-34.845395,-55.15534)"
     inkscape:groupmode="layer"><g
       id="g3011"
       inkscape:label="flow"
       transform="translate(0,3.3712235)"><g
         id="g690"
         transform="matrix(-0.18413012,-0.98290188,-0.98290188,0.18413012,232.54855,80.411707)"
         inkscape:label="flow"><path
           style="fill:none;stroke:#80c9ff;stroke-width:2;stroke-linecap:round;stroke-linejoin:bevel;stroke-dasharray:none;stroke-opacity:1"
           d="M -3.583267,200.79618 C -1.87045,185.56807 0.665592,170.3936 0.730883,155.08816 0.813523,135.71661 -2.805062,116.50438 -4.232072,97.185285"
           id="path686"
           sodipodi:nodetypes="csc" /><path
           style="fill:#80c9ff;fill-opacity:1;stroke:none;stroke-width:0.264582px;stroke-linecap:butt;stroke-linejoin:miter;stroke-opacity:1"
           d="M 1.256077,102.5116 -5.341508,90.707977 -7.988511,103.61017 c 0,0 2.391925,-2.462 4.160611,-2.63299 1.59913,-0.15454 5.083977,1.53442 5.083977,1.53442 z"
           id="path688"
           sodipodi:nodetypes="cccsc" /></g><g
         id="g2986"
         transform="matrix(-0.18413012,-0.98290188,-0.98290188,0.18413012,230.4028,66.147217)"
         inkscape:label="flow"><path
           style="fill:none;stroke:#80c9ff;stroke-width:2;stroke-linecap:round;stroke-linejoin:bevel;stroke-dasharray:none;stroke-opacity:1"
           d="M 14.918175,183.73729 C 16.630992,168.50918 -8.6038362,160.87245 -8.5385452,145.56701 -8.4559052,126.19546 3.7542639,134.43714 2.3272539,115.11805"
           id="path2982"
           sodipodi:nodetypes="csc" /><path
           style="fill:#80c9ff;fill-opacity:1;stroke:none;stroke-width:0.264582px;stroke-linecap:butt;stroke-linejoin:miter;stroke-opacity:1"
           d="M 7.134418,118.55433 3.827433,105.44261 -2.0784,117.21521 c 0,0 2.94908148,-1.7566 4.701515,-1.46256 1.5844205,0.26592 4.511303,2.80168 4.511303,2.80168 z"
           id="path2984"
           sodipodi:nodetypes="cccsc" /></g><path
         style="fill:none;stroke:#80c9ff;stroke-width:2;stroke-linecap:round;stroke-linejoin:bevel;stroke-dasharray:none;stroke-opacity:1"
         d="M 14.918175,183.73729 C 16.630992,168.50918 -1.467991,160.5844 -1.4027,145.27896 -1.32006,125.90741 3.7542639,134.43714 2.3272539,115.11805"
         id="path2988"
         sodipodi:nodetypes="csc"
         transform="rotate(104.0787,56.970735,169.84174)" /><g
         id="g2998"
         transform="matrix(-0.18413012,-0.98290188,-0.98290188,0.18413012,230.74073,50.835268)"
         inkscape:label="flow"><path
           style="fill:none;stroke:#80c9ff;stroke-width:2;stroke-linecap:round;stroke-linejoin:bevel;stroke-dasharray:none;stroke-opacity:1"
           d="m -2.9947211,163.01637 c -2.3098993,-3.9499 -5.8674282,-11.2347 -5.5438241,-17.44936 0.4750334,-9.12279 7.5292299,-18.17518 12.319726,-7.27885"
           id="path2994"
           sodipodi:nodetypes="csc" /><path
           style="fill:#80c9ff;fill-opacity:1;stroke:none;stroke-width:0.264582px;stroke-linecap:butt;stroke-linejoin:miter;stroke-opacity:1"
           d="m -1.4284051,138.1124 11.1605787,7.63511 -3.3703883,-12.73238 c 0,0 -1.0466131,3.26915 -2.5544743,4.20927 -1.3633433,0.84994 -5.2357161,0.888 -5.2357161,0.888 z"
           id="path2996"
           sodipodi:nodetypes="cccsc" /></g><g
         id="g2992"
         transform="rotate(104.0787,56.970735,169.84174)"
         inkscape:label="flow"><path
           style="fill:#80c9ff;fill-opacity:1;stroke:none;stroke-width:0.264582px;stroke-linecap:butt;stroke-linejoin:miter;stroke-opacity:1"
           d="M 7.134418,118.55433 3.827433,105.44261 -2.0784,117.21521 c 0,0 2.94908148,-1.7566 4.701515,-1.46256 1.5844205,0.26592 4.511303,2.80168 4.511303,2.80168 z"
           id="path2990"
           sodipodi:nodetypes="cccsc" /></g></g><text
       xml:space="preserve"
       style="font-size:10.5833px;line-height:1.25;font-family:'Source Code Pro';-inkscape-font-specification:'Source Code Pro';text-align:center;letter-spacing:0px;word-spacing:0px;text-anchor:middle;fill:#ff7d7d;fill-opacity:1;stroke-width:0.264583"
       x="91.158493"
       y="67.06459"
       id="text1792"><tspan
         sodipodi:role="line"
         id="tspan1790"
         style="text-align:center;text-anchor:middle;fill:#ff7d7d;fill-opacity:1;stroke-width:0.264583"
         x="91.158493"
         y="67.06459">Eulerian</tspan></text><text
       xml:space="preserve"
       style="font-size:10.5833px;line-height:1.25;font-family:'Source Code Pro';-inkscape-font-specification:'Source Code Pro';text-align:center;letter-spacing:0px;word-spacing:0px;text-anchor:middle;fill:#ff7d7d;fill-opacity:1;stroke-width:0.264583"
       x="92.180321"
       y="153.38492"
       id="text1846"><tspan
         sodipodi:role="line"
         id="tspan1844"
         style="text-align:center;text-anchor:middle;fill:#ff7d7d;fill-opacity:1;stroke-width:0.264583"
         x="92.180321"
         y="153.38492">Lagrangian</tspan></text><g
       id="g2846"
       transform="matrix(1.618692,0,0,1.6207723,-65.580696,14.675735)"
       style="stroke-width:0.617386"
       inkscape:label="eulerian"><path
         style="fill:none;stroke:#fe7e7f;stroke-width:1.23477;stroke-linecap:round;stroke-linejoin:bevel;stroke-dasharray:none;stroke-opacity:0.992157"
         d="m 74.736993,37.160989 -0.03345,41.365786"
         id="path1046"
         sodipodi:nodetypes="cc" /><path
         style="fill:none;stroke:#fe7e7f;stroke-width:1.23477;stroke-linecap:round;stroke-linejoin:bevel;stroke-dasharray:none;stroke-opacity:0.992157"
         d="M 70.226973,41.801457 H 110.59852"
         id="path1106"
         sodipodi:nodetypes="cc" /><path
         style="fill:none;stroke:#fe7e7f;stroke-width:1.23477;stroke-linecap:round;stroke-linejoin:bevel;stroke-dasharray:none;stroke-opacity:0.992157"
         d="m 90.712272,37.813669 0.151923,40.566056"
         id="path1116"
         sodipodi:nodetypes="cc" /><path
         style="fill:none;stroke:#fe7e7f;stroke-width:1.23477;stroke-linecap:round;stroke-linejoin:bevel;stroke-dasharray:none;stroke-opacity:0.992157"
         d="M 106.65382,38.070121 V 78.549967"
         id="path1118"
         sodipodi:nodetypes="cc" /><path
         style="fill:none;stroke:#fe7e7f;stroke-width:1.23477;stroke-linecap:round;stroke-linejoin:bevel;stroke-dasharray:none;stroke-opacity:0.992157"
         d="M 70.400215,73.684543 H 110.59852"
         id="path1122"
         sodipodi:nodetypes="cc" /><path
         style="fill:none;stroke:#fe7e7f;stroke-width:1.23477;stroke-linecap:round;stroke-linejoin:bevel;stroke-dasharray:none;stroke-opacity:0.992157"
         d="M 69.655217,57.743003 H 110.59852"
         id="path1124"
         sodipodi:nodetypes="cc" /><ellipse
         style="fill:#ff7d7d;fill-opacity:1;stroke:none;stroke-width:0.217805;stroke-linecap:round;stroke-linejoin:round"
         id="ellipse3043-3-7"
         cx="97.958794"
         cy="45.21056"
         rx="2.4710753"
         ry="2.4680233"
         inkscape:label="sphere"
         transform="matrix(0.99118636,0.13247488,-0.14236312,0.9898145,0,0)" /><ellipse
         style="fill:#ff7d7d;fill-opacity:1;stroke:none;stroke-width:0.217805;stroke-linecap:round;stroke-linejoin:round"
         id="ellipse3942"
         cx="111.5377"
         cy="27.400572"
         rx="2.4710753"
         ry="2.4680233"
         inkscape:label="sphere"
         transform="matrix(0.99118636,0.13247488,-0.14236312,0.9898145,0,0)" /><ellipse
         style="fill:#ff7d7d;fill-opacity:1;stroke:none;stroke-width:0.217805;stroke-linecap:round;stroke-linejoin:round"
         id="ellipse3944"
         cx="95.693062"
         cy="29.424231"
         rx="2.4710753"
         ry="2.4680233"
         inkscape:label="sphere"
         transform="matrix(0.99118636,0.13247488,-0.14236312,0.9898145,0,0)" /><ellipse
         style="fill:#ff7d7d;fill-opacity:1;stroke:none;stroke-width:0.217805;stroke-linecap:round;stroke-linejoin:round"
         id="ellipse3946"
         cx="79.923485"
         cy="31.534801"
         rx="2.4710753"
         ry="2.4680233"
         inkscape:label="sphere"
         transform="matrix(0.99118636,0.13247488,-0.14236312,0.9898145,0,0)" /><ellipse
         style="fill:#ff7d7d;fill-opacity:1;stroke:none;stroke-width:0.217805;stroke-linecap:round;stroke-linejoin:round"
         id="ellipse3948"
         cx="82.161064"
         cy="47.179764"
         rx="2.4710753"
         ry="2.4680233"
         inkscape:label="sphere"
         transform="matrix(0.99118636,0.13247488,-0.14236312,0.9898145,0,0)" /><ellipse
         style="fill:#ff7d7d;fill-opacity:1;stroke:none;stroke-width:0.217805;stroke-linecap:round;stroke-linejoin:round"
         id="ellipse3950"
         cx="84.392418"
         cy="63.071941"
         rx="2.4710753"
         ry="2.4680233"
         inkscape:label="sphere"
         transform="matrix(0.99118636,0.13247488,-0.14236312,0.9898145,0,0)" /><ellipse
         style="fill:#ff7d7d;fill-opacity:1;stroke:none;stroke-width:0.217805;stroke-linecap:round;stroke-linejoin:round"
         id="ellipse3952"
         cx="100.40971"
         cy="61.004135"
         rx="2.4710753"
         ry="2.4680233"
         inkscape:label="sphere"
         transform="matrix(0.99118636,0.13247488,-0.14236312,0.9898145,0,0)" /><ellipse
         style="fill:#ff7d7d;fill-opacity:1;stroke:none;stroke-width:0.217805;stroke-linecap:round;stroke-linejoin:round"
         id="ellipse3954"
         cx="116.0423"
         cy="59.144577"
         rx="2.4710753"
         ry="2.4680233"
         inkscape:label="sphere"
         transform="matrix(0.99118636,0.13247488,-0.14236312,0.9898145,0,0)" /><ellipse
         style="fill:#ff7d7d;fill-opacity:1;stroke:none;stroke-width:0.217805;stroke-linecap:round;stroke-linejoin:round"
         id="ellipse3956"
         cx="113.66387"
         cy="43.232468"
         rx="2.4710753"
         ry="2.4680233"
         inkscape:label="sphere"
         transform="matrix(0.99118636,0.13247488,-0.14236312,0.9898145,0,0)" /></g><g
       id="g3039"
       inkscape:label="flow"
       transform="translate(0,90.082457)"><g
         id="g3019"
         transform="matrix(-0.18413012,-0.98290188,-0.98290188,0.18413012,232.54855,80.411707)"
         inkscape:label="flow"><path
           style="fill:none;stroke:#80c9ff;stroke-width:2;stroke-linecap:round;stroke-linejoin:bevel;stroke-dasharray:none;stroke-opacity:1"
           d="M -3.583267,200.79618 C -1.87045,185.56807 0.665592,170.3936 0.730883,155.08816 0.813523,135.71661 -2.805062,116.50438 -4.232072,97.185285"
           id="path3015"
           sodipodi:nodetypes="csc" /><path
           style="fill:#80c9ff;fill-opacity:1;stroke:none;stroke-width:0.264582px;stroke-linecap:butt;stroke-linejoin:miter;stroke-opacity:1"
           d="M 1.256077,102.5116 -5.341508,90.707977 -7.988511,103.61017 c 0,0 2.391925,-2.462 4.160611,-2.63299 1.59913,-0.15454 5.083977,1.53442 5.083977,1.53442 z"
           id="path3017"
           sodipodi:nodetypes="cccsc" /></g><g
         id="g3025"
         transform="matrix(-0.18413012,-0.98290188,-0.98290188,0.18413012,230.4028,66.147217)"
         inkscape:label="flow"><path
           style="fill:none;stroke:#80c9ff;stroke-width:2;stroke-linecap:round;stroke-linejoin:bevel;stroke-dasharray:none;stroke-opacity:1"
           d="M 14.918175,183.73729 C 16.630992,168.50918 -8.6038362,160.87245 -8.5385452,145.56701 -8.4559052,126.19546 3.7542639,134.43714 2.3272539,115.11805"
           id="path3021"
           sodipodi:nodetypes="csc" /><path
           style="fill:#80c9ff;fill-opacity:1;stroke:none;stroke-width:0.264582px;stroke-linecap:butt;stroke-linejoin:miter;stroke-opacity:1"
           d="M 7.134418,118.55433 3.827433,105.44261 -2.0784,117.21521 c 0,0 2.94908148,-1.7566 4.701515,-1.46256 1.5844205,0.26592 4.511303,2.80168 4.511303,2.80168 z"
           id="path3023"
           sodipodi:nodetypes="cccsc" /></g><path
         style="fill:none;stroke:#80c9ff;stroke-width:2;stroke-linecap:round;stroke-linejoin:bevel;stroke-dasharray:none;stroke-opacity:1"
         d="M 14.918175,183.73729 C 16.630992,168.50918 -1.467991,160.5844 -1.4027,145.27896 -1.32006,125.90741 3.7542639,134.43714 2.3272539,115.11805"
         id="path3027"
         sodipodi:nodetypes="csc"
         transform="rotate(104.0787,56.970735,169.84174)" /><g
         id="g3033"
         transform="matrix(-0.18413012,-0.98290188,-0.98290188,0.18413012,230.74073,50.835268)"
         inkscape:label="flow"><path
           style="fill:none;stroke:#80c9ff;stroke-width:2;stroke-linecap:round;stroke-linejoin:bevel;stroke-dasharray:none;stroke-opacity:1"
           d="m -2.9947211,163.01637 c -2.3098993,-3.9499 -5.8674282,-11.2347 -5.5438241,-17.44936 0.4750334,-9.12279 7.5292299,-18.17518 12.319726,-7.27885"
           id="path3029"
           sodipodi:nodetypes="csc" /><path
           style="fill:#80c9ff;fill-opacity:1;stroke:none;stroke-width:0.264582px;stroke-linecap:butt;stroke-linejoin:miter;stroke-opacity:1"
           d="m -1.4284051,138.1124 11.1605787,7.63511 -3.3703883,-12.73238 c 0,0 -1.0466131,3.26915 -2.5544743,4.20927 -1.3633433,0.84994 -5.2357161,0.888 -5.2357161,0.888 z"
           id="path3031"
           sodipodi:nodetypes="cccsc" /></g><g
         id="g3037"
         transform="rotate(104.0787,56.970735,169.84174)"
         inkscape:label="flow"><path
           style="fill:#80c9ff;fill-opacity:1;stroke:none;stroke-width:0.264582px;stroke-linecap:butt;stroke-linejoin:miter;stroke-opacity:1"
           d="M 7.134418,118.55433 3.827433,105.44261 -2.0784,117.21521 c 0,0 2.94908148,-1.7566 4.701515,-1.46256 1.5844205,0.26592 4.511303,2.80168 4.511303,2.80168 z"
           id="path3035"
           sodipodi:nodetypes="cccsc" /></g></g><g
       id="g1425"
       inkscape:label="lagrangian"
       transform="rotate(7.9312571,-187.61791,-102.57321)"><circle
         style="fill:#ff7d7d;fill-opacity:1;stroke:none;stroke-width:0.352785;stroke-linecap:round;stroke-linejoin:round"
         id="ellipse714"
         cx="158.25179"
         cy="140.40977"
         inkscape:label="sphere"
         transform="matrix(0.99998546,-0.00539232,-0.00424102,0.99999101,0,0)"
         r="4" /><circle
         style="fill:#ff7d7d;fill-opacity:1;stroke:none;stroke-width:0.352785;stroke-linecap:round;stroke-linejoin:round"
         id="ellipse3043"
         cx="143.22623"
         cy="177.30962"
         inkscape:label="sphere"
         transform="matrix(0.99998546,-0.00539232,-0.00424102,0.99999101,0,0)"
         r="4" /><path
         style="fill:none;stroke:#ff7d7d;stroke-width:2;stroke-linecap:round;stroke-linejoin:bevel;stroke-dasharray:none;stroke-opacity:1"
         d="m 157.654,139.55517 c 0,0 -20.50526,11.54723 -31.85483,13.81389 -7.60727,1.51927 -15.52718,-0.82628 -23.26989,-0.3476 -7.431817,0.45946 -22.124342,3.0823 -22.124342,3.0823"
         id="path3045"
         sodipodi:nodetypes="caac" /><path
         style="fill:none;stroke:#fe7e7f;stroke-width:2;stroke-linecap:round;stroke-linejoin:bevel;stroke-dasharray:none;stroke-opacity:0.992157"
         d="m 142.5194,176.8747 c 0,0 -8.58207,-5.87781 -13.26494,-5.13509 -8.23499,1.30611 -11.59028,12.85239 -19.38791,15.805 -5.71902,2.16553 -18.331182,0.73368 -18.331182,0.73368"
         id="path3047"
         sodipodi:nodetypes="caac" /><circle
         style="fill:#ff7d7d;fill-opacity:1;stroke:none;stroke-width:0.352785;stroke-linecap:round;stroke-linejoin:round"
         id="ellipse3043-3"
         cx="143.48734"
         cy="120.71787"
         inkscape:label="sphere"
         transform="matrix(0.99998546,-0.00539232,-0.00424102,0.99999101,0,0)"
         r="4" /><path
         style="fill:none;stroke:#fe7e7f;stroke-width:2;stroke-linecap:round;stroke-linejoin:bevel;stroke-dasharray:none;stroke-opacity:0.992157"
         d="m 143.02051,120.28206 c 0,0 -6.04069,14.47222 -12.26452,18.444 -6.0847,3.88298 -14.36379,4.8697 -21.40454,3.27946 -6.11616,-1.3814 -15.564286,-10.56377 -15.564286,-10.56377"
         id="path3047-6"
         sodipodi:nodetypes="caac" /><circle
         style="fill:#ff7d7d;fill-opacity:1;stroke:none;stroke-width:0.352785;stroke-linecap:round;stroke-linejoin:round"
         id="ellipse3713"
         cx="105.07875"
         cy="170.76123"
         inkscape:label="sphere"
         transform="matrix(0.99998546,-0.00539232,-0.00424102,0.99999101,0,0)"
         r="4" /><path
         style="fill:none;stroke:#fe7e7f;stroke-width:2;stroke-linecap:round;stroke-linejoin:bevel;stroke-dasharray:none;stroke-opacity:0.992157"
         d="m 104.40025,170.53207 c 0,0 -15.648097,5.27392 -22.316968,9.94989"
         id="path3715"
         sodipodi:nodetypes="cc" /></g></g></svg>
