<?xml version="1.0" encoding="UTF-8" standalone="no"?>
<!-- Created with Inkscape (http://www.inkscape.org/) -->

<svg
   width="86.6035mm"
   height="107.44473mm"
   viewBox="0 0 86.603503 107.44473"
   version="1.1"
   id="svg5"
   inkscape:version="1.2.1 (9c6d41e410, 2022-07-14)"
   sodipodi:docname="optimal_threshold.svg"
   xml:space="preserve"
   xmlns:inkscape="http://www.inkscape.org/namespaces/inkscape"
   xmlns:sodipodi="http://sodipodi.sourceforge.net/DTD/sodipodi-0.dtd"
   xmlns="http://www.w3.org/2000/svg"
   xmlns:svg="http://www.w3.org/2000/svg"><sodipodi:namedview
     id="namedview7"
     pagecolor="#e5e5e5"
     bordercolor="#666666"
     borderopacity="1.0"
     inkscape:pageshadow="2"
     inkscape:pageopacity="0"
     inkscape:pagecheckerboard="false"
     inkscape:document-units="mm"
     showgrid="false"
     inkscape:zoom="1.3142638"
     inkscape:cx="411.25686"
     inkscape:cy="151.41557"
     inkscape:window-width="1916"
     inkscape:window-height="1037"
     inkscape:window-x="0"
     inkscape:window-y="20"
     inkscape:window-maximized="1"
     inkscape:current-layer="g17497"
     inkscape:showpageshadow="2"
     inkscape:deskcolor="#e5e5e5"
     showguides="true"><inkscape:grid
       type="xygrid"
       id="grid33717"
       originx="-0.13585833"
       originy="19.583273" /></sodipodi:namedview><defs
     id="defs2"><marker
       style="overflow:visible"
       id="Arrow2Mstart-1"
       refX="0"
       refY="0"
       orient="80"
       inkscape:stockid="Arrow2Mstart"
       inkscape:isstock="true"
       viewBox="0 0 6.9304588 5.1962256"
       markerWidth="6"
       markerHeight="4.4985986"
       preserveAspectRatio="xMidYMid"><path
         transform="scale(0.6)"
         d="M 8.7185878,4.0337352 -2.2072895,0.01601326 8.7185884,-4.0017078 c -1.7454984,2.3720609 -1.7354408,5.6174519 -6e-7,8.035443 z"
         style="fill:context-stroke;fill-rule:evenodd;stroke:context-stroke;stroke-width:0.625;stroke-linejoin:round"
         id="path752666-1" /></marker><marker
       style="overflow:visible"
       id="Arrow2Mstart-1-6"
       refX="0.68240988"
       refY="0.0041767759"
       orient="115.87501526"
       inkscape:stockid="Arrow2Mstart"
       inkscape:isstock="true"
       viewBox="0 0 6.9304588 5.1962256"
       markerWidth="6"
       markerHeight="4.4985986"
       preserveAspectRatio="xMidYMid"><path
         transform="scale(0.6)"
         d="M 8.7185878,4.0337352 -2.2072895,0.01601326 8.7185884,-4.0017078 c -1.7454984,2.3720609 -1.7354408,5.6174519 -6e-7,8.035443 z"
         style="fill:context-stroke;fill-rule:evenodd;stroke:context-stroke;stroke-width:0.625;stroke-linejoin:round"
         id="path752666-1-2" /></marker><g
       id="id-1382ddda-13d8-44c1-887b-2c417df8020d"
       style="fill:#ff7d7d;fill-opacity:1;stroke-width:0"><symbol
         overflow="visible"
         id="id-2987ecb6-e645-40dc-a4ab-cdce30e95433"
         style="fill:#ff7d7d;fill-opacity:1;stroke-width:0"><path
           style="fill:#ff7d7d;fill-opacity:1;stroke:#ff7d7d;stroke-width:0"
           d=""
           id="id-3b98700b-0855-4a10-80b3-a692d3e7d50b" /></symbol><symbol
         overflow="visible"
         id="id-58cb04d7-1877-44b5-aec1-81ac0bbb04ce"
         style="fill:#ff7d7d;fill-opacity:1;stroke-width:0"><path
           style="fill:#ff7d7d;fill-opacity:1;stroke:#ff7d7d;stroke-width:0"
           d="M 2.5,-6.921875 1.15625,-5.5625 1.328125,-5.390625 2.5,-6.40625 3.640625,-5.390625 3.8125,-5.5625 Z m 0,0"
           id="id-45a14c04-6293-4c36-8b8b-f648b538435f" /></symbol><symbol
         overflow="visible"
         id="id-ed676b78-a4b2-44bf-85bb-687430ab3d99"
         style="fill:#ff7d7d;fill-opacity:1;stroke-width:0"><path
           style="fill:#ff7d7d;fill-opacity:1;stroke:#ff7d7d;stroke-width:0"
           d=""
           id="id-98899169-4099-434d-b7cf-ec48906251fa" /></symbol><symbol
         overflow="visible"
         id="id-82ddcd87-eb09-4052-a770-267e129ec831"
         style="fill:#ff7d7d;fill-opacity:1;stroke-width:0"><path
           style="fill:#ff7d7d;fill-opacity:1;stroke:#ff7d7d;stroke-width:0"
           d="m 5.359375,-5.9375 c -0.140625,0.140625 -0.46875,0.421875 -0.46875,0.59375 0,0.09375 0.09375,0.203125 0.1875,0.203125 0.09375,0 0.140625,-0.078125 0.203125,-0.140625 C 5.390625,-5.421875 5.625,-5.703125 6.0625,-5.921875 6.125,-5.96875 6.234375,-6.015625 6.234375,-6.125 6.234375,-6.234375 6.15625,-6.28125 6.09375,-6.328125 5.875,-6.484375 5.765625,-6.65625 5.6875,-6.890625 5.65625,-6.984375 5.625,-7.125 5.484375,-7.125 c -0.140625,0 -0.203125,0.140625 -0.203125,0.21875 0,0.046875 0.078125,0.359375 0.234375,0.578125 H 2.15625 c -0.15625,0 -0.34375,0 -0.34375,0.203125 0,0.1875 0.1875,0.1875 0.34375,0.1875 z m 0,0"
           id="id-fb2ec67b-5599-4f38-8ad5-637b70218c92" /></symbol><symbol
         overflow="visible"
         id="id-f927e3e3-e837-4cc7-85da-5a0c1301db5a"
         style="fill:#ff7d7d;fill-opacity:1;stroke-width:0"><path
           style="fill:#ff7d7d;fill-opacity:1;stroke:#ff7d7d;stroke-width:0"
           d="m 1.328125,-0.828125 c 0.53125,-0.578125 0.828125,-0.828125 1.1875,-1.140625 0,0 0.609375,-0.53125 0.96875,-0.890625 C 4.4375,-3.78125 4.65625,-4.265625 4.65625,-4.3125 c 0,-0.09375 -0.09375,-0.09375 -0.109375,-0.09375 -0.078125,0 -0.09375,0.015625 -0.15625,0.109375 -0.296875,0.484375 -0.5,0.640625 -0.734375,0.640625 -0.25,0 -0.359375,-0.15625 -0.515625,-0.328125 -0.1875,-0.21875 -0.359375,-0.421875 -0.6875,-0.421875 -0.75,0 -1.203125,0.921875 -1.203125,1.140625 0,0.046875 0.03125,0.109375 0.109375,0.109375 0.09375,0 0.109375,-0.046875 0.140625,-0.109375 0.1875,-0.46875 0.765625,-0.46875 0.84375,-0.46875 0.203125,0 0.390625,0.0625 0.625,0.140625 0.40625,0.15625 0.515625,0.15625 0.765625,0.15625 -0.359375,0.421875 -1.1875,1.140625 -1.375,1.296875 l -0.90625,0.84375 C 0.78125,-0.625 0.421875,-0.0625 0.421875,0.015625 c 0,0.09375 0.109375,0.09375 0.125,0.09375 0.078125,0 0.09375,-0.015625 0.15625,-0.125 0.234375,-0.359375 0.53125,-0.625 0.859375,-0.625 0.21875,0 0.328125,0.09375 0.578125,0.375 0.15625,0.21875 0.34375,0.375 0.625,0.375 1,0 1.578125,-1.265625 1.578125,-1.53125 0,-0.046875 -0.046875,-0.109375 -0.125,-0.109375 -0.09375,0 -0.109375,0.0625 -0.140625,0.140625 C 3.84375,-0.75 3.203125,-0.5625 2.875,-0.5625 c -0.1875,0 -0.375,-0.0625 -0.578125,-0.125 -0.34375,-0.125 -0.5,-0.171875 -0.703125,-0.171875 -0.015625,0 -0.171875,0 -0.265625,0.03125 z m 0,0"
           id="id-fdde69c8-6119-48b4-bde0-82b85acc73a8" /></symbol></g><g
       id="id-e69a1900-e63a-41df-b033-91322fbc874e"
       style="fill:#33aaff;fill-opacity:1;stroke-width:0"><symbol
         overflow="visible"
         id="id-3853542e-b35b-43ca-bdb3-a1686dd7421b"
         style="fill:#33aaff;fill-opacity:1;stroke-width:0"><path
           style="fill:#33aaff;fill-opacity:1;stroke:#33aaff;stroke-width:0"
           d=""
           id="id-0ca73283-5d78-4617-8437-d8f268c000db" /></symbol><symbol
         overflow="visible"
         id="id-f7fa66ab-907d-4510-963e-1eccb344ad6d"
         style="fill:#33aaff;fill-opacity:1;stroke-width:0"><path
           style="fill:#33aaff;fill-opacity:1;stroke:#33aaff;stroke-width:0"
           d="m 5.359375,-5.9375 c -0.140625,0.140625 -0.46875,0.421875 -0.46875,0.59375 0,0.09375 0.09375,0.203125 0.1875,0.203125 0.09375,0 0.140625,-0.078125 0.203125,-0.140625 C 5.390625,-5.421875 5.625,-5.703125 6.0625,-5.921875 6.125,-5.96875 6.234375,-6.015625 6.234375,-6.125 6.234375,-6.234375 6.15625,-6.28125 6.09375,-6.328125 5.875,-6.484375 5.765625,-6.65625 5.6875,-6.890625 5.65625,-6.984375 5.625,-7.125 5.484375,-7.125 c -0.140625,0 -0.203125,0.140625 -0.203125,0.21875 0,0.046875 0.078125,0.359375 0.234375,0.578125 H 2.15625 c -0.15625,0 -0.34375,0 -0.34375,0.203125 0,0.1875 0.1875,0.1875 0.34375,0.1875 z m 0,0"
           id="id-06f2faa5-9274-4229-a0d9-4fe96570d439" /></symbol><symbol
         overflow="visible"
         id="id-0fa9e3b9-5da2-4c5f-bcd0-c53f29e34b3b"
         style="fill:#33aaff;fill-opacity:1;stroke-width:0"><path
           style="fill:#33aaff;fill-opacity:1;stroke:#33aaff;stroke-width:0"
           d="M 3.484375,-0.5625 C 3.59375,-0.15625 3.953125,0.109375 4.375,0.109375 4.71875,0.109375 4.953125,-0.125 5.109375,-0.4375 5.28125,-0.796875 5.40625,-1.40625 5.40625,-1.421875 c 0,-0.109375 -0.078125,-0.109375 -0.109375,-0.109375 -0.109375,0 -0.109375,0.046875 -0.140625,0.1875 -0.140625,0.5625 -0.328125,1.234375 -0.75,1.234375 -0.203125,0 -0.3125,-0.125 -0.3125,-0.453125 0,-0.21875 0.125,-0.6875 0.203125,-1.046875 L 4.578125,-2.6875 C 4.609375,-2.828125 4.703125,-3.203125 4.75,-3.359375 4.796875,-3.59375 4.890625,-3.96875 4.890625,-4.03125 c 0,-0.171875 -0.140625,-0.265625 -0.28125,-0.265625 -0.046875,0 -0.3125,0.015625 -0.390625,0.34375 -0.1875,0.734375 -0.625,2.484375 -0.75,3 -0.015625,0.046875 -0.40625,0.84375 -1.140625,0.84375 -0.515625,0 -0.609375,-0.453125 -0.609375,-0.8125 0,-0.5625 0.28125,-1.34375 0.53125,-2.03125 0.125,-0.3125 0.171875,-0.453125 0.171875,-0.640625 0,-0.4375 -0.3125,-0.8125 -0.8125,-0.8125 -0.953125,0 -1.3125,1.453125 -1.3125,1.53125 0,0.109375 0.09375,0.109375 0.109375,0.109375 0.109375,0 0.109375,-0.03125 0.15625,-0.1875 0.25,-0.859375 0.640625,-1.234375 1.015625,-1.234375 0.09375,0 0.25,0.015625 0.25,0.328125 0,0.234375 -0.109375,0.53125 -0.171875,0.671875 -0.375,1 -0.578125,1.609375 -0.578125,2.09375 0,0.953125 0.6875,1.203125 1.21875,1.203125 0.65625,0 1.015625,-0.453125 1.1875,-0.671875 z m 0,0"
           id="id-2d6aa263-f6ce-4e30-a9d2-5ff97dc61bbc" /></symbol><symbol
         overflow="visible"
         id="id-44a5c21a-ce62-42d0-9540-96b39a3320e2"
         style="fill:#33aaff;fill-opacity:1;stroke-width:0"><path
           style="fill:#33aaff;fill-opacity:1;stroke:#33aaff;stroke-width:0"
           d=""
           id="id-63f427be-cc8c-4d12-8a0e-158477a1435a" /></symbol><symbol
         overflow="visible"
         id="id-e334649a-38ec-495a-bf55-fb465f849296"
         style="fill:#33aaff;fill-opacity:1;stroke-width:0"><path
           style="fill:#33aaff;fill-opacity:1;stroke:#33aaff;stroke-width:0"
           d="M 7.78125,-6.59375 C 7.796875,-6.625 7.828125,-6.6875 7.828125,-6.734375 7.828125,-6.796875 7.8125,-6.8125 7.59375,-6.8125 H 0.703125 c -0.21875,0 -0.234375,0.015625 -0.234375,0.078125 0,0.046875 0.03125,0.109375 0.046875,0.140625 L 3.875,0.140625 c 0.078125,0.125 0.109375,0.1875 0.265625,0.1875 0.171875,0 0.203125,-0.0625 0.28125,-0.1875 z m -6.078125,0.5 h 5.46875 l -2.71875,5.484375 z m 0,0"
           id="id-3f56303d-763f-47a7-a93b-1283c32f79f4" /></symbol></g><g
       id="id-237fd5ef-e2bb-494e-b344-1df375c10e6c"
       style="fill:#000000;fill-opacity:1;stroke-width:0"><symbol
         overflow="visible"
         id="id-0e896e62-ed34-4828-92cc-9fb4160c48cb"
         style="fill:#000000;fill-opacity:1;stroke-width:0"><path
           style="fill:#000000;fill-opacity:1;stroke:#000000;stroke-width:0"
           d=""
           id="id-e2970e73-e2eb-49a9-abed-f5997652b8d7" /></symbol><symbol
         overflow="visible"
         id="id-8cc1181c-a033-4743-825b-aae8fc6245ef"
         style="fill:#000000;fill-opacity:1;stroke-width:0"><path
           style="fill:#000000;fill-opacity:1;stroke:#000000;stroke-width:0"
           d="M 2.5,-6.921875 1.15625,-5.5625 1.328125,-5.390625 2.5,-6.40625 3.640625,-5.390625 3.8125,-5.5625 Z m 0,0"
           id="id-791d7265-a98e-4a6d-b4cf-cd40eec891b6" /></symbol><symbol
         overflow="visible"
         id="id-5684f43f-0247-48f9-939f-1f6cde6e6419"
         style="fill:#000000;fill-opacity:1;stroke-width:0"><path
           style="fill:#000000;fill-opacity:1;stroke:#000000;stroke-width:0"
           d="m 3.296875,2.390625 c 0,-0.03125 0,-0.046875 -0.171875,-0.21875 C 1.890625,0.921875 1.5625,-0.96875 1.5625,-2.5 c 0,-1.734375 0.375,-3.46875 1.609375,-4.703125 0.125,-0.125 0.125,-0.140625 0.125,-0.171875 0,-0.078125 -0.03125,-0.109375 -0.09375,-0.109375 -0.109375,0 -1,0.6875 -1.59375,1.953125 -0.5,1.09375 -0.625,2.203125 -0.625,3.03125 0,0.78125 0.109375,1.984375 0.65625,3.125 C 2.25,1.84375 3.09375,2.5 3.203125,2.5 c 0.0625,0 0.09375,-0.03125 0.09375,-0.109375 z m 0,0"
           id="id-71107169-11d7-4563-9880-4531fdbe231d" /></symbol><symbol
         overflow="visible"
         id="id-eb904d9f-bd20-4da5-a607-494a2d1d1a72"
         style="fill:#000000;fill-opacity:1;stroke-width:0"><path
           style="fill:#000000;fill-opacity:1;stroke:#000000;stroke-width:0"
           d="m 2.875,-2.5 c 0,-0.765625 -0.109375,-1.96875 -0.65625,-3.109375 -0.59375,-1.21875 -1.453125,-1.875 -1.546875,-1.875 -0.0625,0 -0.109375,0.046875 -0.109375,0.109375 0,0.03125 0,0.046875 0.1875,0.234375 0.984375,0.984375 1.546875,2.5625 1.546875,4.640625 0,1.71875 -0.359375,3.46875 -1.59375,4.71875 C 0.5625,2.34375 0.5625,2.359375 0.5625,2.390625 0.5625,2.453125 0.609375,2.5 0.671875,2.5 0.765625,2.5 1.671875,1.8125 2.25,0.546875 2.765625,-0.546875 2.875,-1.65625 2.875,-2.5 Z m 0,0"
           id="id-73eb122b-3c69-40ca-b425-b70d5a1cbf2c" /></symbol><symbol
         overflow="visible"
         id="id-85572e59-2761-4d90-a6ae-0a4d08a4cccd"
         style="fill:#000000;fill-opacity:1;stroke-width:0"><path
           style="fill:#000000;fill-opacity:1;stroke:#000000;stroke-width:0"
           d="m 6.84375,-3.265625 c 0.15625,0 0.34375,0 0.34375,-0.1875 C 7.1875,-3.65625 7,-3.65625 6.859375,-3.65625 h -5.96875 c -0.140625,0 -0.328125,0 -0.328125,0.203125 0,0.1875 0.1875,0.1875 0.328125,0.1875 z m 0.015625,1.9375 c 0.140625,0 0.328125,0 0.328125,-0.203125 0,-0.1875 -0.1875,-0.1875 -0.34375,-0.1875 H 0.890625 c -0.140625,0 -0.328125,0 -0.328125,0.1875 0,0.203125 0.1875,0.203125 0.328125,0.203125 z m 0,0"
           id="id-d610bd68-e9bf-4ba8-b9df-6486125aaa15" /></symbol><symbol
         overflow="visible"
         id="id-28919ab6-563f-4d36-acb4-8401364c3229"
         style="fill:#000000;fill-opacity:1;stroke-width:0"><path
           style="fill:#000000;fill-opacity:1;stroke:#000000;stroke-width:0"
           d="m 2.34375,-2.484375 c 0,-1.25 0.96875,-1.96875 1.3125,-2.21875 0.265625,-0.203125 0.484375,-0.5625 0.484375,-0.984375 0,-0.578125 -0.40625,-1.34375 -1.890625,-1.34375 -1.078125,0 -1.6875,0.6875 -1.6875,1.328125 0,0.34375 0.21875,0.484375 0.453125,0.484375 0.28125,0 0.453125,-0.203125 0.453125,-0.46875 0,-0.4375 -0.40625,-0.4375 -0.546875,-0.4375 0.296875,-0.53125 0.875,-0.6875 1.296875,-0.6875 1.09375,0 1.09375,0.6875 1.09375,1.078125 0,0.578125 -0.15625,0.765625 -0.34375,0.9375 -0.65625,0.71875 -0.875,1.640625 -0.875,2.25 v 0.4375 c 0,0.1875 0,0.25 0.125,0.25 0.125,0 0.125,-0.09375 0.125,-0.28125 z M 2.734375,-0.53125 C 2.734375,-0.8125 2.5,-1.0625 2.21875,-1.0625 c -0.296875,0 -0.53125,0.25 -0.53125,0.53125 C 1.6875,-0.234375 1.921875,0 2.21875,0 2.5,0 2.734375,-0.234375 2.734375,-0.53125 Z m 0,0"
           id="id-c85e584b-e893-4cbf-9b28-f2340f04a153" /></symbol><symbol
         overflow="visible"
         id="id-c346357e-2fc7-44ce-b056-26e91474a902"
         style="fill:#000000;fill-opacity:1;stroke-width:0"><path
           style="fill:#000000;fill-opacity:1;stroke:#000000;stroke-width:0"
           d=""
           id="id-18966f70-6bad-4616-ab63-6f54f2944a33" /></symbol><symbol
         overflow="visible"
         id="id-6014f572-9378-46ed-8706-b354d6a65cb2"
         style="fill:#000000;fill-opacity:1;stroke-width:0"><path
           style="fill:#000000;fill-opacity:1;stroke:#000000;stroke-width:0"
           d="m 5.359375,-5.9375 c -0.140625,0.140625 -0.46875,0.421875 -0.46875,0.59375 0,0.09375 0.09375,0.203125 0.1875,0.203125 0.09375,0 0.140625,-0.078125 0.203125,-0.140625 C 5.390625,-5.421875 5.625,-5.703125 6.0625,-5.921875 6.125,-5.96875 6.234375,-6.015625 6.234375,-6.125 6.234375,-6.234375 6.15625,-6.28125 6.09375,-6.328125 5.875,-6.484375 5.765625,-6.65625 5.6875,-6.890625 5.65625,-6.984375 5.625,-7.125 5.484375,-7.125 c -0.140625,0 -0.203125,0.140625 -0.203125,0.21875 0,0.046875 0.078125,0.359375 0.234375,0.578125 H 2.15625 c -0.15625,0 -0.34375,0 -0.34375,0.203125 0,0.1875 0.1875,0.1875 0.34375,0.1875 z m 0,0"
           id="id-cdb9ccd6-5069-47f5-9d1a-0f8a30e52abb" /></symbol><symbol
         overflow="visible"
         id="id-9a2c00b3-a80a-48c6-b98d-881b4b446621"
         style="fill:#000000;fill-opacity:1;stroke-width:0"><path
           style="fill:#000000;fill-opacity:1;stroke:#000000;stroke-width:0"
           d="M 0.453125,1.21875 C 0.375,1.5625 0.34375,1.625 -0.09375,1.625 c -0.109375,0 -0.21875,0 -0.21875,0.1875 0,0.078125 0.046875,0.125 0.125,0.125 0.265625,0 0.5625,-0.03125 0.828125,-0.03125 0.34375,0 0.671875,0.03125 1,0.03125 0.046875,0 0.171875,0 0.171875,-0.203125 C 1.8125,1.625 1.71875,1.625 1.578125,1.625 c -0.5,0 -0.5,-0.0625 -0.5,-0.15625 0,-0.125 0.421875,-1.75 0.484375,-2 0.125,0.296875 0.40625,0.640625 0.921875,0.640625 1.15625,0 2.40625,-1.453125 2.40625,-2.921875 0,-0.9375 -0.578125,-1.59375 -1.328125,-1.59375 -0.5,0 -0.984375,0.359375 -1.3125,0.75 -0.09375,-0.546875 -0.53125,-0.75 -0.890625,-0.75 -0.46875,0 -0.65625,0.390625 -0.734375,0.5625 C 0.4375,-3.5 0.3125,-2.90625 0.3125,-2.875 c 0,0.109375 0.09375,0.109375 0.109375,0.109375 0.109375,0 0.109375,-0.015625 0.171875,-0.234375 0.171875,-0.703125 0.375,-1.1875 0.734375,-1.1875 0.171875,0 0.3125,0.078125 0.3125,0.453125 0,0.234375 -0.03125,0.34375 -0.078125,0.515625 z m 1.75,-4.328125 C 2.265625,-3.375 2.546875,-3.65625 2.71875,-3.8125 c 0.359375,-0.296875 0.640625,-0.375 0.8125,-0.375 0.390625,0 0.640625,0.34375 0.640625,0.9375 0,0.59375 -0.328125,1.734375 -0.515625,2.109375 -0.34375,0.703125 -0.8125,1.03125 -1.1875,1.03125 C 1.8125,-0.109375 1.6875,-0.9375 1.6875,-1 c 0,-0.015625 0,-0.03125 0.03125,-0.15625 z m 0,0"
           id="id-6950ad6f-c962-42e3-9602-686c624336be" /></symbol><symbol
         overflow="visible"
         id="id-011455c5-86ee-42cc-b6cf-fc9166ea59ca"
         style="fill:#000000;fill-opacity:1;stroke-width:0"><path
           style="fill:#000000;fill-opacity:1;stroke:#000000;stroke-width:0"
           d="m 2.046875,-3.984375 h 0.9375 c 0.203125,0 0.3125,0 0.3125,-0.203125 0,-0.109375 -0.109375,-0.109375 -0.28125,-0.109375 h -0.875 C 2.5,-5.71875 2.546875,-5.90625 2.546875,-5.96875 c 0,-0.171875 -0.125,-0.265625 -0.296875,-0.265625 -0.03125,0 -0.3125,0 -0.390625,0.359375 L 1.46875,-4.296875 h -0.9375 c -0.203125,0 -0.296875,0 -0.296875,0.1875 0,0.125 0.078125,0.125 0.28125,0.125 h 0.875 C 0.671875,-1.15625 0.625,-0.984375 0.625,-0.8125 0.625,-0.265625 1,0.109375 1.546875,0.109375 2.5625,0.109375 3.125,-1.34375 3.125,-1.421875 3.125,-1.53125 3.046875,-1.53125 3.015625,-1.53125 2.921875,-1.53125 2.90625,-1.5 2.859375,-1.390625 2.4375,-0.34375 1.90625,-0.109375 1.5625,-0.109375 c -0.203125,0 -0.3125,-0.125 -0.3125,-0.453125 0,-0.25 0.03125,-0.3125 0.0625,-0.484375 z m 0,0"
           id="id-f95d97aa-5511-4632-8d67-88f3dfb91a7c" /></symbol></g><marker
       style="overflow:visible"
       id="Arrow2Mstart-1-3"
       refX="0"
       refY="0"
       orient="auto"
       inkscape:stockid="Arrow2Mstart"
       inkscape:isstock="true"
       viewBox="0 0 6.9304588 5.1962256"
       markerWidth="5"
       markerHeight="3.7488322"
       preserveAspectRatio="xMidYMid"><path
         transform="scale(0.6)"
         d="M 8.7185878,4.0337352 -2.2072895,0.01601326 8.7185884,-4.0017078 c -1.7454984,2.3720609 -1.7354408,5.6174519 -6e-7,8.035443 z"
         style="fill:context-stroke;fill-rule:evenodd;stroke:context-stroke;stroke-width:0.625;stroke-linejoin:round"
         id="path752666-1-6" /></marker><marker
       style="overflow:visible"
       id="Arrow2Mstart-1-3-6"
       refX="0"
       refY="0"
       orient="auto"
       inkscape:stockid="Arrow2Mstart"
       inkscape:isstock="true"
       viewBox="0 0 6.9304588 5.1962256"
       markerWidth="6.9304585"
       markerHeight="5.1962256"
       preserveAspectRatio="xMidYMid"><path
         transform="scale(0.6)"
         d="M 8.7185878,4.0337352 -2.2072895,0.01601326 8.7185884,-4.0017078 c -1.7454984,2.3720609 -1.7354408,5.6174519 -6e-7,8.035443 z"
         style="fill:context-stroke;fill-rule:evenodd;stroke:context-stroke;stroke-width:0.625;stroke-linejoin:round"
         id="path752666-1-6-2" /></marker><marker
       style="overflow:visible"
       id="Arrow2Mstart-1-6-2"
       refX="3.7903733"
       refY="-0.039309923"
       orient="-65.89431"
       inkscape:stockid="Arrow2Mstart"
       inkscape:isstock="true"
       viewBox="0 0 6.9304588 5.1962256"
       markerWidth="6"
       markerHeight="4.4985986"
       preserveAspectRatio="xMidYMid"><path
         transform="scale(0.6)"
         d="M 8.7185878,4.0337352 -2.2072895,0.01601326 8.7185884,-4.0017078 c -1.7454984,2.3720609 -1.7354408,5.6174519 -6e-7,8.035443 z"
         style="fill:context-stroke;fill-rule:evenodd;stroke:context-stroke;stroke-width:0.625;stroke-linejoin:round"
         id="path752666-1-2-7" /></marker><marker
       style="overflow:visible"
       id="Arrow2Mstart-1-3-6-6"
       refX="0"
       refY="0"
       orient="auto"
       inkscape:stockid="Arrow2Mstart"
       inkscape:isstock="true"
       viewBox="0 0 6.9304588 5.1962256"
       markerWidth="6.9304585"
       markerHeight="5.1962256"
       preserveAspectRatio="xMidYMid"><path
         transform="scale(0.6)"
         d="M 8.7185878,4.0337352 -2.2072895,0.01601326 8.7185884,-4.0017078 c -1.7454984,2.3720609 -1.7354408,5.6174519 -6e-7,8.035443 z"
         style="fill:context-stroke;fill-rule:evenodd;stroke:context-stroke;stroke-width:0.625;stroke-linejoin:round"
         id="path752666-1-6-2-2" /></marker></defs><g
     inkscape:label="Layer 1"
     id="layer1"
     transform="translate(-62.04558,-147.56842)"
     inkscape:groupmode="layer"><g
       id="g798604"
       transform="matrix(0.82290395,0,0,0.82264699,-198.70256,-251.54499)"
       style="stroke-width:1.00007"
       inkscape:label="scheme"><g
         id="g3581"
         inkscape:label="squirmer"
         transform="matrix(0.54459427,-0.26843472,0.26500351,0.55130111,146.25007,301.93232)"
         style="stroke-width:1.64107"><g
           id="g17497"
           inkscape:label="squirmen_info"
           transform="translate(-80.929597,-18.494934)"><path
             style="fill:#ff7d7d;fill-opacity:0.5;stroke:none;stroke-width:4.64897;stroke-linecap:round;stroke-linejoin:bevel;stroke-dasharray:73.062, 18.2656, 9.13274, 18.2656;stroke-dashoffset:0;stroke-opacity:1"
             id="path33719"
             transform="matrix(0.8990848,0.43777451,-0.43755351,0.89919237,0,0)"
             sodipodi:type="arc"
             sodipodi:cx="439.65378"
             sodipodi:cy="408.17596"
             sodipodi:rx="59.372471"
             sodipodi:ry="58.661476"
             sodipodi:start="3.4906585"
             sodipodi:end="5.9341195"
             sodipodi:arc-type="slice"
             d="m 383.86191,388.11256 a 59.372471,58.661476 0 0 1 55.79187,-38.59807 59.372471,58.661476 0 0 1 55.79187,38.59807 l -55.79187,20.0634 z" /><path
             style="fill:#000000;fill-opacity:0.5;stroke:none;stroke-width:4.64897;stroke-linecap:round;stroke-linejoin:bevel;stroke-dasharray:73.062, 18.2656, 9.13274, 18.2656;stroke-dashoffset:0;stroke-opacity:1"
             id="path33721"
             transform="matrix(0.8990848,0.43777451,-0.43755351,0.89919237,0,0)"
             sodipodi:type="arc"
             sodipodi:cx="439.65378"
             sodipodi:cy="408.17596"
             sodipodi:rx="59.372471"
             sodipodi:ry="58.661476"
             sodipodi:start="5.9341195"
             sodipodi:end="3.4906585"
             sodipodi:arc-type="slice"
             d="m 495.44565,388.11256 a 59.372471,58.661476 0 0 1 -20.33709,67.11714 59.372471,58.661476 0 0 1 -70.90956,-10e-6 59.372471,58.661476 0 0 1 -20.33709,-67.11713 l 55.79187,20.0634 z" /><path
             id="path14974"
             style="fill:none;fill-opacity:0.25;stroke:#000000;stroke-width:1.99441;stroke-linecap:round;stroke-linejoin:bevel;stroke-dasharray:5.98323, 5.98323;stroke-dashoffset:0;stroke-opacity:1"
             d="m 160.0945,501.27885 56.5927,58.21908 77.87213,7.84642"
             sodipodi:nodetypes="ccc"
             inkscape:label="threshold_dashed" /><g
             id="g16961"
             inkscape:label="control_direction"
             transform="translate(5.6011204,-11.510557)"><text
               xml:space="preserve"
               style="font-size:21.1076px;line-height:1.25;font-family:'Source Code Pro';-inkscape-font-specification:'Source Code Pro';text-align:start;letter-spacing:0px;word-spacing:0px;text-anchor:start;fill:#000000;fill-opacity:1;stroke:none;stroke-width:4.64806;stroke-linecap:round;stroke-linejoin:round;stroke-miterlimit:4;stroke-dasharray:73.0478, 18.262, 9.13097, 18.262;stroke-dashoffset:0;stroke-opacity:1"
               x="433.43625"
               y="313.93146"
               id="text11288"
               transform="matrix(0.90451697,0.44041948,-0.43492575,0.89379222,0,0)"
               inkscape:label="control_direction"><tspan
                 sodipodi:role="line"
                 id="tspan11286"
                 style="text-align:start;text-anchor:start;fill:#000000;fill-opacity:1;stroke:none;stroke-width:4.64806"
                 x="433.43625"
                 y="313.93146">$\ControlDirection$</tspan></text><path
               style="fill:none;stroke:#000000;stroke-width:3.45109;stroke-linecap:butt;stroke-linejoin:round;stroke-miterlimit:4;stroke-dasharray:none;stroke-dashoffset:0;stroke-opacity:1;marker-start:url(#Arrow2Mstart-1-3-6)"
               d="m 254.79589,484.4862 -28.82387,58.60048"
               id="path11159"
               sodipodi:nodetypes="cc"
               inkscape:label="control_direction" /></g><g
             id="g11001"
             inkscape:label="squirmer"
             transform="matrix(0.88176133,-0.45993683,0.46664365,0.89068706,-209.93968,165.48211)"><g
               id="g4232"
               inkscape:label="leggs"
               transform="matrix(-1,0,0,1,400.4629,3.8991683)"
               style="stroke:#ff7d7d;stroke-width:3.98882;stroke-dasharray:none;stroke-opacity:1"><path
                 style="fill:none;stroke:#ff7d7d;stroke-width:3.98882;stroke-linecap:round;stroke-linejoin:bevel;stroke-dasharray:none;stroke-opacity:1"
                 d="m 190.56972,517.38724 c -0.60749,-7.90977 -11.86805,-10.73276 -17.78403,-5.93885"
                 id="path4222"
                 sodipodi:nodetypes="cc"
                 inkscape:label="legg" /><path
                 style="fill:none;stroke:#ff7d7d;stroke-width:3.98882;stroke-linecap:round;stroke-linejoin:bevel;stroke-dasharray:none;stroke-opacity:1"
                 d="m 181.39129,525.91679 c -1.96321,-7.68616 -13.54187,-8.52256 -18.54187,-2.77915"
                 id="path4224"
                 sodipodi:nodetypes="cc"
                 inkscape:label="legg" /><path
                 style="fill:none;stroke:#ff7d7d;stroke-width:3.98882;stroke-linecap:round;stroke-linejoin:bevel;stroke-dasharray:none;stroke-opacity:1"
                 d="m 177.46225,536.1184 c -3.00903,-5.48863 -12.44463,-4.07329 -15.37893,1.17325"
                 id="path4226"
                 sodipodi:nodetypes="cc"
                 inkscape:label="legg" /><path
                 style="fill:none;stroke:#ff7d7d;stroke-width:3.98882;stroke-linecap:round;stroke-linejoin:bevel;stroke-dasharray:none;stroke-opacity:1"
                 d="m 178.45079,549.27951 c -3.68295,-3.66846 -10.77338,-0.53056 -11.82792,4.22335"
                 id="path4228"
                 sodipodi:nodetypes="cc"
                 inkscape:label="legg" /><path
                 style="fill:none;stroke:#ff7d7d;stroke-width:3.98882;stroke-linecap:round;stroke-linejoin:bevel;stroke-dasharray:none;stroke-opacity:1"
                 d="m 184.52404,560.23762 c -4.82642,-1.92909 -10.11782,3.73974 -9.22342,8.52639"
                 id="path4230"
                 sodipodi:nodetypes="cc"
                 inkscape:label="legg" /></g><g
               id="g4220"
               inkscape:label="leggs"
               transform="translate(6.8133072,2.9691005)"
               style="stroke:#ff7d7d;stroke-width:3.98882;stroke-dasharray:none;stroke-opacity:1"><path
                 style="fill:none;stroke:#ff7d7d;stroke-width:3.98882;stroke-linecap:round;stroke-linejoin:bevel;stroke-dasharray:none;stroke-opacity:1"
                 d="m 190.56972,517.38724 c -0.60749,-7.90977 -11.86805,-10.73276 -17.78403,-5.93885"
                 id="path4018"
                 sodipodi:nodetypes="cc"
                 inkscape:label="legg" /><path
                 style="fill:none;stroke:#ff7d7d;stroke-width:3.98882;stroke-linecap:round;stroke-linejoin:bevel;stroke-dasharray:none;stroke-opacity:1"
                 d="m 181.39129,525.91679 c -1.96321,-7.68616 -13.54187,-8.52256 -18.54187,-2.77915"
                 id="path4203"
                 sodipodi:nodetypes="cc"
                 inkscape:label="legg" /><path
                 style="fill:none;stroke:#ff7d7d;stroke-width:3.98882;stroke-linecap:round;stroke-linejoin:bevel;stroke-dasharray:none;stroke-opacity:1"
                 d="m 177.46225,536.1184 c -3.00903,-5.48863 -12.44463,-4.07329 -15.37893,1.17325"
                 id="path4205"
                 sodipodi:nodetypes="cc"
                 inkscape:label="legg" /><path
                 style="fill:none;stroke:#ff7d7d;stroke-width:3.98882;stroke-linecap:round;stroke-linejoin:bevel;stroke-dasharray:none;stroke-opacity:1"
                 d="m 178.45079,549.27951 c -3.68295,-3.66846 -10.77338,-0.53056 -11.82792,4.22335"
                 id="path4211"
                 sodipodi:nodetypes="cc"
                 inkscape:label="legg" /><path
                 style="fill:none;stroke:#ff7d7d;stroke-width:3.98882;stroke-linecap:round;stroke-linejoin:bevel;stroke-dasharray:none;stroke-opacity:1"
                 d="m 184.52404,560.23762 c -4.82642,-1.92909 -10.11782,3.73974 -9.22342,8.52639"
                 id="path4213"
                 sodipodi:nodetypes="cc"
                 inkscape:label="legg" /></g><path
               style="fill:none;stroke:#ff7d7d;stroke-width:3.45109;stroke-linecap:butt;stroke-linejoin:round;stroke-miterlimit:4;stroke-dasharray:none;stroke-dashoffset:0;stroke-opacity:1;marker-start:url(#Arrow2Mstart-1-3)"
               d="m 204.80062,450.73766 -1.02814,64.83025"
               id="path577394-5"
               sodipodi:nodetypes="cc"
               inkscape:label="swimming_direction" /><ellipse
               style="fill:#ff7d7d;fill-opacity:1;stroke:none;stroke-width:0.703581;stroke-linecap:round;stroke-linejoin:round"
               id="path2779"
               cx="203.3745"
               cy="541.71655"
               rx="28.988302"
               ry="28.997355"
               inkscape:label="body" /></g><text
             xml:space="preserve"
             style="font-size:21.1076px;line-height:1.25;font-family:'Source Code Pro';-inkscape-font-specification:'Source Code Pro';text-align:start;letter-spacing:0px;word-spacing:0px;text-anchor:start;fill:#ff7d7d;fill-opacity:1;stroke:none;stroke-width:4.64806;stroke-linecap:round;stroke-linejoin:round;stroke-miterlimit:4;stroke-dasharray:73.0478, 18.262, 9.13097, 18.262;stroke-dashoffset:0;stroke-opacity:1"
             x="388.94318"
             y="344.21359"
             id="text34588-3"
             transform="matrix(0.90451697,0.44041948,-0.43492575,0.89379222,0,0)"
             inkscape:label="swimming_direction"><tspan
               sodipodi:role="line"
               id="tspan34586-5"
               style="text-align:start;text-anchor:start;fill:#ff7d7d;fill-opacity:1;stroke:none;stroke-width:4.64806"
               x="388.94318"
               y="344.21359">$\SwimmingDirection$</tspan></text><text
             xml:space="preserve"
             style="font-size:21.1076px;line-height:1.25;font-family:'Source Code Pro';-inkscape-font-specification:'Source Code Pro';text-align:center;letter-spacing:0px;word-spacing:0px;text-anchor:middle;fill:#000000;fill-opacity:1;stroke:none;stroke-width:4.64806;stroke-linecap:round;stroke-linejoin:round;stroke-miterlimit:4;stroke-dasharray:73.0478, 18.262, 9.13097, 18.262;stroke-dashoffset:0;stroke-opacity:1"
             x="440.25644"
             y="486.99249"
             id="text33777"
             transform="matrix(0.90451697,0.44041948,-0.43492575,0.89379222,0,0)"
             inkscape:label="swimming_direction"><tspan
               sodipodi:role="line"
               id="tspan33775"
               style="text-align:center;text-anchor:middle;fill:#000000;fill-opacity:1;stroke:none;stroke-width:4.64806"
               x="440.25644"
               y="486.99249">waiting</tspan></text><text
             xml:space="preserve"
             style="font-size:21.1076px;line-height:1.25;font-family:'Source Code Pro';-inkscape-font-specification:'Source Code Pro';text-align:start;letter-spacing:0px;word-spacing:0px;text-anchor:start;fill:#ff7d7d;fill-opacity:1;stroke:none;stroke-width:4.64806;stroke-linecap:round;stroke-linejoin:round;stroke-miterlimit:4;stroke-dasharray:73.0478, 18.262, 9.13097, 18.262;stroke-dashoffset:0;stroke-opacity:1"
             x="450.04767"
             y="348.55182"
             id="text33921"
             transform="matrix(0.90451697,0.44041948,-0.43492575,0.89379222,0,0)"
             inkscape:label="swimming_direction"><tspan
               sodipodi:role="line"
               id="tspan33919"
               style="text-align:start;text-anchor:start;fill:#ff7d7d;fill-opacity:1;stroke:none;stroke-width:4.64806"
               x="450.04767"
               y="348.55182">swimming</tspan></text></g></g></g></g></svg>
