<?xml version="1.0" encoding="UTF-8" standalone="no"?>
<!-- Created with Inkscape (http://www.inkscape.org/) -->

<svg
   width="309.97052mm"
   height="235.78102mm"
   viewBox="0 0 309.97053 235.78103"
   version="1.1"
   id="svg5"
   inkscape:version="1.2.1 (9c6d41e410, 2022-07-14)"
   sodipodi:docname="rl_mountain.svg"
   xmlns:inkscape="http://www.inkscape.org/namespaces/inkscape"
   xmlns:sodipodi="http://sodipodi.sourceforge.net/DTD/sodipodi-0.dtd"
   xmlns="http://www.w3.org/2000/svg"
   xmlns:svg="http://www.w3.org/2000/svg">
  <sodipodi:namedview
     id="namedview7"
     pagecolor="#ffffff"
     bordercolor="#666666"
     borderopacity="1.0"
     inkscape:pageshadow="2"
     inkscape:pageopacity="0"
     inkscape:pagecheckerboard="false"
     inkscape:document-units="mm"
     showgrid="false"
     inkscape:zoom="0.61244063"
     inkscape:cx="727.41744"
     inkscape:cy="398.40596"
     inkscape:window-width="1916"
     inkscape:window-height="1037"
     inkscape:window-x="0"
     inkscape:window-y="20"
     inkscape:window-maximized="1"
     inkscape:current-layer="layer1"
     inkscape:showpageshadow="2"
     inkscape:deskcolor="#ffffff"
     showguides="false" />
  <defs
     id="defs2">
    <marker
       style="overflow:visible"
       id="Arrow2"
       refX="0"
       refY="0"
       orient="auto-start-reverse"
       inkscape:stockid="Arrow2"
       markerWidth="5"
       markerHeight="3.6363637"
       viewBox="0 0 7.7 5.6"
       inkscape:isstock="true"
       inkscape:collect="always"
       preserveAspectRatio="xMidYMid">
      <path
         transform="scale(0.7)"
         d="M -2,-4 9,0 -2,4 c 2,-2.33 2,-5.66 0,-8 z"
         style="fill:context-stroke;fill-rule:evenodd;stroke:none"
         id="arrow2L" />
    </marker>
    <marker
       style="overflow:visible"
       id="marker9741-47-2"
       refX="2.2179856"
       refY="0.040954135"
       orient="auto"
       inkscape:stockid="Arrow2Mstart"
       inkscape:isstock="true"
       viewBox="0 0 6.9304588 5.1962256"
       markerWidth="5"
       markerHeight="3.7488322"
       preserveAspectRatio="xMidYMid">
      <path
         transform="scale(0.6)"
         d="M 8.7185878,4.0337352 -2.2072895,0.01601326 8.7185884,-4.0017078 c -1.7454984,2.3720609 -1.7354408,5.6174519 -6e-7,8.035443 z"
         style="fill:context-stroke;fill-rule:evenodd;stroke:context-stroke;stroke-width:0.625;stroke-linejoin:round"
         id="path9739-75-1" />
    </marker>
    <marker
       style="overflow:visible"
       id="marker2944"
       refX="2.2179856"
       refY="0.040954135"
       orient="auto"
       inkscape:stockid="Arrow2Mstart"
       inkscape:isstock="true"
       viewBox="0 0 6.9304588 5.1962256"
       markerWidth="5"
       markerHeight="3.7488322"
       preserveAspectRatio="xMidYMid">
      <path
         transform="scale(0.6)"
         d="M 8.7185878,4.0337352 -2.2072895,0.01601326 8.7185884,-4.0017078 c -1.7454984,2.3720609 -1.7354408,5.6174519 -6e-7,8.035443 z"
         style="fill:context-stroke;fill-rule:evenodd;stroke:context-stroke;stroke-width:0.625;stroke-linejoin:round"
         id="path2942" />
    </marker>
    <marker
       style="overflow:visible"
       id="marker9741"
       refX="2.2179856"
       refY="0.040954135"
       orient="auto"
       inkscape:stockid="Arrow2Mstart"
       inkscape:isstock="true"
       viewBox="0 0 6.9304588 5.1962256"
       markerWidth="5"
       markerHeight="3.7488322"
       preserveAspectRatio="xMidYMid">
      <path
         transform="scale(0.6)"
         d="M 8.7185878,4.0337352 -2.2072895,0.01601326 8.7185884,-4.0017078 c -1.7454984,2.3720609 -1.7354408,5.6174519 -6e-7,8.035443 z"
         style="fill:context-stroke;fill-rule:evenodd;stroke:context-stroke;stroke-width:0.625;stroke-linejoin:round"
         id="path9739" />
    </marker>
    <marker
       style="overflow:visible"
       id="marker2950"
       refX="2.2179856"
       refY="0.040954135"
       orient="auto"
       inkscape:stockid="Arrow2Mstart"
       inkscape:isstock="true"
       viewBox="0 0 6.9304588 5.1962256"
       markerWidth="5"
       markerHeight="3.7488322"
       preserveAspectRatio="xMidYMid">
      <path
         transform="scale(0.6)"
         d="M 8.7185878,4.0337352 -2.2072895,0.01601326 8.7185884,-4.0017078 c -1.7454984,2.3720609 -1.7354408,5.6174519 -6e-7,8.035443 z"
         style="fill:context-stroke;fill-rule:evenodd;stroke:context-stroke;stroke-width:0.625;stroke-linejoin:round"
         id="path2948" />
    </marker>
    <marker
       style="overflow:visible"
       id="marker2954"
       refX="2.2179856"
       refY="0.040954135"
       orient="auto"
       inkscape:stockid="Arrow2Mstart"
       inkscape:isstock="true"
       viewBox="0 0 6.9304588 5.1962256"
       markerWidth="5"
       markerHeight="3.7488322"
       preserveAspectRatio="xMidYMid">
      <path
         transform="scale(0.6)"
         d="M 8.7185878,4.0337352 -2.2072895,0.01601326 8.7185884,-4.0017078 c -1.7454984,2.3720609 -1.7354408,5.6174519 -6e-7,8.035443 z"
         style="fill:context-stroke;fill-rule:evenodd;stroke:context-stroke;stroke-width:0.625;stroke-linejoin:round"
         id="path2952" />
    </marker>
  </defs>
  <g
     inkscape:label="Layer 1"
     inkscape:groupmode="layer"
     id="layer1"
     transform="translate(45.207999,-18.501964)">
    <path
       style="fill:#b39680;fill-opacity:1;stroke:none;stroke-width:0.264583px;stroke-linecap:butt;stroke-linejoin:miter;stroke-opacity:1"
       d="m -14.292197,197.28382 c -6.702701,-6.14374 -12.423585,-13.88453 -15.51432,-22.4355 -3.610076,-9.9878 -4.836856,-21.30824 -2.821408,-31.73546 0.496762,-2.57007 1.298599,-5.68154 3.560236,-6.99951 21.2150204,-12.36307 51.710547,-7.83481 73.588934,3.31233 13.57321,6.91561 23.66409,21.28015 28.498477,35.72613 3.136988,9.37386 6.301,22.78149 -0.814136,29.64333 -17.867804,17.23171 -50.499698,5.80922 -74.4666711,-0.6541 -4.4568074,-1.20189 -8.6282879,-3.73817 -12.0311119,-6.85722 z"
       id="path4404"
       sodipodi:nodetypes="aaaaaaaaa" />
    <g
       id="g2126"
       style="stroke:#000000;stroke-width:0.5;stroke-dasharray:none">
      <path
         id="path1068"
         style="fill:#dbae8a;fill-opacity:1;stroke:none;stroke-width:0.5;stroke-linecap:round;stroke-linejoin:bevel;stroke-dasharray:none;stroke-opacity:1"
         d="m -19.23136,139.99759 c 2.063119,0.3618 4.185863,-0.31279 6.27921,-0.2403 15.1764878,0.52554 31.387434,-1.21321 45.29387,4.88704 11.571827,5.07614 22.148869,14.06236 28.51764,24.97626 2.398099,4.10952 3.200377,9.22648 2.90525,13.97537 -0.275913,4.43972 -0.810453,9.88642 -4.31291,12.62869 -15.159221,11.86899 -38.305237,5.81653 -57.54119,5.00848 -7.1450319,-0.30014 -14.867018,-7.07671 -21.14187,-3.64629 -8.405873,4.59544 -14.524112,17.50202 -11.176179,26.47799 4.78114,12.81847 23.5300357,14.89551 36.8245947,18.12464 20.0565183,4.87155 41.4745873,4.10046 61.9076253,1.18723 4.180181,-0.59599 8.079835,-2.45833 12.092516,-3.77268 21.461793,-7.02978 56.135963,-0.85632 64.081203,-21.99632 7.21144,-19.18756 -15.86465,-39.09788 -30.61533,-53.3311 -22.03566,-21.26265 -51.381585,-36.12114 -81.251716,-42.86248 -20.0886,-4.53376 -44.477752,-8.6858 -61.728405,2.56239 -3.117383,2.03267 -6.249187,6.54332 -4.923075,10.02057 1.89567,4.97071 9.548811,5.0816 14.788766,6.00051 z"
         sodipodi:nodetypes="aaaaaaaaaaaaaaaaaa" />
      <path
         id="path1066"
         style="fill:#e1bb9d;fill-opacity:1;stroke:none;stroke-width:0.5;stroke-linecap:round;stroke-linejoin:bevel;stroke-dasharray:none;stroke-opacity:1"
         d="m -19.23136,134.02845 c 12.5544878,0.75837 25.1437036,0.78075 37.71966,0.96945 9.825949,0.14744 20.076291,-2.72323 29.48089,0.12712 17.214705,5.21745 32.155292,17.18523 45.01276,29.76511 12.66118,12.38783 26.85602,26.2943 30.27102,43.67537 0.49798,2.53452 0.16333,5.75235 -1.67638,7.56543 -10.15464,10.00768 -31.21342,-0.8061 -41.88944,8.6434 -4.92246,4.35694 -10.013695,13.26229 -6.301222,18.68733 4.067978,5.94454 14.429244,1.78345 21.587391,0.97912 23.349381,-2.62366 48.154451,-6.08689 67.951781,-18.74164 8.75291,-5.59499 19.3312,-13.43077 20.13423,-23.78802 1.36893,-17.65616 -14.28658,-33.75151 -27.66231,-45.35771 -29.1111,-25.25987 -68.578319,-37.39456 -106.217752,-45.68855 -26.59824,-5.86102 -62.30524,-21.39609 -81.677979,-2.25151 -5.735426,5.66788 -5.091319,18.26433 0.38006,24.1875 2.928029,3.16981 8.579933,0.96741 12.887291,1.2276 z"
         sodipodi:nodetypes="aaaaaaaaaaaaaaaa" />
      <path
         id="path1064"
         style="fill:#e7c9b1;fill-opacity:1;stroke:none;stroke-width:0.5;stroke-linecap:round;stroke-linejoin:bevel;stroke-dasharray:none;stroke-opacity:1"
         d="m -19.23136,127.96267 c 6.662738,0.4862 13.3588172,0.49101 20.03806,0.3638 20.549822,-0.39138 41.848761,-9.27893 61.56316,-3.46594 7.597731,2.24027 12.84017,9.28002 19.20555,13.99449 15.482503,11.46701 31.27418,22.55222 46.17858,34.76119 11.2065,9.17983 24.76431,16.62338 32.46106,28.89591 1.79003,2.85422 2.83458,6.35408 2.76263,9.72241 -0.0298,1.39569 -0.25698,3.06606 -1.31569,3.97598 -18.06273,15.52417 -48.33157,3.13122 -70.43756,11.99617 -3.929641,1.57586 -11.752514,3.05756 -10.525297,7.10964 7.266074,23.99147 50.963887,6.84222 75.201587,0.44532 16.22679,-4.28263 33.88058,-11.45254 43.64218,-25.10394 10.17558,-14.23035 18.51246,-36.19815 10.05253,-51.51072 -14.52242,-26.28574 -55.59218,-22.84271 -84.04175,-32.45848 -29.028577,-9.81147 -57.814875,-22.23878 -88.261042,-25.69625 -21.056998,-2.391236 -46.9767753,-9.671651 -63.473192,3.63186 -5.836833,4.70711 -10.162652,15.4303 -6.013839,21.67632 2.410373,3.62881 8.618195,1.34519 12.963033,1.66224 z"
         sodipodi:nodetypes="aaaaaaaaaaaaaaaaaa" />
      <path
         id="path1062"
         style="fill:#edd7c5;fill-opacity:1;stroke:none;stroke-width:0.5;stroke-linecap:round;stroke-linejoin:bevel;stroke-dasharray:none;stroke-opacity:1"
         d="m 123.74523,233.30314 c 20.21571,-4.78376 40.19073,-11.37354 58.85708,-20.49092 4.4685,-2.18259 10.22486,-3.69095 12.53065,-8.09713 4.38534,-8.38002 6.13658,-22.07524 -0.93238,-28.359 -5.8013,-5.1569 -15.62222,3.63658 -23.20272,1.96784 -14.5399,-3.20075 -25.99179,-14.5333 -38.80538,-22.11389 -18.16236,-10.74495 -33.67584,-27.28149 -53.95588,-33.11633 -24.291758,-6.98907 -50.627114,1.21938 -75.82793,-0.74414 -7.2685639,-0.56633 -16.502417,1.99727 -21.64003,-3.17551 -12.079901,-12.1626 -13.281197,-34.934935 -7.119169,-50.931253 6.771417,-17.578262 25.76045471,-29.511535 43.349207,-36.255655 33.936225,-13.012292 72.65773,-2.266237 108.966432,-3.898808 26.53515,-1.193117 55.79691,-16.158614 79.56929,-4.309071 16.21056,8.08029 24.18979,28.050136 30.31601,45.095453 13.85848,38.559224 28.79924,84.935204 12.05097,122.329944 -9.05814,20.2246 -32.88909,31.58029 -53.702,39.18997 -33.02444,12.0745 -101.708728,42.43006 -105.224789,7.44372 -1.168773,-11.62981 23.396379,-1.84366 34.770639,-4.53522 z"
         sodipodi:nodetypes="aaaaaaaaaaaaaaaaaa" />
      <path
         style="fill:#ebe4df;fill-opacity:1;stroke:none;stroke-width:0.5;stroke-linecap:round;stroke-linejoin:bevel;stroke-dasharray:none;stroke-opacity:1"
         d="m 213.2522,57.49876 c -4.69815,-8.54149 -9.40812,-18.8704 -18.33733,-22.78179 -15.33118,-6.71574 -33.8536,-0.65088 -50.09895,3.37841 C 128.63466,42.10877 115.59583,55.8547 99.12588,58.43956 80.02887,61.43672 60.56123,49.18824 41.46871,52.21386 25.82432,54.69305 6.38192,58.1601 -1.88351,71.67217 c -5.01097,8.19178 -4.53786,21.27733 1.46684,28.77124 8.11776,10.13104 24.81299,7.79522 37.52817,10.41441 12.71583,2.61933 25.87472,2.64746 38.59088,5.26517 9.99398,2.05733 20.52092,3.32773 29.49801,8.17791 7.96692,4.3044 13.13394,12.53974 20.41893,17.91828 8.79605,6.49416 17.54532,13.785 27.93468,17.19172 9.30187,3.05013 19.60737,3.98266 29.2688,2.4063 11.29873,-1.84351 23.93071,-5.01203 31.55926,-13.54814 6.66202,-7.45459 7.65197,-18.76645 8.67219,-28.71193 1.53856,-14.99842 -0.89478,-30.30208 -4.01488,-45.05283 -1.23912,-5.85815 -2.9014,-11.75905 -5.78717,-17.00554 z"
         id="path1008"
         sodipodi:nodetypes="aaaaaaaaaaaaaaaaa" />
      <path
         style="fill:#f2f2f2;fill-opacity:1;stroke:none;stroke-width:0.5;stroke-linecap:round;stroke-linejoin:bevel;stroke-dasharray:none;stroke-opacity:1"
         d="m 132.60618,121.99314 c 5.97755,4.81654 4.60757,15.51652 10.40988,20.54279 5.91952,5.12782 14.45903,6.80842 22.25804,7.52312 8.0314,0.736 16.44186,-0.50113 23.94759,-3.45223 5.33815,-2.09885 9.84849,-5.99986 14.14317,-9.80208 5.1088,-4.52301 11.96293,-8.66642 13.61325,-15.28714 3.09517,-12.41719 -2.29833,-26.45253 -9.08729,-37.30042 -10.40204,-16.62115 -25.76303,-36.03909 -45.31591,-37.50539 -12.46735,-0.93495 -20.67564,14.34488 -32.13793,19.33735 -8.55392,3.72571 -17.62861,6.69675 -26.90106,7.73224 -17.7139,1.97818 -41.20543,-16.08561 -53.38378,-3.07088 -4.47021,4.77721 -2.0678,14.72068 2.42437,19.47724 11.16815,11.82545 33.93982,0.60505 47.99965,8.78368 7.06543,4.10998 8.852,14.41794 15.76114,18.78555 4.73671,2.99432 11.90537,0.72019 16.26888,4.23617 z"
         id="path354"
         sodipodi:nodetypes="aaaaaaaaaaaaaaa" />
      <path
         style="fill:#fafafa;fill-opacity:1;stroke:none;stroke-width:0.5;stroke-linecap:round;stroke-linejoin:bevel;stroke-dasharray:none;stroke-opacity:1"
         d="m 139.69102,121.4484 c 4.19942,6.8784 13.42582,9.73255 21.3037,11.43153 11.38428,2.45519 24.82979,3.55887 34.85809,-2.36254 3.56557,-2.10536 6.21249,-6.3375 6.72126,-10.44688 1.03735,-8.37885 -3.11911,-17.17971 -8.09588,-23.999755 -6.14897,-8.4264 -15.3361,-15.1424 -25.18772,-18.57164 -4.19886,-1.46157 -9.26883,-2.27086 -13.32991,-0.46139 -3.91945,1.74637 -6.07134,6.17952 -8.27193,9.86317 -3.80883,6.37574 -6.91216,13.392215 -8.2461,20.698235 -0.82929,4.54208 -2.15744,9.90849 0.24849,13.84927 z"
         id="path352"
         sodipodi:nodetypes="aaaaaaaaaa" />
      <path
         style="fill:#ffffff;stroke:none;stroke-width:0.5;stroke-linecap:round;stroke-linejoin:bevel;stroke-dasharray:none;stroke-opacity:1"
         d="m 151.93032,112.35846 c 2.19181,6.87929 7.76729,15.27085 14.9775,15.64712 8.61864,0.44978 18.85029,-8.15542 19.75278,-16.73847 0.74884,-7.12166 -6.54647,-14.205691 -13.14234,-16.993738 -5.94438,-2.512668 -14.59783,-2.308364 -19.23809,2.17685 -3.85414,3.725358 -3.97709,10.800918 -2.34985,15.908238 z"
         id="path242"
         sodipodi:nodetypes="aaaaaa" />
    </g>
    <path
       style="fill:#ccffff;fill-opacity:0.5;stroke:none;stroke-width:0.5;stroke-linecap:butt;stroke-linejoin:miter;stroke-dasharray:none;stroke-opacity:1"
       d="m 172.8395,139.85995 c 7.63698,11.59199 8.45828,29.58274 1.5379,41.61629 -5.9175,10.28968 -20.38497,12.38427 -31.41868,16.76054 -14.60811,5.79397 -29.91002,14.34842 -45.498139,12.35406 -20.02485,-2.56201 -33.68931,-22.9265 -52.56975,-30.07407 -16.82347,-6.36886 -37.1376005,-2.17401 -52.8451905,-10.94117 -9.0037595,-5.02542 -20.9174095,-12.18378 -21.2391295,-22.49004 -0.39435,-12.63263 13.36767,-22.73152 24.2632195,-29.13666 12.05559,-7.08709 27.4547405,-10.21203 41.2258405,-7.77871 13.34388,2.35783 21.441,19.64721 34.94495,20.77061 10.32561,0.85899 18.86765,-8.97835 28.977179,-11.24847 8.51923,-1.91301 17.54574,-3.48223 26.12721,-1.87122 16.85668,3.16452 37.05884,7.71653 46.49459,22.03884 z"
       id="path452"
       sodipodi:nodetypes="aaaaaaaaaaaaa" />
    <path
       style="fill:#d4d9f7;fill-opacity:1;stroke:none;stroke-width:0.264583px;stroke-linecap:butt;stroke-linejoin:miter;stroke-opacity:1"
       d="m -17.869654,196.93454 c -5.251328,-3.58588 -13.252002,-5.19729 -15.475318,-11.1548 -2.555556,-6.84776 -0.426814,-16.48753 5.038679,-21.34048 3.884383,-3.44904 10.29431,-1.98698 15.484054,-1.76147 19.7051821,0.85626 40.767932,2.14955 57.990362,11.76284 4.555753,2.54295 6.755769,8.00851 10.700215,11.4236 3.040788,2.6327 10.004028,2.88288 9.896382,6.90357 -0.178388,6.66296 -10.668695,8.42861 -16.988623,10.54646 -11.255986,3.77196 -23.627961,4.12996 -35.465789,3.24071 -9.0016261,-0.6762 -18.0095833,-2.88904 -26.2978,-6.46563 -1.779016,-0.76769 -3.282044,-2.06215 -4.882162,-3.1548 z"
       id="path4206"
       sodipodi:nodetypes="aaaaaaaaaaa" />
    <path
       style="fill:#dbae8a;fill-opacity:1;stroke:none;stroke-width:0.264583px;stroke-linecap:butt;stroke-linejoin:miter;stroke-opacity:1"
       d="m 66.170099,193.62203 c 0,0 -3.567593,-1.19417 -5.390094,-1.03445 -7.879616,0.69056 -14.280366,7.90681 -22.170967,8.45785 -10.426692,0.72814 -20.11967,-7.34561 -30.5658989,-6.99576 -3.2171182,0.10774 -6.03964,2.52037 -9.2481171,2.77947 -4.4192057,0.35687 -8.839536,-2.60355 -13.187166,-1.73473 -2.018559,0.40338 -5.34288,3.09666 -5.34288,3.09666 l 42.72346,24.70178 49.033946,-20.57998 z"
       id="path4260"
       sodipodi:nodetypes="caaaaac" />
    <g
       id="g1485"
       transform="translate(5.5453536,7.1030733)">
      <g
         id="g1834"
         transform="matrix(1.2745228,0,0,1.2745228,0.23277144,-65.383539)"
         style="stroke-width:0.784607">
        <rect
           style="fill:#ff9999;fill-opacity:1;stroke:none;stroke-width:1.56921;stroke-linecap:round;stroke-linejoin:bevel;stroke-dasharray:none;stroke-opacity:1"
           id="rect1150"
           width="16.58329"
           height="10.636883"
           x="-5.4509044"
           y="212.55016" />
        <path
           id="path1480"
           style="fill:#ff7d7d;fill-opacity:1;stroke:none;stroke-width:1.56921;stroke-linecap:round;stroke-linejoin:bevel;stroke-dasharray:none;stroke-opacity:1"
           inkscape:transform-center-y="-1.6352595"
           d="M 84.441814,665.81967 51.953892,698.54659 H 114.63089 Z"
           sodipodi:nodetypes="cccc"
           transform="matrix(0.26458333,0,0,0.26458333,-19.197038,27.726373)" />
      </g>
    </g>
    <rect
       style="fill:#9f7c60;fill-opacity:1;stroke:none;stroke-width:2;stroke-linecap:round;stroke-linejoin:bevel;stroke-dasharray:none;stroke-opacity:1"
       id="rect4840"
       width="2.8723655"
       height="7.612309"
       x="89.625389"
       y="218.06219"
       ry="0.82080215"
       rx="1.4361827" />
    <rect
       style="fill:#9f7c60;fill-opacity:1;stroke:none;stroke-width:2;stroke-linecap:round;stroke-linejoin:bevel;stroke-dasharray:none;stroke-opacity:1"
       id="rect4911"
       width="2.8723655"
       height="7.612309"
       x="100.06874"
       y="218.957"
       ry="0.82080215"
       rx="1.4361827" />
    <rect
       style="fill:#9f7c60;fill-opacity:1;stroke:none;stroke-width:2;stroke-linecap:round;stroke-linejoin:bevel;stroke-dasharray:none;stroke-opacity:1"
       id="rect4913"
       width="2.8723655"
       height="7.612309"
       x="113.86275"
       y="221.3849"
       ry="0.82080215"
       rx="1.4361827" />
    <rect
       style="fill:#9f7c60;fill-opacity:1;stroke:none;stroke-width:2;stroke-linecap:round;stroke-linejoin:bevel;stroke-dasharray:none;stroke-opacity:1"
       id="rect4915"
       width="2.8723655"
       height="7.612309"
       x="129.26691"
       y="217.33897"
       ry="0.82080215"
       rx="1.4361827" />
    <rect
       style="fill:#9f7c60;fill-opacity:1;stroke:none;stroke-width:2;stroke-linecap:round;stroke-linejoin:bevel;stroke-dasharray:none;stroke-opacity:1"
       id="rect4917"
       width="2.8723655"
       height="7.612309"
       x="142.82045"
       y="214.02827"
       ry="0.82080215"
       rx="1.4361827" />
    <rect
       style="fill:#9f7c60;fill-opacity:1;stroke:none;stroke-width:2;stroke-linecap:round;stroke-linejoin:bevel;stroke-dasharray:none;stroke-opacity:1"
       id="rect4919"
       width="2.8723655"
       height="7.612309"
       x="153.19875"
       y="211.64761"
       ry="0.82080215"
       rx="1.4361827" />
    <rect
       style="fill:#9f7c60;fill-opacity:1;stroke:none;stroke-width:2;stroke-linecap:round;stroke-linejoin:bevel;stroke-dasharray:none;stroke-opacity:1"
       id="rect4921"
       width="2.8723655"
       height="7.612309"
       x="163.56844"
       y="215.58496"
       ry="0.82080215"
       rx="1.4361827" />
    <path
       style="fill:#9efa9e;fill-opacity:1;stroke:none;stroke-width:0.264583px;stroke-linecap:butt;stroke-linejoin:miter;stroke-opacity:1"
       d="m 88.432897,198.22464 c -3.16552,4.46588 -8.14488,9.97348 -6.34967,15.14473 2.33317,6.72086 11.81553,8.44283 18.673453,10.33561 7.6724,2.11756 16.03399,2.21401 23.86472,0.7894 6.95519,-1.26532 12.64914,-6.78699 19.5914,-8.12149 8.2727,-1.59024 18.43508,5.25662 25.2703,0.33256 7.98646,-5.75339 12.12572,-18.80238 8.98201,-28.12988 -2.10655,-6.25021 -9.83545,-9.63219 -16.2006,-11.36065 -8.55352,-2.32272 -17.73868,0.83154 -26.50214,2.15805 -11.85839,1.79498 -24.46406,2.31897 -35.11943,7.8241 -4.872373,2.51733 -9.038613,6.55333 -12.210033,11.02759 z"
       id="path4786"
       sodipodi:nodetypes="aaaaaaaaaaaa" />
    <g
       id="g5301"
       transform="translate(-1.045935,13.618433)">
      <path
         style="fill:#ff7d7d;fill-opacity:1;stroke:none;stroke-width:0.264583px;stroke-linecap:butt;stroke-linejoin:miter;stroke-opacity:1"
         d="m 164.3783,77.216582 c 0,0 3.53952,-1.48487 5.36719,-1.279359 0.9634,0.108328 1.64041,1.238677 2.60873,1.28583 1.44122,0.07018 2.81037,-2.265413 4.05034,-1.527489 2.63292,1.566892 2.65126,6.380963 1.25098,9.106148 -0.569,1.107378 -2.06113,1.674173 -3.30434,1.74121 -0.89072,0.04803 -1.59596,-0.973064 -2.48789,-0.985716 -2.01593,-0.0286 -5.68406,2.06752 -5.68406,2.06752"
         id="path5018"
         sodipodi:nodetypes="caaaaaac" />
      <rect
         style="fill:#1a1a1a;fill-opacity:1;stroke:none;stroke-width:2;stroke-linecap:round;stroke-linejoin:bevel;stroke-dasharray:none;stroke-opacity:1"
         id="rect4921-7"
         width="1.051712"
         height="23.460548"
         x="152.38983"
         y="97.09623"
         ry="0.29592237"
         rx="0.45187789"
         transform="rotate(-7.482606)" />
      <path
         style="fill:#000000;fill-opacity:0.1;stroke:none;stroke-width:0.264583px;stroke-linecap:butt;stroke-linejoin:miter;stroke-opacity:1"
         d="m 171.68666,84.987244 c -0.37588,0.380976 -1.1772,0.127098 -1.59157,-0.211621 -0.93112,-0.761129 -1.22192,-2.208558 -1.17736,-3.410352 0.0506,-1.365046 0.31155,-3.373421 1.62053,-3.763921 0.29977,-0.08943 0.6319,0.243692 0.78272,0.517753 0.8131,1.47745 -0.0391,3.377593 0.1002,5.058235 0.0504,0.607673 0.69374,1.375852 0.26548,1.809906 z"
         id="path5158"
         sodipodi:nodetypes="aaaaaaa" />
    </g>
    <g
       id="g5329"
       transform="translate(-7.5175307)"
       style="stroke:#3376ff;stroke-width:1;stroke-linecap:round;stroke-linejoin:bevel;stroke-dasharray:none;stroke-opacity:1">
      <path
         style="fill:none;stroke:#3376ff;stroke-width:1;stroke-linecap:round;stroke-linejoin:bevel;stroke-dasharray:none;stroke-opacity:1"
         d="M -9.0875336,18.751964 V 254.03298"
         id="path5303" />
      <path
         style="fill:none;stroke:#3376ff;stroke-width:1;stroke-linecap:round;stroke-linejoin:bevel;stroke-dasharray:none;stroke-opacity:1"
         d="M 41.841387,18.751964 V 254.03298"
         id="path5305" />
      <path
         style="fill:none;stroke:#3376ff;stroke-width:1;stroke-linecap:round;stroke-linejoin:bevel;stroke-dasharray:none;stroke-opacity:1"
         d="M 93.270307,18.751964 V 254.03298"
         id="path5309" />
      <path
         style="fill:none;stroke:#3376ff;stroke-width:1;stroke-linecap:round;stroke-linejoin:bevel;stroke-dasharray:none;stroke-opacity:1"
         d="M 144.69923,18.751964 V 254.03298"
         id="path5313" />
      <path
         style="fill:none;stroke:#3376ff;stroke-width:1;stroke-linecap:round;stroke-linejoin:bevel;stroke-dasharray:none;stroke-opacity:1"
         d="M 196.12815,18.751964 V 254.03298"
         id="path5317" />
      <path
         style="fill:none;stroke:#3376ff;stroke-width:1;stroke-linecap:round;stroke-linejoin:bevel;stroke-dasharray:none;stroke-opacity:1"
         d="M 247.55707,18.751964 V 254.03298"
         id="path5321" />
    </g>
    <g
       id="g5343"
       transform="rotate(-90,83.942117,147.65208)"
       style="stroke:#3376ff;stroke-width:1;stroke-linecap:round;stroke-linejoin:bevel;stroke-dasharray:none;stroke-opacity:1">
      <path
         style="fill:none;stroke:#3376ff;stroke-width:1;stroke-linecap:round;stroke-linejoin:bevel;stroke-dasharray:none;stroke-opacity:1"
         d="M -9.0875336,18.751964 V 328.22249"
         id="path5331"
         sodipodi:nodetypes="cc" />
      <path
         style="fill:none;stroke:#3376ff;stroke-width:1;stroke-linecap:round;stroke-linejoin:bevel;stroke-dasharray:none;stroke-opacity:1"
         d="M 41.841387,18.751964 V 328.22249"
         id="path5333"
         sodipodi:nodetypes="cc" />
      <path
         style="fill:none;stroke:#3376ff;stroke-width:1;stroke-linecap:round;stroke-linejoin:bevel;stroke-dasharray:none;stroke-opacity:1"
         d="M 93.270307,18.751964 V 328.22249"
         id="path5335"
         sodipodi:nodetypes="cc" />
      <path
         style="fill:none;stroke:#3376ff;stroke-width:1;stroke-linecap:round;stroke-linejoin:bevel;stroke-dasharray:none;stroke-opacity:1"
         d="M 144.69923,18.751964 V 328.22249"
         id="path5337"
         sodipodi:nodetypes="cc" />
      <path
         style="fill:none;stroke:#3376ff;stroke-width:1;stroke-linecap:round;stroke-linejoin:bevel;stroke-dasharray:none;stroke-opacity:1"
         d="M 196.12815,18.751964 V 328.22249"
         id="path5339"
         sodipodi:nodetypes="cc" />
    </g>
    <text
       xml:space="preserve"
       style="font-size:10.5833px;line-height:1.25;font-family:'Source Code Pro';-inkscape-font-specification:'Source Code Pro';text-align:center;letter-spacing:0px;word-spacing:0px;text-anchor:middle;stroke-width:0.264583;fill:#3376ff;fill-opacity:1"
       x="6.5826454"
       y="64.425659"
       id="text5505"><tspan
         sodipodi:role="line"
         id="tspan5503"
         style="stroke-width:0.264583;fill:#3376ff;fill-opacity:1"
         x="6.5826445"
         y="64.425659">$s_{1,1}$</tspan></text>
    <g
       id="g6435"
       transform="translate(157.09165,48.026458)">
      <rect
         style="fill:#ffb3b3;fill-opacity:1;stroke:none;stroke-width:0.499999;stroke-linecap:round;stroke-linejoin:bevel;stroke-dasharray:none;stroke-opacity:1"
         id="rect5729"
         width="8.5547171"
         height="15.0851"
         x="49.558083"
         y="107.60083"
         rx="5.5031223"
         ry="3.8304241" />
      <rect
         style="fill:#ff7d7d;fill-opacity:1;stroke:none;stroke-width:0.499998;stroke-linecap:round;stroke-linejoin:bevel;stroke-dasharray:none;stroke-opacity:1"
         id="rect5673"
         width="11.006245"
         height="17.986414"
         x="53.347286"
         y="110.01661"
         rx="5.5031223"
         ry="3.8304243" />
      <path
         style="fill:none;stroke:#ffb3b3;stroke-width:1;stroke-linecap:round;stroke-linejoin:bevel;stroke-dasharray:none;stroke-opacity:1"
         d="m 64.064421,116.93507 c -0.157621,-1.37707 -0.03169,-4.03789 -1.227686,-5.47645 -0.308677,-0.37127 -1.331808,-0.5696 -1.331808,-0.5696"
         id="path6428"
         sodipodi:nodetypes="cac" />
      <circle
         style="fill:#ff9999;fill-opacity:1;stroke:none;stroke-width:0.499998;stroke-linecap:round;stroke-linejoin:bevel;stroke-dasharray:none;stroke-opacity:1"
         id="path5567"
         cx="58.921829"
         cy="108.69084"
         r="4.5764761" />
      <path
         style="fill:none;stroke:#ffb3b3;stroke-width:1;stroke-linecap:round;stroke-linejoin:bevel;stroke-dasharray:none;stroke-opacity:1"
         d="m 53.727112,118.64693 c 0,0 1.931557,-0.0669 2.5867,-0.67042 0.52008,-0.47906 0.708858,-1.29587 0.698747,-2.00289 -0.01906,-1.33301 -0.501164,-2.77574 -1.42486,-3.73702 -0.33454,-0.34816 -1.331808,-0.5696 -1.331808,-0.5696"
         id="path5675"
         sodipodi:nodetypes="caaac" />
    </g>
    <text
       xml:space="preserve"
       style="font-size:10.5833px;line-height:1.25;font-family:'Source Code Pro';-inkscape-font-specification:'Source Code Pro';text-align:center;letter-spacing:0px;word-spacing:0px;text-anchor:middle;stroke-width:0.264583;fill:#3376ff;fill-opacity:1"
       x="59.790977"
       y="64.425659"
       id="text465"><tspan
         sodipodi:role="line"
         id="tspan463"
         style="stroke-width:0.264583;fill:#3376ff;fill-opacity:1"
         x="59.790977"
         y="64.425659">$\cdots$</tspan></text>
    <text
       xml:space="preserve"
       style="font-size:10.5833px;line-height:1.25;font-family:'Source Code Pro';-inkscape-font-specification:'Source Code Pro';text-align:center;letter-spacing:0px;word-spacing:0px;text-anchor:middle;stroke-width:0.264583;fill:#3376ff;fill-opacity:1"
       x="112.10395"
       y="64.425659"
       id="text469"><tspan
         sodipodi:role="line"
         id="tspan467"
         style="stroke-width:0.264583;fill:#3376ff;fill-opacity:1"
         x="112.10395"
         y="64.425659">$s_{1,j}$</tspan></text>
    <text
       xml:space="preserve"
       style="font-size:10.5833px;line-height:1.25;font-family:'Source Code Pro';-inkscape-font-specification:'Source Code Pro';text-align:center;letter-spacing:0px;word-spacing:0px;text-anchor:middle;stroke-width:0.264583;fill:#3376ff;fill-opacity:1"
       x="162.993"
       y="64.425659"
       id="text533"><tspan
         sodipodi:role="line"
         id="tspan531"
         style="stroke-width:0.264583;fill:#3376ff;fill-opacity:1"
         x="162.993"
         y="64.425659">$\cdots$</tspan></text>
    <text
       xml:space="preserve"
       style="font-size:10.5833px;line-height:1.25;font-family:'Source Code Pro';-inkscape-font-specification:'Source Code Pro';text-align:center;letter-spacing:0px;word-spacing:0px;text-anchor:middle;stroke-width:0.264583;fill:#3376ff;fill-opacity:1"
       x="8.137044"
       y="116.1197"
       id="text537"><tspan
         sodipodi:role="line"
         id="tspan535"
         style="stroke-width:0.264583;fill:#3376ff;fill-opacity:1"
         x="8.137043"
         y="116.1197">$\vdots$</tspan></text>
    <text
       xml:space="preserve"
       style="font-size:10.5833px;line-height:1.25;font-family:'Source Code Pro';-inkscape-font-specification:'Source Code Pro';text-align:center;letter-spacing:0px;word-spacing:0px;text-anchor:middle;fill:#3376ff;fill-opacity:1;stroke-width:0.264583"
       x="6.5826454"
       y="168.00656"
       id="text727"><tspan
         sodipodi:role="line"
         id="tspan725"
         style="fill:#3376ff;fill-opacity:1;stroke-width:0.264583"
         x="6.5826445"
         y="168.00656">$s_{i,1}$</tspan></text>
    <text
       xml:space="preserve"
       style="font-size:10.5833px;line-height:1.25;font-family:'Source Code Pro';-inkscape-font-specification:'Source Code Pro';text-align:center;letter-spacing:0px;word-spacing:0px;text-anchor:middle;fill:#3376ff;fill-opacity:1;stroke-width:0.264583"
       x="110.5171"
       y="169.121"
       id="text735"><tspan
         sodipodi:role="line"
         id="tspan733"
         style="fill:#3376ff;fill-opacity:1;stroke-width:0.264583"
         x="110.5171"
         y="169.121">$s_{i,j}$</tspan></text>
    <text
       xml:space="preserve"
       style="font-size:10.5833px;line-height:1.25;font-family:'Source Code Pro';-inkscape-font-specification:'Source Code Pro';text-align:center;letter-spacing:0px;word-spacing:0px;text-anchor:middle;stroke-width:0.264583;fill:#3376ff;fill-opacity:1"
       x="59.999527"
       y="116.1197"
       id="text871"><tspan
         sodipodi:role="line"
         id="tspan869"
         style="stroke-width:0.264583;fill:#3376ff;fill-opacity:1"
         x="59.999527"
         y="116.1197">$\ddots$</tspan></text>
    <path
       style="fill:none;stroke:#ff7d7d;stroke-width:1;stroke-linecap:round;stroke-linejoin:bevel;stroke-dasharray:none;stroke-opacity:1;marker-start:url(#Arrow2)"
       d="m 215.09471,132.09668 v 16.53888"
       id="path1004"
       sodipodi:nodetypes="cc" />
    <path
       style="fill:none;stroke:#ff7d7d;stroke-width:1;stroke-linecap:round;stroke-linejoin:bevel;stroke-dasharray:none;stroke-opacity:1;marker-start:url(#Arrow2)"
       d="m 185.30489,163.42971 h 16.53888"
       id="path10923"
       sodipodi:nodetypes="cc" />
    <path
       style="fill:none;stroke:#ff7d7d;stroke-width:1;stroke-linecap:round;stroke-linejoin:bevel;stroke-dasharray:none;stroke-opacity:1;marker-start:url(#Arrow2)"
       d="M 242.61321,163.42971 H 226.07433"
       id="path10927"
       sodipodi:nodetypes="cc" />
    <path
       style="fill:none;stroke:#ff7d7d;stroke-width:1;stroke-linecap:round;stroke-linejoin:bevel;stroke-dasharray:none;stroke-opacity:1;marker-start:url(#Arrow2)"
       d="M 215.09471,195.58573 V 179.04685"
       id="path10933"
       sodipodi:nodetypes="cc" />
    <text
       xml:space="preserve"
       style="font-size:10.5833px;line-height:1.25;font-family:'Source Code Pro';-inkscape-font-specification:'Source Code Pro';text-align:center;letter-spacing:0px;word-spacing:0px;text-anchor:middle;fill:#ff7d7d;fill-opacity:1;stroke-width:0.264583"
       x="214.59677"
       y="123.36657"
       id="text10939"><tspan
         sodipodi:role="line"
         id="tspan10937"
         style="fill:#ff7d7d;fill-opacity:1;stroke-width:0.264583"
         x="214.59677"
         y="123.36657">$a_{N}$</tspan></text>
    <text
       xml:space="preserve"
       style="font-size:10.5833px;line-height:1.25;font-family:'Source Code Pro';-inkscape-font-specification:'Source Code Pro';text-align:center;letter-spacing:0px;word-spacing:0px;text-anchor:middle;fill:#ff7d7d;fill-opacity:1;stroke-width:0.264583"
       x="214.59677"
       y="209.20425"
       id="text11012"><tspan
         sodipodi:role="line"
         id="tspan11010"
         style="fill:#ff7d7d;fill-opacity:1;stroke-width:0.264583"
         x="214.59677"
         y="209.20425">$a_{S}$</tspan></text>
    <text
       xml:space="preserve"
       style="font-size:10.5833px;line-height:1.25;font-family:'Source Code Pro';-inkscape-font-specification:'Source Code Pro';text-align:end;letter-spacing:0px;word-spacing:0px;text-anchor:end;fill:#ff7d7d;fill-opacity:1;stroke-width:0.264583"
       x="179.90486"
       y="166.55003"
       id="text11016"><tspan
         sodipodi:role="line"
         id="tspan11014"
         style="text-align:end;text-anchor:end;fill:#ff7d7d;fill-opacity:1;stroke-width:0.264583"
         x="179.90486"
         y="166.55003">$a_{W}$</tspan></text>
    <text
       xml:space="preserve"
       style="font-size:10.5833px;line-height:1.25;font-family:'Source Code Pro';-inkscape-font-specification:'Source Code Pro';text-align:start;letter-spacing:0px;word-spacing:0px;text-anchor:start;fill:#ff7d7d;fill-opacity:1;stroke-width:0.264583"
       x="248.06071"
       y="166.55003"
       id="text11020"><tspan
         sodipodi:role="line"
         id="tspan11018"
         style="text-align:start;text-anchor:start;fill:#ff7d7d;fill-opacity:1;stroke-width:0.264583"
         x="248.06071"
         y="166.55003">$a_{E}$</tspan></text>
    <path
       style="fill:none;stroke:#ff7d7d;stroke-width:1;stroke-linecap:round;stroke-linejoin:bevel;stroke-dasharray:3,3;stroke-opacity:1;marker-start:url(#Arrow2);stroke-dashoffset:0"
       d="M 182.16814,194.79245 194.1115,163.61287"
       id="path11443"
       sodipodi:nodetypes="cc" />
    <path
       style="fill:none;stroke:#ff7d7d;stroke-width:1;stroke-linecap:round;stroke-linejoin:bevel;stroke-dasharray:3, 3;stroke-dashoffset:0;stroke-opacity:1;marker-start:url(#Arrow2)"
       d="m 182.16814,132.50088 11.94336,31.17958"
       id="path11449"
       sodipodi:nodetypes="cc" />
  </g>
</svg>
