<?xml version="1.0" encoding="UTF-8" standalone="no"?>
<!-- Created with Inkscape (http://www.inkscape.org/) -->

<svg
   version="1.1"
   id="svg387"
   width="795.91315"
   height="342.6322"
   viewBox="0 0 795.91315 342.6322"
   sodipodi:docname="filament__600.svg"
   inkscape:version="1.2.1 (9c6d41e410, 2022-07-14)"
   xmlns:inkscape="http://www.inkscape.org/namespaces/inkscape"
   xmlns:sodipodi="http://sodipodi.sourceforge.net/DTD/sodipodi-0.dtd"
   xmlns="http://www.w3.org/2000/svg"
   xmlns:svg="http://www.w3.org/2000/svg">
  <defs
     id="defs391" />
  <sodipodi:namedview
     id="namedview389"
     pagecolor="#ffffff"
     bordercolor="#666666"
     borderopacity="1.0"
     inkscape:showpageshadow="2"
     inkscape:pageopacity="0.0"
     inkscape:pagecheckerboard="0"
     inkscape:deskcolor="#d1d1d1"
     showgrid="false"
     inkscape:zoom="1.1371994"
     inkscape:cx="301.17848"
     inkscape:cy="220.71766"
     inkscape:window-width="1916"
     inkscape:window-height="1037"
     inkscape:window-x="0"
     inkscape:window-y="20"
     inkscape:window-maximized="1"
     inkscape:current-layer="g393" />
  <g
     inkscape:groupmode="layer"
     inkscape:label="Image"
     id="g393"
     transform="translate(91.040025,-132.47266)">
    <path
       style="fill:#ceb27a"
       d="m -90.973393,469.93575 c -0.610128,-2.06831 3.010763,-4.24473 9.179559,-5.51759 4.817363,-0.994 5.312554,-1.25124 3.133551,-1.62785 -3.195443,-0.55227 -4.027772,-1.53737 -3.699522,-4.37856 0.190572,-1.64962 1.886617,-3.50128 6.709793,-7.32543 9.619261,-7.62684 13.991432,-6.73979 9.783511,1.98492 l -1.983611,4.11283 7.468287,-2.48852 c 13.825891,-4.60695 25.830892,-10.53305 35.816102,-17.68011 8.644994,-6.18777 9.604298,-7.11801 10.822235,-10.49416 2.692345,-7.46323 2.308626,-11.04314 -2.364907,-22.06397 -4.739244,-11.17576 -10.218458,-34.31968 -10.609189,-44.81273 -0.120629,-3.23951 0.401899,-8.10451 1.161195,-10.81111 1.176214,-4.19273 2.09116,-5.48451 6.181921,-8.72796 5.331173,-4.22693 5.525728,-4.26595 20.4988228,-4.11471 12.8758752,0.1301 28.0469832,-1.8988 34.5614362,-4.62206 10.932712,-4.5702 19.930004,-9.8915 23.285509,-13.77179 5.666187,-6.55239 10.617409,-15.9284 13.553469,-25.6659 6.023629,-19.97749 10.42053,-36.05813 13.787464,-50.42444 2.757376,-11.76541 5.026885,-18.16659 10.765698,-30.36478 3.999459,-8.50114 6.803069,-15.46759 6.230229,-15.48101 -18.421099,-0.43183 -27.647677,-2.18395 -30.492118,-5.79042 -0.699588,-0.88717 -1.388143,-3.02298 -1.529948,-4.74638 -0.141808,-1.7234 -0.429283,-5.2283 -0.638836,-7.78867 -0.20957,-2.56037 -1.271056,-7.39523 -2.358882,-10.74414 -5.138864,-15.82023 -4.486869,-21.33341 3.243248,-27.42426 7.434075,-5.8575 21.817495,-8.22111 34.579416,-5.68226 3.64486,0.72512 9.99495,1.89072 14.1113,2.59023 13.51478,2.29666 18.64134,4.84129 16.62461,8.25186 -0.62245,1.05266 -0.4082,1.49574 0.85164,1.76123 0.92581,0.19509 2.02162,-0.21741 2.43511,-0.91668 1.21874,-2.06108 3.15677,-1.82616 3.56535,0.43219 0.30021,1.6594 3.43073,2.30296 18.77547,3.85972 10.12836,1.02756 21.46828,1.45756 25.19982,0.95558 10.46531,-1.40783 22.40162,0.46637 33.02102,5.18488 14.92078,6.62973 23.69616,14.33255 41.95397,36.82622 11.13923,13.72354 11.36938,14.086 12.71546,20.02446 2.32036,10.23659 2.88931,20.75153 1.61357,29.82109 l -1.22019,8.67473 3.69898,-3.37823 c 2.03442,-1.85803 4.6866,-3.8246 5.89374,-4.37016 2.42557,-1.09624 7.43505,1.15876 8.636,3.88747 0.66431,1.50942 1.33175,0.75639 5.54763,-6.25915 5.56771,-9.26505 9.74056,-14.1779 11.50166,-13.54133 1.4084,0.50907 0.35339,3.60526 -6.14925,18.04632 -4.65383,10.33524 -4.69905,10.57284 -2.68047,14.0859 1.12927,1.96534 3.83503,11.19408 6.01279,20.50833 2.87957,12.31593 4.23764,16.5379 4.9791,15.4791 5.93152,-8.47006 9.23116,-11.21876 10.91619,-9.09354 0.45005,0.56762 0.61996,6.46436 0.37759,13.10386 -0.74937,20.52823 2.13186,29.90333 11.14533,36.2651 7.44667,5.25592 17.50121,7.81902 44.3181,11.29755 25.38972,3.29341 31.06587,4.80222 36.37663,9.66951 2.51398,2.30404 2.94704,3.56192 3.48321,10.1172 0.58611,7.16593 -0.25036,9.94562 -2.54232,8.44836 -0.58527,-0.38234 -1.67397,-3.86799 -2.4193,-7.74591 -0.74536,-3.87791 -1.72689,-7.51956 -2.18119,-8.09254 -1.27369,-1.60643 -6.55212,0.6988 -12.7017,5.54714 -12.28068,9.68212 -33.59217,20.78473 -50.96144,26.54929 -10.81201,3.5883 -20.34254,4.70852 -33.24637,3.90775 -21.60552,-1.34077 -26.08669,-1.20222 -24.53209,0.7585 0.75455,0.95167 20.63717,1.40647 33.02487,0.7554 10.63454,-0.55894 30.05432,1.7706 38.94599,4.67182 2.84258,0.92749 6.68887,2.81187 8.54729,4.18752 4.71319,3.48879 11.71073,14.39506 14.6445,22.8247 1.32568,3.8091 3.33445,8.09118 4.46394,9.51572 2.83364,3.57391 9.12175,6.99485 11.3214,6.15924 1.00211,-0.38069 5.92204,-1.07056 10.93321,-1.53306 5.01116,-0.46251 9.10292,-1.0087 9.09279,-1.21377 -0.0102,-0.20507 -1.14943,-2.66721 -2.5318,-5.4714 -3.63592,-7.37563 -3.08492,-17.4168 0.87716,-15.98469 1.36342,0.49281 5.41932,11.45288 6.12331,16.54672 0.64664,4.67888 2.1658,6.02784 11.97119,10.62997 11.40054,5.3508 21.42869,8.34929 28.7354,8.5921 3.75082,0.12463 13.02373,1.52282 20.60643,3.10707 19.40964,4.05524 49.43081,7.80417 61.37883,7.66473 13.00833,-0.1518 20.48822,-1.16715 39.7543,-5.39615 25.06198,-5.50129 38.59746,-11.23425 59.30464,-25.1185 30.73887,-20.61057 47.09985,-40.79706 50.6947,-62.54816 1.42633,-8.63014 0.24849,-17.93395 -2.74901,-21.71451 -1.64033,-2.06884 -1.78041,-2.04437 -3.45954,0.60443 -2.1478,3.38812 -3.83291,3.29824 -9.08615,-0.48467 -4.84471,-3.48872 -13.82094,-4.45998 -22.60998,-2.44649 -7.46594,1.71038 -19.03291,7.25525 -35.50734,17.02122 -27.84067,16.50378 -49.62107,26.29566 -77.42718,34.80915 -24.61416,7.5362 -44.86869,14.98167 -46.01097,16.91342 -1.22925,2.07883 1.75768,5.56928 6.15034,7.18714 2.04628,0.75366 8.603,0.91386 15.28654,0.3735 6.43684,-0.52041 18.48474,-1.44709 26.77312,-2.05928 20.92451,-1.54553 45.27841,-6.692 66.12915,-13.97447 10.32906,-3.60759 25.19824,-10.92315 27.77131,-13.66332 2.59208,-2.76045 2.05534,-4.50416 -0.71124,-2.31061 -7.68409,6.09251 -37.63835,15.67171 -78.26594,25.02902 -1.63218,0.37593 -3.34208,0.21115 -3.79979,-0.36611 -0.4577,-0.57727 -0.70998,-1.14649 -0.56061,-1.26493 0.14938,-0.11844 7.76549,-1.92055 16.92469,-4.00469 18.88435,-4.29707 42.88383,-11.36374 51.18612,-15.07179 3.0742,-1.37303 9.16922,-4.45071 13.54447,-6.83927 8.50645,-4.64387 10.05622,-4.99255 10.85617,-2.44246 0.85992,2.74132 -8.8524,11.30239 -17.87337,15.75472 -21.05506,10.39181 -56.90208,19.49759 -84.51168,21.46749 -43.68992,3.11717 -41.32913,3.13184 -47.09952,-0.29274 -5.21962,-3.09773 -6.44855,-6.78103 -3.13818,-9.40572 2.75957,-2.18798 29.13763,-11.75562 48.75309,-17.68333 25.33703,-7.65675 47.08264,-17.6996 79.44655,-36.69106 21.07178,-12.36513 30.498,-16.11009 41.53475,-16.50139 5.65275,-0.20042 14.99008,2.48538 16.86598,4.85133 0.61651,0.77758 1.47355,1.13419 1.90452,0.79248 0.43097,-0.3417 0.50402,-0.9739 0.16231,-1.40487 -0.34171,-0.43097 0.44528,-1.62923 1.74887,-2.66281 3.01109,-2.38741 6.3846,-0.62182 10.0374,5.25326 6.61255,10.6355 3.59866,30.35651 -7.1148,46.55481 -8.76667,13.25485 -19.91728,23.74774 -40.21898,37.8466 -16.0619,11.15448 -27.93922,17.53807 -40.95593,22.01223 -11.52142,3.96019 -41.15106,10.16567 -53.98962,11.30733 -11.85395,1.05407 -45.80959,-2.52526 -68.4791,-7.21857 -8.07266,-1.67128 -18.87916,-3.44021 -24.01444,-3.93095 -5.13529,-0.49073 -12.64132,-2.0051 -16.68005,-3.36526 -8.87386,-2.98853 -21.63855,-8.82821 -22.97126,-10.50908 -0.53181,-0.67073 -1.77096,-0.96607 -2.75368,-0.65629 -0.98271,0.30978 -5.93252,0.86596 -10.99956,1.23597 -5.06707,0.36999 -10.06684,0.99714 -11.1106,1.39366 -1.04378,0.39651 -3.92501,-0.10618 -6.40275,-1.1171 -5.78658,-2.36095 -10.1249,-7.81112 -11.98176,-15.05265 -1.73591,-6.76966 -9.06079,-18.43497 -14.27142,-22.72812 -6.86156,-5.65334 -28.10345,-9.63878 -45.52909,-8.54221 -15.41098,0.96979 -33.61337,0.25916 -34.89912,-1.36247 -0.63189,-0.79696 -0.96222,-2.33484 -0.73407,-3.4175 0.62883,-2.98402 5.53816,-3.70854 18.67656,-2.75631 6.19597,0.44905 13.66965,0.8485 16.6082,0.88764 18.71676,0.24932 45.64259,-10.35355 73.34578,-28.88214 l 12.55694,-8.39841 -2.90007,-1.30612 c -1.59505,-0.71837 -13.93534,-2.72846 -27.42288,-4.46687 -33.03026,-4.25726 -43.9147,-7.7553 -50.75307,-16.31099 -1.92329,-2.40626 -4.04054,-5.89609 -4.70502,-7.75517 -1.83064,-5.12163 -2.8775,-18.23533 -2.19769,-27.52955 0.33394,-4.5656 0.34351,-8.33156 0.0213,-8.36878 -0.32225,-0.0372 -2.50908,2.69348 -4.85963,6.06825 l -4.27376,6.13595 1.40576,10.55753 c 2.52642,18.97382 8.2143,37.02607 15.74666,49.97695 4.05358,6.96952 4.70481,7.68532 10.68923,11.74895 6.54464,4.44404 8.64564,6.91718 7.44133,8.7593 -1.05161,1.60853 -6.33385,-1.231 -10.93014,-5.87565 -2.51044,-2.53684 -10.47409,-7.90117 -20.30802,-13.67954 -18.8253,-11.06164 -21.91612,-13.23614 -26.70967,-18.79126 -3.49016,-4.04466 -3.56788,-4.07341 -4.92245,-1.82144 -3.77817,6.28116 -7.11654,15.11429 -7.84127,20.74745 -1.02572,7.97273 -2.64383,9.48678 -5.83602,5.46067 -2.985,-3.7648 -3.99456,-9.56554 -4.03918,-23.20819 -0.0315,-9.61792 0.23968,-11.04023 2.28049,-11.96257 1.54338,-0.69753 2.7848,-2.34324 3.72063,-4.93232 1.35317,-3.74371 1.86377,-9.79719 0.92611,-10.97981 -0.24921,-0.31431 -2.87566,4.717 -5.83655,11.18066 -5.66906,12.37561 -10.0572,17.6212 -14.03894,16.78212 -2.55237,-0.53787 -2.83588,-3.14473 -1.21317,-11.15489 1.06697,-5.26684 0.88117,-8.75741 -0.87874,-16.50779 -1.22747,-5.40576 -3.33246,-12.28921 -4.67772,-15.29652 -6.16592,-13.78376 -24.75653,-38.29629 -34.71179,-45.76902 -2.38013,-1.78658 -4.28982,-3.57457 -4.24376,-3.97329 0.0461,-0.39872 1.41561,-1.78094 3.04344,-3.0716 l 2.95969,-2.34665 -4.10985,-2.1652 c -4.55049,-2.39735 -22.26704,-16.07926 -27.92679,-21.56694 -1.99123,-1.93071 -7.09464,-5.35004 -11.34088,-7.59853 -7.8444,-4.15378 -8.43828,-4.41564 -14.48087,-6.38511 -1.88211,-0.61343 -5.24804,-2.25181 -7.47983,-3.64083 -7.61238,-4.73776 -15.97919,-8.38055 -21.63639,-9.42016 l -5.64996,-1.03828 -11.56667,17.60312 c -6.96362,10.5978 -14.12388,22.95471 -17.992498,31.05074 -6.996902,14.64273 -7.66078,17.88739 -8.224415,40.1965 -0.153824,6.08812 -0.751644,15.0013 -1.328505,19.80708 -0.883254,7.3583 -1.682974,9.66301 -5.065539,14.59835 -7.217094,10.53012 -12.937589,15.93775 -21.426623,20.2548 -9.138423,4.6473 -15.312281,5.98602 -29.146461,6.32006 -5.842233,0.14106 -12.266359,0.96588 -14.275829,1.83292 -6.4623509,2.78838 -11.2273676,11.21845 -13.50303146,23.88902 -0.61922184,3.44776 -2.14777954,9.37605 -3.39680384,13.17396 -2.4293902,7.38708 -2.8999293,26.81698 -0.857255,35.3989 1.598714,6.7168 1.1303934,12.05237 -1.3040178,14.85631 -4.4473259,5.12239 -37.4249409,21.95802 -56.1906019,28.68625 -7.364539,2.64048 -8.64677,3.37014 -8.681866,4.94051 -0.02298,1.02789 -1.425245,2.93986 -3.171762,4.32462 -2.591759,2.05494 -4.069347,2.37371 -8.58478,1.85204 -5.1004,-0.58925 -7.112339,-1.82859 -8.032525,-4.94799 z m 11.118777,-0.20151 c 1.123281,0.0251 1.681565,-0.29352 1.317919,-0.75215 -0.346988,-0.43763 -1.320723,-0.5793 -2.163876,-0.31481 -0.843142,0.26449 -1.436206,0.60295 -1.317919,0.75214 0.118286,0.14919 1.092032,0.29086 2.163876,0.31482 z m 69.062945,-36.41136 c 3.6002235,-4.1952 1.5270601,-3.59431 -3.715732,1.07698 -5.009043,4.46302 -5.120035,4.6497 -1.726938,2.90467 1.994371,-1.02569 4.443575,-2.81743 5.44267,-3.98165 z m -0.430197,-32.03214 c -0.441516,-6.10449 0.445948,-13.37585 2.0649162,-16.91869 0.9157022,-2.00388 2.5491327,-7.93533 3.6298355,-13.181 2.5887347,-12.56557 5.51692133,-18.33434 11.8723405,-23.38942 5.7697028,-4.58919 8.4871758,-5.29048 20.8487348,-5.38015 20.583103,-0.1493 33.288765,-6.11232 44.530283,-20.89897 5.904075,-7.76596 7.675391,-13.31777 8.265831,-25.90741 0.252024,-5.37383 0.552592,-11.51352 0.667929,-13.64374 0.257478,-4.75562 -0.229181,-3.63227 -4.45502,10.28328 -3.560047,11.72318 -9.424228,22.3551 -15.901223,28.82941 -4.045618,4.04394 -21.066145,13.47533 -27.682044,15.33915 -6.021021,1.69621 -23.1830987,3.36402 -33.7185808,3.27676 -12.1797212,-0.10088 -15.5532662,1.18165 -18.3491532,6.97583 -2.892627,5.99466 -3.009385,13.87081 -0.422941,28.52823 2.66956,15.1283 9.303706,35.13777 8.649092,26.08672 z M 91.964478,236.96604 c 1.044631,-2.00221 7.189382,-11.81667 13.655002,-21.80991 6.46563,-9.99323 11.7903,-18.44267 11.83262,-18.77651 0.16068,-1.26769 -8.87709,-0.76913 -9.68733,0.53414 -5.84415,9.4022 -19.255236,41.73043 -17.979167,43.33985 0.15374,0.19391 1.134228,-1.28562 2.17886,-3.28783 z m -0.882944,-45.33213 c 6.967104,0.64154 13.561076,0.76258 14.653276,0.26896 1.73857,-0.78574 8.20165,-11.32507 7.493,-12.21884 -0.14713,-0.18558 -2.84165,-1.67004 -5.98781,-3.29881 -11.164456,-5.77984 -19.699467,-18.11283 -18.442276,-26.64888 0.644822,-4.37823 5.505022,-9.13086 11.650756,-11.39292 l 4.771,-1.75607 -6.540944,-0.40418 c -9.715386,-0.60035 -20.040778,1.78337 -25.099846,5.79456 -5.853726,4.64125 -6.3475,9.67675 -2.292768,23.38115 1.699499,5.74405 3.089143,13.00618 3.088084,16.1381 -0.0014,4.30344 0.491756,6.09448 2.019081,7.33241 1.149672,0.93184 7.482282,2.14095 14.688447,2.80452 z m 24.674606,1.02952 4.0224,0.37762 2.89472,-4.42086 2.89474,-4.42085 -3.94947,-1.58047 c -2.1722,-0.86926 -4.14678,-1.63445 -4.38797,-1.70042 -0.66065,-0.1807 -6.33824,10.30611 -5.88751,10.87457 0.21489,0.27105 2.20079,0.66272 4.41309,0.87041 z m -9.31668,-20.7042 c 3.41146,2.14454 6.78013,3.96588 7.48592,4.04742 0.77443,0.0895 3.32089,-4.23034 6.42216,-10.89453 2.82638,-6.07353 6.27885,-12.67619 7.67216,-14.67259 1.3933,-1.99639 2.43153,-3.75812 2.30718,-3.91497 -0.12434,-0.15683 -3.83617,-1.96069 -8.24852,-4.00858 -7.71292,-3.57978 -8.29595,-3.6643 -15.11201,-2.19076 -4.04229,0.87391 -8.454692,2.55794 -10.265551,3.91797 -8.542475,6.4157 -4.119035,19.00472 9.738661,27.71604 z m 23.95836,22.84537 c 7.71155,1.818 10.22018,2.91226 18.67918,8.14781 3.59859,2.2273 8.51097,4.5213 10.9164,5.0978 2.40544,0.57649 5.3305,1.72512 6.50014,2.5525 1.16965,0.82738 4.65356,2.68046 7.74201,4.11795 3.08847,1.4375 7.25409,4.16467 9.25692,6.06039 6.12717,5.79944 23.45252,19.25338 28.63808,22.23878 5.65028,3.25295 6.34302,5.4928 2.61337,8.44994 -2.11814,1.67941 -2.09613,1.81648 0.59101,3.679 4.7103,3.26483 20.03794,21.7093 26.37114,31.73366 7.86933,12.45576 10.54635,18.6903 13.19517,30.73034 1.72065,7.82104 1.92968,11.66147 0.93275,17.12738 -1.35366,7.4182 -0.78834,9.84189 1.8143,7.77834 2.15613,-1.70954 13.81522,-27.53704 13.39823,-29.68008 -0.89434,-4.59366 -13.12627,-23.69059 -29.85295,-46.60666 -8.44055,-11.56382 -13.18182,-16.94732 -31.43594,-35.69408 -6.84048,-7.0251 -17.55749,-14.38037 -27.92731,-19.16701 -3.56402,-1.64514 -8.38149,-4.72993 -10.70548,-6.85511 -6.20857,-5.67744 -15.20772,-10.56409 -22.96898,-12.47242 -3.75973,-0.92444 -9.54029,-2.69512 -12.84566,-3.93484 -3.30538,-1.23973 -6.19886,-2.2875 -6.42995,-2.32839 -0.52712,-0.0933 -5.39961,6.83539 -5.0855,7.23155 0.12683,0.15996 3.0982,0.96686 6.60307,1.79315 z m 0.22491,-21.04664 3.76176,-8.105 -3.71251,-0.28753 c -5.21398,-0.40378 -4.78519,-2.95698 0.6221,-3.70429 l 4.00381,-0.55334 1.06732,-4.01784 c 0.58702,-2.20981 1.32849,-4.67614 1.64771,-5.48073 0.46222,-1.16501 0.11193,-1.66597 -1.72028,-2.46016 -3.21933,-1.39548 -5.22399,1.23587 -12.35417,16.21621 l -5.84582,12.28196 4.38416,2.10787 4.38417,2.10787 z M 273.47734,362.8845 c 0.72873,-4.93185 3.98662,-13.3374 7.70898,-19.88967 l 3.00861,-5.2959 -2.78387,-5.39833 c -1.53114,-2.96909 -3.03683,-6.14462 -3.34598,-7.05674 -0.3875,-1.14326 -0.74238,-0.55053 -1.14246,1.90818 -0.3352,2.06003 -1.82093,4.85524 -3.51728,6.61729 -2.61367,2.71494 -2.96743,4.12836 -3.21417,12.84193 -0.36967,13.05425 2.01609,24.86863 3.28617,16.27324 z M 146.19947,188.40778 c 3.67471,0.94689 7.92838,2.16855 9.45262,2.71477 4.19588,1.50363 13.22173,7.1778 17.86769,11.23264 2.27668,1.98701 7.89691,5.51022 12.48941,7.82937 14.37956,7.26148 20.21614,11.83481 35.18707,27.57135 12.16027,12.78214 15.2433,16.56543 27.79794,34.11189 13.40778,18.73881 20.26141,29.17439 22.69098,34.55015 1.54549,3.41962 2.43021,2.21186 4.43382,-6.05274 5.0746,-20.93199 7.51906,-28.77861 11.92893,-38.29156 l 4.84945,-10.46125 -2.74688,-2.98263 c -2.29065,-2.48721 -3.13384,-2.80228 -5.07648,-1.89685 -3.93708,1.83497 -8.97665,8.33315 -9.25449,11.93301 -0.30546,3.95764 -3.9096,7.40593 -5.1858,4.96155 -0.45355,-0.86872 -0.14131,-3.24413 0.69392,-5.27872 0.83521,-2.03457 2.06174,-9.89844 2.72563,-17.47527 0.88563,-10.10776 0.73361,-16.08554 -0.57091,-22.44927 -1.76609,-8.61535 -1.83049,-8.74312 -9.65195,-19.1471 -18.69862,-24.8726 -37.90341,-40.93113 -52.17578,-43.62797 -2.58611,-0.48866 -2.2838,-0.25439 1.4878,1.153 9.26546,3.45743 8.03268,8.33086 -2.67798,10.58655 -12.12891,2.55437 -38.74934,5.02558 -46.92602,4.35622 -8.47703,-0.69395 -15.8261,-3.29314 -18.36494,-6.49523 -0.81995,-1.03415 -2.48994,-1.46754 -4.31717,-1.12038 -2.74175,0.52091 -3.12697,0.96783 -4.81926,5.59117 -1.01161,2.76375 -2.87166,6.81968 -4.13342,9.01318 l -2.29413,3.98816 4.95434,1.98218 c 2.72489,1.09018 7.96092,2.75688 11.63561,3.70378 z m -4.57831,-30.43855 c -0.0786,-2.76312 -0.97372,-2.72317 -1.97506,0.0881 -0.58288,1.63649 -0.40972,2.24204 0.61003,2.13332 0.82521,-0.088 1.39918,-1.02208 1.36503,-2.22147 z M 133.40784,143.674 c 1.18432,-0.93901 -0.51313,-1.98233 -4.25622,-2.61607 l -3.72143,-0.63007 3.6696,1.87617 c 2.01828,1.0319 3.95691,1.64839 4.30805,1.36997 z m 26.02789,12.20104 7.98757,-1.99755 -11.26049,-1.36336 c -6.19329,-0.74986 -11.4892,-1.18204 -11.76871,-0.96043 -0.27951,0.22161 -0.15471,1.98849 0.27735,3.92639 0.90621,4.06469 0.16905,4.04497 14.76429,0.39495 z m 2.24592,12.02773 c 13.33085,1.25636 55.38583,-3.72322 53.33108,-6.31475 -1.53943,-1.94159 -10.82154,-4.07604 -23.23603,-5.34321 -10.66221,-1.0883 -13.42164,-0.88489 -25.45525,1.87648 -19.74973,4.53199 -18.88387,4.16198 -15.86365,6.77885 1.74594,1.5128 5.1889,2.43386 11.22385,3.00263 z m 128.43377,160.53889 c 2.01568,-3.04719 6.84581,-9.85799 10.7336,-15.1351 3.8878,-5.2771 7.42774,-10.62957 7.86654,-11.89435 1.08998,-3.14176 -7.02877,-37.33567 -9.42047,-39.67645 -1.80264,-1.76426 -2.01183,-1.38612 -11.24411,20.32605 -11.6664,27.43667 -12.34268,31.6115 -6.89812,42.58351 1.97512,3.98033 3.77098,7.66865 3.99077,8.19629 0.71046,1.70548 1.24754,1.23016 4.97179,-4.39995 z m 9.86332,21.43916 c 5.80817,4.10082 26.36474,16.2088 26.43826,15.57233 0.0301,-0.26034 -1.75996,-4.51567 -3.97787,-9.4563 -5.06782,-11.28914 -9.26192,-26.06888 -11.0594,-38.97262 -0.76473,-5.48985 -1.59521,-10.0052 -1.84553,-10.03413 -0.45886,-0.053 -4.68038,5.71168 -13.84231,18.90232 -8.39477,12.08616 -8.10867,10.9221 -3.96786,16.14466 1.99668,2.51829 5.71129,6.04796 8.25471,7.84374 z m -9.95594,-80.40819 c 6.06208,-13.77542 5.84435,-13.17636 4.83151,-13.29337 -1.33494,-0.15423 -11.42689,23.8875 -10.51171,25.04175 0.18044,0.22757 2.73653,-5.0592 5.6802,-11.74838 z m -85.747,-114.98814 c 1.48042,0.0966 2.5519,-6e-4 2.38104,-0.21614 -0.17085,-0.21549 -1.5219,-0.47086 -3.00232,-0.56751 -1.48043,-0.0966 -2.55189,6e-4 -2.38104,0.21614 0.17086,0.21549 1.5219,0.47086 3.00232,0.56751 z m 96.42455,92.64209 c 3.18829,-6.39671 2.30985,-6.4982 -1.21756,-0.14067 -1.49697,2.69802 -2.38894,4.94395 -1.98215,4.99094 0.40678,0.047 1.84665,-2.13562 3.19971,-4.85027 z"
       id="path501" />
  </g>
</svg>
